{"asset":{"version":"2.0","generator":"Unity 6000.2.9f1 glTFast 6.15.1"},"nodes":[{"name":"Elf_arbalester","mesh":0,"translation":[31.9493332,0,39.44306]}],"buffers":[{"uri":"Elf_arbalester.bin","byteLength":114444}],"bufferViews":[{"buffer":0,"byteLength":1920},{"buffer":0,"byteLength":13740,"byteOffset":1920,"target":34963},{"buffer":0,"byteLength":82320,"byteOffset":15660,"byteStride":40,"target":34962},{"buffer":0,"byteLength":16464,"byteOffset":97980,"byteStride":8,"target":34962}],"accessors":[{"bufferView":2,"componentType":5126,"count":2058,"type":"VEC3","max":[0.8372666,1.028402,0.163328171],"min":[-0.526638,-0.000317931175,-0.2252649]},{"bufferView":2,"componentType":5126,"count":2058,"type":"VEC3","byteOffset":12},{"bufferView":2,"componentType":5126,"count":2058,"type":"VEC4","byteOffset":24},{"bufferView":3,"componentType":5126,"count":2058,"type":"VEC2"},{"bufferView":0,"componentType":5126,"count":30,"type":"MAT4"},{"bufferView":1,"componentType":5123,"count":6870,"type":"SCALAR"}],"images":[{"name":"Elf_arbalester.jpg","uri":"Elf_arbalester.jpg","mimeType":"image/jpeg"}],"materials":[{"name":"Elf_arbalester","pbrMetallicRoughness":{"metallicFactor":0,"baseColorTexture":{"index":0}}}],"meshes":[{"name":"Elf_arbalester","primitives":[{"attributes":{"POSITION":0,"NORMAL":1,"TANGENT":2,"TEXCOORD_0":3},"indices":5,"material":0}]}],"scene":0,"scenes":[{"name":"Elf_arbalester","nodes":[0]}],"textures":[{"source":0}]}