{"asset":{"version":"2.0","generator":"Unity 6000.2.9f1 glTFast 6.15.1"},"nodes":[{"name":"Ghost","mesh":0,"translation":[32.2037773,0,40.76637]}],"buffers":[{"uri":"Ghost.bin","byteLength":122040}],"bufferViews":[{"buffer":0,"byteLength":4288},{"buffer":0,"byteLength":14600,"byteOffset":4288,"target":34963},{"buffer":0,"byteLength":85960,"byteOffset":18888,"byteStride":40,"target":34962},{"buffer":0,"byteLength":17192,"byteOffset":104848,"byteStride":8,"target":34962}],"accessors":[{"bufferView":2,"componentType":5126,"count":2149,"type":"VEC3","max":[0.472453475,1.19367623,0.392449737],"min":[-1.22052062,-0.130816221,-0.286910772]},{"bufferView":2,"componentType":5126,"count":2149,"type":"VEC3","byteOffset":12},{"bufferView":2,"componentType":5126,"count":2149,"type":"VEC4","byteOffset":24},{"bufferView":3,"componentType":5126,"count":2149,"type":"VEC2"},{"bufferView":0,"componentType":5126,"count":67,"type":"MAT4"},{"bufferView":1,"componentType":5123,"count":7299,"type":"SCALAR"}],"images":[{"name":"Ghost.jpg","uri":"Ghost.jpg","mimeType":"image/jpeg"}],"materials":[{"name":"Ghost","pbrMetallicRoughness":{"metallicFactor":0,"baseColorTexture":{"index":0}}}],"meshes":[{"name":"Ghost","primitives":[{"attributes":{"POSITION":0,"NORMAL":1,"TANGENT":2,"TEXCOORD_0":3},"indices":5,"material":0}]}],"scene":0,"scenes":[{"name":"Ghost","nodes":[0]}],"textures":[{"source":0}]}