{"asset":{"version":"2.0","generator":"Unity 6000.2.9f1 glTFast 6.15.1"},"nodes":[{"name":"LyrielRoom","mesh":0,"translation":[18.7221,1.15,-11.6707077],"rotation":[0,0.5960077,0,0.8029788]}],"buffers":[{"uri":"LyrielRoom.bin","byteLength":1811064}],"bufferViews":[{"buffer":0,"byteLength":108648,"target":34963},{"buffer":0,"byteLength":1702416,"byteOffset":108648,"byteStride":48,"target":34962}],"accessors":[{"bufferView":1,"componentType":5126,"count":35467,"type":"VEC3","max":[4.972004,6.10999966,14.5745964],"min":[-11.8124542,-0.5699997,-1.573154]},{"bufferView":1,"componentType":5126,"count":35467,"type":"VEC3","byteOffset":12},{"bufferView":1,"componentType":5126,"count":35467,"type":"VEC4","byteOffset":24},{"bufferView":1,"componentType":5126,"count":35467,"type":"VEC2","byteOffset":40},{"bufferView":0,"componentType":5123,"count":792,"type":"SCALAR"},{"bufferView":0,"componentType":5123,"count":324,"type":"SCALAR","byteOffset":1584},{"bufferView":0,"componentType":5123,"count":1008,"type":"SCALAR","byteOffset":2232},{"bufferView":0,"componentType":5123,"count":5328,"type":"SCALAR","byteOffset":4248},{"bufferView":0,"componentType":5123,"count":1146,"type":"SCALAR","byteOffset":14904},{"bufferView":0,"componentType":5123,"count":1644,"type":"SCALAR","byteOffset":17196},{"bufferView":0,"componentType":5123,"count":11148,"type":"SCALAR","byteOffset":20484},{"bufferView":0,"componentType":5123,"count":7530,"type":"SCALAR","byteOffset":42780},{"bufferView":0,"componentType":5123,"count":1380,"type":"SCALAR","byteOffset":57840},{"bufferView":0,"componentType":5123,"count":9720,"type":"SCALAR","byteOffset":60600},{"bufferView":0,"componentType":5123,"count":6072,"type":"SCALAR","byteOffset":80040},{"bufferView":0,"componentType":5123,"count":2100,"type":"SCALAR","byteOffset":92184},{"bufferView":0,"componentType":5123,"count":1878,"type":"SCALAR","byteOffset":96384},{"bufferView":0,"componentType":5123,"count":1704,"type":"SCALAR","byteOffset":100140},{"bufferView":0,"componentType":5123,"count":372,"type":"SCALAR","byteOffset":103548},{"bufferView":0,"componentType":5123,"count":480,"type":"SCALAR","byteOffset":104292},{"bufferView":0,"componentType":5123,"count":1266,"type":"SCALAR","byteOffset":105252},{"bufferView":0,"componentType":5123,"count":432,"type":"SCALAR","byteOffset":107784}],"images":[{"name":"T_PROP_orevein_dungeon_N.png","uri":"T_PROP_orevein_dungeon_N.png","mimeType":"image/png"},{"name":"T_PROP_orevein_dungeon_BC.jpg","uri":"T_PROP_orevein_dungeon_BC.jpg","mimeType":"image/jpeg"},{"name":"T_PROP_orevein_dungeon_MTSM.jpg","uri":"T_PROP_orevein_dungeon_MTSM.jpg","mimeType":"image/jpeg"},{"name":"T_ENV_MOD_Interior_PlanksShort_02_N.png","uri":"T_ENV_MOD_Interior_PlanksShort_02_N.png","mimeType":"image/png"},{"name":"T_ENV_MOD_Interior_PlanksShort_02_v2_BC.jpg","uri":"T_ENV_MOD_Interior_PlanksShort_02_v2_BC.jpg","mimeType":"image/jpeg"},{"name":"T_ENV_MOD_Interior_PlanksShort_02_v1_MTSM.jpg","uri":"T_ENV_MOD_Interior_PlanksShort_02_v1_MTSM.jpg","mimeType":"image/jpeg"},{"name":"T_ENV_MOD_Wall_01_v1_N.png","uri":"T_ENV_MOD_Wall_01_v1_N.png","mimeType":"image/png"},{"name":"T_ENV_MOD_Wall_01_v1_BC.jpg","uri":"T_ENV_MOD_Wall_01_v1_BC.jpg","mimeType":"image/jpeg"},{"name":"T_ENV_MOD_Wall_01_v1_MTSM.jpg","uri":"T_ENV_MOD_Wall_01_v1_MTSM.jpg","mimeType":"image/jpeg"},{"name":"T_ENV_MOD_StoneStack_01_v3_N.png","uri":"T_ENV_MOD_StoneStack_01_v3_N.png","mimeType":"image/png"},{"name":"T_ENV_MOD_StoneStack_01_v3_BC.jpg","uri":"T_ENV_MOD_StoneStack_01_v3_BC.jpg","mimeType":"image/jpeg"},{"name":"T_ENV_MOD_StoneStack_01_v3_MTSM.jpg","uri":"T_ENV_MOD_StoneStack_01_v3_MTSM.jpg","mimeType":"image/jpeg"},{"name":"T_wood_planks_dungeon_03_N.png","uri":"T_wood_planks_dungeon_03_N.png","mimeType":"image/png"},{"name":"T_wood_planks_dungeon_03_BC.jpg","uri":"T_wood_planks_dungeon_03_BC.jpg","mimeType":"image/jpeg"},{"name":"T_wood_planks_dungeon_03_MTSM_nometal.jpg","uri":"T_wood_planks_dungeon_03_MTSM_nometal.jpg","mimeType":"image/jpeg"},{"name":"T_PROP_bed_interior_BC.jpg","uri":"T_PROP_bed_interior_BC.jpg","mimeType":"image/jpeg"},{"name":"T_PROP_wood_planks_interior_01_BC.jpg","uri":"T_PROP_wood_planks_interior_01_BC.jpg","mimeType":"image/jpeg"},{"name":"T_PROP_frames_interior_BC.jpg","uri":"T_PROP_frames_interior_BC.jpg","mimeType":"image/jpeg"},{"name":"T_PROP_fabrics_interior_BC.jpg","uri":"T_PROP_fabrics_interior_BC.jpg","mimeType":"image/jpeg"},{"name":"T_PROP_metal_interior_E.jpg","uri":"T_PROP_metal_interior_E.jpg","mimeType":"image/jpeg"},{"name":"T_PROP_metal_interior_BC.jpg","uri":"T_PROP_metal_interior_BC.jpg","mimeType":"image/jpeg"},{"name":"T_PROP_plant_interior_BC.jpg","uri":"T_PROP_plant_interior_BC.jpg","mimeType":"image/jpeg"},{"name":"T_PROP_items_interior_02_BC.jpg","uri":"T_PROP_items_interior_02_BC.jpg","mimeType":"image/jpeg"},{"name":"T_PROP_fireplaces_interior_BC.jpg","uri":"T_PROP_fireplaces_interior_BC.jpg","mimeType":"image/jpeg"},{"name":"T_PROP_items_interior_03_BC.jpg","uri":"T_PROP_items_interior_03_BC.jpg","mimeType":"image/jpeg"},{"name":"T_ENV_MOD_Interior_gateway_E.jpg","uri":"T_ENV_MOD_Interior_gateway_E.jpg","mimeType":"image/jpeg"},{"name":"T_ENV_MOD_Interior_gateway_BC.jpg","uri":"T_ENV_MOD_Interior_gateway_BC.jpg","mimeType":"image/jpeg"},{"name":"T_PROP_items_interior_01_BC.jpg","uri":"T_PROP_items_interior_01_BC.jpg","mimeType":"image/jpeg"},{"name":"T_PROP_candle _dungeon_BC.jpg","uri":"T_PROP_candle _dungeon_BC.jpg","mimeType":"image/jpeg"},{"name":"T_PROP_books_dungeon_BC.jpg","uri":"T_PROP_books_dungeon_BC.jpg","mimeType":"image/jpeg"}],"materials":[{"name":"M_PROP_orevein_dungeon","pbrMetallicRoughness":{"roughnessFactor":0,"baseColorTexture":{"index":1},"metallicRoughnessTexture":{"index":2}},"normalTexture":{"index":0}},{"name":"M_ENV_MOD_Interior_PlanksShort_02_v2","pbrMetallicRoughness":{"baseColorTexture":{"index":4},"metallicRoughnessTexture":{"index":5}},"normalTexture":{"index":3}},{"name":"M_MOD_Wall_01_v1","pbrMetallicRoughness":{"roughnessFactor":0,"baseColorTexture":{"index":7},"metallicRoughnessTexture":{"index":8}},"normalTexture":{"index":6,"scale":1.82}},{"name":"M_MOD_Trim_Stone_01_v3","pbrMetallicRoughness":{"roughnessFactor":0,"baseColorTexture":{"index":10},"metallicRoughnessTexture":{"index":11}},"normalTexture":{"index":9}},{"name":"M_wood_planks_dungeon_03","pbrMetallicRoughness":{"roughnessFactor":0,"baseColorTexture":{"index":13},"metallicRoughnessTexture":{"index":14}},"normalTexture":{"index":12}},{"name":"M_PROP_bed_interior","pbrMetallicRoughness":{"metallicFactor":0,"baseColorTexture":{"index":15}}},{"name":"M_PROP_wood_planks_interior_01","pbrMetallicRoughness":{"metallicFactor":0,"baseColorTexture":{"index":16}}},{"name":"M_PROP_frames_interior","pbrMetallicRoughness":{"metallicFactor":0,"baseColorTexture":{"index":17}}},{"name":"M_PROP_fabrics_interior","pbrMetallicRoughness":{"metallicFactor":0,"baseColorTexture":{"index":18}},"doubleSided":true},{"name":"M_PROP_metal_interior","pbrMetallicRoughness":{"metallicFactor":0,"baseColorTexture":{"index":20}},"emissiveTexture":{"index":19},"emissiveFactor":[1,0.447957,0.07655142]},{"name":"M_PROP_plant_interior","pbrMetallicRoughness":{"metallicFactor":0,"baseColorTexture":{"index":21}}},{"name":"M_PROP_items_interior_02","pbrMetallicRoughness":{"metallicFactor":0,"baseColorTexture":{"index":22}}},{"name":"M_PROP_fireplaces_interior","pbrMetallicRoughness":{"metallicFactor":0,"baseColorTexture":{"index":23}}},{"name":"M_PROP_items_interior_03","pbrMetallicRoughness":{"metallicFactor":0,"baseColorTexture":{"index":24}}},{"name":"M_ENV_MOD_gateway_interior_01","pbrMetallicRoughness":{"metallicFactor":0,"baseColorTexture":{"index":26}},"emissiveTexture":{"index":25},"emissiveFactor":[1,0.575985134,0.09714398]},{"name":"M_PROP_items_interior_01","pbrMetallicRoughness":{"metallicFactor":0,"baseColorTexture":{"index":27}}},{"name":"M_PROP_candle_dungeon","pbrMetallicRoughness":{"metallicFactor":0,"baseColorTexture":{"index":28}}},{"name":"M_PROP_books_dungeon","pbrMetallicRoughness":{"metallicFactor":0,"baseColorTexture":{"index":29}},"doubleSided":true}],"meshes":[{"name":"pb_Mesh-84732","primitives":[{"attributes":{"POSITION":0,"NORMAL":1,"TANGENT":2,"TEXCOORD_0":3},"indices":4,"material":0},{"attributes":{"POSITION":0,"NORMAL":1,"TANGENT":2,"TEXCOORD_0":3},"indices":5,"material":1},{"attributes":{"POSITION":0,"NORMAL":1,"TANGENT":2,"TEXCOORD_0":3},"indices":6,"material":2},{"attributes":{"POSITION":0,"NORMAL":1,"TANGENT":2,"TEXCOORD_0":3},"indices":7,"material":3},{"attributes":{"POSITION":0,"NORMAL":1,"TANGENT":2,"TEXCOORD_0":3},"indices":8,"material":4},{"attributes":{"POSITION":0,"NORMAL":1,"TANGENT":2,"TEXCOORD_0":3},"indices":9,"material":5},{"attributes":{"POSITION":0,"NORMAL":1,"TANGENT":2,"TEXCOORD_0":3},"indices":10,"material":6},{"attributes":{"POSITION":0,"NORMAL":1,"TANGENT":2,"TEXCOORD_0":3},"indices":11,"material":7},{"attributes":{"POSITION":0,"NORMAL":1,"TANGENT":2,"TEXCOORD_0":3},"indices":12,"material":8},{"attributes":{"POSITION":0,"NORMAL":1,"TANGENT":2,"TEXCOORD_0":3},"indices":13,"material":9},{"attributes":{"POSITION":0,"NORMAL":1,"TANGENT":2,"TEXCOORD_0":3},"indices":14,"material":10},{"attributes":{"POSITION":0,"NORMAL":1,"TANGENT":2,"TEXCOORD_0":3},"indices":15,"material":11},{"attributes":{"POSITION":0,"NORMAL":1,"TANGENT":2,"TEXCOORD_0":3},"indices":16,"material":12},{"attributes":{"POSITION":0,"NORMAL":1,"TANGENT":2,"TEXCOORD_0":3},"indices":17,"material":13},{"attributes":{"POSITION":0,"NORMAL":1,"TANGENT":2,"TEXCOORD_0":3},"indices":18,"material":14},{"attributes":{"POSITION":0,"NORMAL":1,"TANGENT":2,"TEXCOORD_0":3},"indices":19,"material":15},{"attributes":{"POSITION":0,"NORMAL":1,"TANGENT":2,"TEXCOORD_0":3},"indices":20,"material":16},{"attributes":{"POSITION":0,"NORMAL":1,"TANGENT":2,"TEXCOORD_0":3},"indices":21,"material":17}]}],"scene":0,"scenes":[{"name":"LyrielRoom","nodes":[0]}],"textures":[{"source":0},{"source":1},{"source":2},{"source":3},{"source":4},{"source":5},{"source":6},{"source":7},{"source":8},{"source":9},{"source":10},{"source":11},{"source":12},{"source":13},{"source":14},{"source":15},{"source":16},{"source":17},{"source":18},{"source":19},{"source":20},{"source":21},{"source":22},{"source":23},{"source":24},{"source":25},{"source":26},{"source":27},{"source":28},{"source":29}]}