{"asset":{"version":"2.0","generator":"Unity 6000.2.9f1 glTFast 6.15.1"},"nodes":[{"name":"P_PROP_trap_floor_dungeon_01","mesh":0}],"buffers":[{"uri":"trap.bin","byteLength":22272}],"bufferViews":[{"buffer":0,"byteLength":936,"target":34963},{"buffer":0,"byteLength":21336,"byteOffset":936,"byteStride":56,"target":34962}],"accessors":[{"bufferView":1,"componentType":5126,"count":381,"type":"VEC3","max":[1.00101852,0.689886749,1.00473642],"min":[-1.0026834,-0.006744981,-1.00262642]},{"bufferView":1,"componentType":5126,"count":381,"type":"VEC3","byteOffset":12},{"bufferView":1,"componentType":5126,"count":381,"type":"VEC4","byteOffset":24},{"bufferView":1,"componentType":5126,"count":381,"type":"VEC2","byteOffset":40},{"bufferView":1,"componentType":5126,"count":381,"type":"VEC2","byteOffset":48},{"bufferView":0,"componentType":5123,"count":468,"type":"SCALAR"}],"images":[{"name":"T_metal_dungeon_N.png","uri":"T_metal_dungeon_N.png","mimeType":"image/png"},{"name":"T_metal_dungeon_01_BC.jpg","uri":"T_metal_dungeon_01_BC.jpg","mimeType":"image/jpeg"},{"name":"T_metal_dungeon_MTSM_nometal.jpg","uri":"T_metal_dungeon_MTSM_nometal.jpg","mimeType":"image/jpeg"}],"materials":[{"name":"M_metal_dungeon_01","pbrMetallicRoughness":{"roughnessFactor":0,"baseColorTexture":{"index":1},"metallicRoughnessTexture":{"index":2}},"normalTexture":{"index":0}}],"meshes":[{"name":"SM_PROP_trap_floor_dungeon_01","primitives":[{"attributes":{"POSITION":0,"NORMAL":1,"TANGENT":2,"TEXCOORD_0":3,"TEXCOORD_1":4},"indices":5,"material":0}]}],"scene":0,"scenes":[{"name":"P_PROP_trap_floor_dungeon_01","nodes":[0]}],"textures":[{"source":0},{"source":1},{"source":2}]}