{"asset":{"version":"2.0","generator":"Unity 6000.2.9f1 glTFast 6.15.1"},"nodes":[{"name":"P_MOD_Railing_01_column (10)","mesh":0,"translation":[-80.45,-23.89,-7.09999847],"rotation":[0,-1,0,2.83122063E-06]}],"buffers":[{"uri":"Stairs.bin","byteLength":1243536}],"bufferViews":[{"buffer":0,"byteLength":64008,"target":34963},{"buffer":0,"byteLength":1179528,"byteOffset":64008,"byteStride":56,"target":34962}],"accessors":[{"bufferView":1,"componentType":5126,"count":21063,"type":"VEC3","max":[4.572342,25.0999985,12.6978149],"min":[-8.697807,-2.02000046,-0.572349548]},{"bufferView":1,"componentType":5126,"count":21063,"type":"VEC3","byteOffset":12},{"bufferView":1,"componentType":5126,"count":21063,"type":"VEC4","byteOffset":24},{"bufferView":1,"componentType":5126,"count":21063,"type":"VEC2","byteOffset":40},{"bufferView":1,"componentType":5126,"count":21063,"type":"VEC2","byteOffset":48},{"bufferView":0,"componentType":5123,"count":31884,"type":"SCALAR"},{"bufferView":0,"componentType":5123,"count":120,"type":"SCALAR","byteOffset":63768}],"images":[{"name":"T_ENV_MOD_StoneStack_01_v3_N.png","uri":"T_ENV_MOD_StoneStack_01_v3_N.png","mimeType":"image/png"},{"name":"T_ENV_MOD_StoneStack_01_v3_BC.jpg","uri":"T_ENV_MOD_StoneStack_01_v3_BC.jpg","mimeType":"image/jpeg"},{"name":"T_ENV_MOD_StoneStack_01_v3_MTSM.jpg","uri":"T_ENV_MOD_StoneStack_01_v3_MTSM.jpg","mimeType":"image/jpeg"},{"name":"T_ENV_MOD_Floor_01_v3_N.png","uri":"T_ENV_MOD_Floor_01_v3_N.png","mimeType":"image/png"},{"name":"T_ENV_MOD_Floor_01_v3_BC.jpg","uri":"T_ENV_MOD_Floor_01_v3_BC.jpg","mimeType":"image/jpeg"},{"name":"T_ENV_MOD_Floor_01_v3_MTSM.jpg","uri":"T_ENV_MOD_Floor_01_v3_MTSM.jpg","mimeType":"image/jpeg"}],"materials":[{"name":"M_MOD_Trim_Stone_01_v3","pbrMetallicRoughness":{"roughnessFactor":0,"baseColorTexture":{"index":1},"metallicRoughnessTexture":{"index":2}},"normalTexture":{"index":0}},{"name":"M_MOD_Floor_01_v3","pbrMetallicRoughness":{"roughnessFactor":0,"baseColorTexture":{"index":4},"metallicRoughnessTexture":{"index":5}},"normalTexture":{"index":3}}],"meshes":[{"name":"pb_Mesh-126038","primitives":[{"attributes":{"POSITION":0,"NORMAL":1,"TANGENT":2,"TEXCOORD_0":3,"TEXCOORD_1":4},"indices":5,"material":0},{"attributes":{"POSITION":0,"NORMAL":1,"TANGENT":2,"TEXCOORD_0":3,"TEXCOORD_1":4},"indices":6,"material":1}]}],"scene":0,"scenes":[{"name":"P_MOD_Railing_01_column (10)","nodes":[0]}],"textures":[{"source":0},{"source":1},{"source":2},{"source":3},{"source":4},{"source":5}]}