{"asset":{"version":"2.0","generator":"Unity 6000.2.9f1 glTFast 6.15.1"},"nodes":[{"name":"BanquetRoom2","mesh":0}],"buffers":[{"uri":"BanquetRoom2.bin","byteLength":6042324}],"bufferViews":[{"buffer":0,"byteLength":667812,"target":34963},{"buffer":0,"byteLength":5374512,"byteOffset":667812,"byteStride":48,"target":34962}],"accessors":[{"bufferView":1,"componentType":5126,"count":111969,"type":"VEC3","max":[23.9610062,5.48432255,33.46485],"min":[-2.97740936,-5.885,-12.48]},{"bufferView":1,"componentType":5126,"count":111969,"type":"VEC3","byteOffset":12},{"bufferView":1,"componentType":5126,"count":111969,"type":"VEC4","byteOffset":24},{"bufferView":1,"componentType":5126,"count":111969,"type":"VEC2","byteOffset":40},{"bufferView":0,"componentType":5125,"count":43056,"type":"SCALAR"},{"bufferView":0,"componentType":5125,"count":46302,"type":"SCALAR","byteOffset":172224},{"bufferView":0,"componentType":5125,"count":24192,"type":"SCALAR","byteOffset":357432},{"bufferView":0,"componentType":5125,"count":14196,"type":"SCALAR","byteOffset":454200},{"bufferView":0,"componentType":5125,"count":4812,"type":"SCALAR","byteOffset":510984},{"bufferView":0,"componentType":5125,"count":393,"type":"SCALAR","byteOffset":530232},{"bufferView":0,"componentType":5125,"count":702,"type":"SCALAR","byteOffset":531804},{"bufferView":0,"componentType":5125,"count":624,"type":"SCALAR","byteOffset":534612},{"bufferView":0,"componentType":5125,"count":7680,"type":"SCALAR","byteOffset":537108},{"bufferView":0,"componentType":5125,"count":9810,"type":"SCALAR","byteOffset":567828},{"bufferView":0,"componentType":5125,"count":108,"type":"SCALAR","byteOffset":607068},{"bufferView":0,"componentType":5125,"count":6816,"type":"SCALAR","byteOffset":607500},{"bufferView":0,"componentType":5125,"count":96,"type":"SCALAR","byteOffset":634764},{"bufferView":0,"componentType":5125,"count":1878,"type":"SCALAR","byteOffset":635148},{"bufferView":0,"componentType":5125,"count":2604,"type":"SCALAR","byteOffset":642660},{"bufferView":0,"componentType":5125,"count":570,"type":"SCALAR","byteOffset":653076},{"bufferView":0,"componentType":5125,"count":2700,"type":"SCALAR","byteOffset":655356},{"bufferView":0,"componentType":5125,"count":414,"type":"SCALAR","byteOffset":666156}],"images":[{"name":"T_PROP_metal_interior_E.jpg","uri":"T_PROP_metal_interior_E.jpg","mimeType":"image/jpeg"},{"name":"T_PROP_metal_interior_BC.jpg","uri":"T_PROP_metal_interior_BC.jpg","mimeType":"image/jpeg"},{"name":"T_PROP_items_interior_01_BC.jpg","uri":"T_PROP_items_interior_01_BC.jpg","mimeType":"image/jpeg"},{"name":"T_PROP_wood_planks_interior_01_BC.jpg","uri":"T_PROP_wood_planks_interior_01_BC.jpg","mimeType":"image/jpeg"},{"name":"T_PROP_fabrics_interior_BC.jpg","uri":"T_PROP_fabrics_interior_BC.jpg","mimeType":"image/jpeg"},{"name":"T_wood_planks_dungeon_03_N.png","uri":"T_wood_planks_dungeon_03_N.png","mimeType":"image/png"},{"name":"T_wood_planks_dungeon_03_BC.jpg","uri":"T_wood_planks_dungeon_03_BC.jpg","mimeType":"image/jpeg"},{"name":"T_wood_planks_dungeon_03_MTSM_nometal.jpg","uri":"T_wood_planks_dungeon_03_MTSM_nometal.jpg","mimeType":"image/jpeg"},{"name":"T_PROP_fabric_dungeon_BC.jpg","uri":"T_PROP_fabric_dungeon_BC.jpg","mimeType":"image/jpeg"},{"name":"T_PROP_stone_deco_dungeon_N.png","uri":"T_PROP_stone_deco_dungeon_N.png","mimeType":"image/png"},{"name":"T_PROP_stone_deco_dungeon_BC.jpg","uri":"T_PROP_stone_deco_dungeon_BC.jpg","mimeType":"image/jpeg"},{"name":"T_PROP_stone_deco_dungeon_MTSM.jpg","uri":"T_PROP_stone_deco_dungeon_MTSM.jpg","mimeType":"image/jpeg"},{"name":"T_PROP_sofa_interior_BC.jpg","uri":"T_PROP_sofa_interior_BC.jpg","mimeType":"image/jpeg"},{"name":"T_PROP_wood_planks_interior_02_BC.jpg","uri":"T_PROP_wood_planks_interior_02_BC.jpg","mimeType":"image/jpeg"},{"name":"T_PROP_items_interior_02_BC.jpg","uri":"T_PROP_items_interior_02_BC.jpg","mimeType":"image/jpeg"},{"name":"T_PROP_flags_dungeon_BC.jpg","uri":"T_PROP_flags_dungeon_BC.jpg","mimeType":"image/jpeg"},{"name":"T_PROP_candle _dungeon_BC.jpg","uri":"T_PROP_candle _dungeon_BC.jpg","mimeType":"image/jpeg"},{"name":"T_PROP_chains_dungeon_BC.png","uri":"T_PROP_chains_dungeon_BC.png","mimeType":"image/png"},{"name":"T_PROP_fireplaces_interior_BC.jpg","uri":"T_PROP_fireplaces_interior_BC.jpg","mimeType":"image/jpeg"},{"name":"T_ENV_MOD_Interior_gateway_E.jpg","uri":"T_ENV_MOD_Interior_gateway_E.jpg","mimeType":"image/jpeg"},{"name":"T_ENV_MOD_Interior_gateway_BC.jpg","uri":"T_ENV_MOD_Interior_gateway_BC.jpg","mimeType":"image/jpeg"},{"name":"T_ENV_MOD_Floor_01_v3_N.png","uri":"T_ENV_MOD_Floor_01_v3_N.png","mimeType":"image/png"},{"name":"T_ENV_MOD_Floor_01_v1_BC.jpg","uri":"T_ENV_MOD_Floor_01_v1_BC.jpg","mimeType":"image/jpeg"},{"name":"T_ENV_MOD_Floor_01_v3_MTSM.jpg","uri":"T_ENV_MOD_Floor_01_v3_MTSM.jpg","mimeType":"image/jpeg"},{"name":"T_ENV_MOD_StoneStack_01_v3_N.png","uri":"T_ENV_MOD_StoneStack_01_v3_N.png","mimeType":"image/png"},{"name":"T_ENV_MOD_StoneStack_01_v1_BC.jpg","uri":"T_ENV_MOD_StoneStack_01_v1_BC.jpg","mimeType":"image/jpeg"},{"name":"T_ENV_MOD_StoneStack_01_v3_MTSM.jpg","uri":"T_ENV_MOD_StoneStack_01_v3_MTSM.jpg","mimeType":"image/jpeg"},{"name":"T_ENV_MOD_Wall_01_v1_N.png","uri":"T_ENV_MOD_Wall_01_v1_N.png","mimeType":"image/png"},{"name":"T_ENV_MOD_Wall_01_v1_BC.jpg","uri":"T_ENV_MOD_Wall_01_v1_BC.jpg","mimeType":"image/jpeg"},{"name":"T_ENV_MOD_Wall_01_v1_MTSM.jpg","uri":"T_ENV_MOD_Wall_01_v1_MTSM.jpg","mimeType":"image/jpeg"}],"materials":[{"name":"M_PROP_metal_interior","pbrMetallicRoughness":{"metallicFactor":0,"baseColorTexture":{"index":1}},"emissiveTexture":{"index":0},"emissiveFactor":[1,0.447957,0.07655142]},{"name":"M_PROP_items_interior_01","pbrMetallicRoughness":{"metallicFactor":0,"baseColorTexture":{"index":2}}},{"name":"M_PROP_wood_planks_interior_01","pbrMetallicRoughness":{"metallicFactor":0,"baseColorTexture":{"index":3}}},{"name":"M_PROP_fabrics_interior","pbrMetallicRoughness":{"metallicFactor":0,"baseColorTexture":{"index":4}},"doubleSided":true},{"name":"M_wood_planks_dungeon_03","pbrMetallicRoughness":{"roughnessFactor":0,"baseColorTexture":{"index":6},"metallicRoughnessTexture":{"index":7}},"normalTexture":{"index":5}},{"name":"M_PROP_fabric_dungeon","pbrMetallicRoughness":{"metallicFactor":0,"baseColorTexture":{"index":8}},"doubleSided":true},{"name":"M_PROP_stone_deco_dungeon","pbrMetallicRoughness":{"roughnessFactor":0,"baseColorTexture":{"index":10},"metallicRoughnessTexture":{"index":11}},"normalTexture":{"index":9}},{"name":"M_PROP_sofa_interior","pbrMetallicRoughness":{"metallicFactor":0,"baseColorTexture":{"index":12}}},{"name":"M_PROP_wood_planks_interior_02","pbrMetallicRoughness":{"metallicFactor":0,"baseColorTexture":{"index":13}}},{"name":"M_PROP_items_interior_02","pbrMetallicRoughness":{"metallicFactor":0,"baseColorTexture":{"index":14}}},{"name":"M_PROP_flags_dungeon","pbrMetallicRoughness":{"metallicFactor":0,"baseColorTexture":{"index":15}},"doubleSided":true},{"name":"M_PROP_candle_dungeon","pbrMetallicRoughness":{"metallicFactor":0,"baseColorTexture":{"index":16}}},{"name":"M_PROP_chains_dungeon","pbrMetallicRoughness":{"metallicFactor":0,"roughnessFactor":0.695,"baseColorTexture":{"index":17}},"alphaMode":"MASK","alphaCutoff":0.506,"doubleSided":true},{"name":"M_PROP_fireplaces_interior","pbrMetallicRoughness":{"metallicFactor":0,"baseColorTexture":{"index":18}}},{"name":"M_ENV_MOD_gateway_interior_01","pbrMetallicRoughness":{"metallicFactor":0,"baseColorTexture":{"index":20}},"emissiveTexture":{"index":19},"emissiveFactor":[1,0.575985134,0.09714398]},{"name":"M_MOD_Floor_01_v3_clean","pbrMetallicRoughness":{"roughnessFactor":0,"baseColorTexture":{"index":22},"metallicRoughnessTexture":{"index":23}},"normalTexture":{"index":21}},{"name":"M_MOD_Trim_Stone_01_v3_clean","pbrMetallicRoughness":{"roughnessFactor":0,"baseColorTexture":{"index":25},"metallicRoughnessTexture":{"index":26}},"normalTexture":{"index":24}},{"name":"M_MOD_Wall_01_v1","pbrMetallicRoughness":{"roughnessFactor":0,"baseColorTexture":{"index":28},"metallicRoughnessTexture":{"index":29}},"normalTexture":{"index":27,"scale":1.82}}],"meshes":[{"name":"pb_Mesh-580958","primitives":[{"attributes":{"POSITION":0,"NORMAL":1,"TANGENT":2,"TEXCOORD_0":3},"indices":4,"material":0},{"attributes":{"POSITION":0,"NORMAL":1,"TANGENT":2,"TEXCOORD_0":3},"indices":5,"material":1},{"attributes":{"POSITION":0,"NORMAL":1,"TANGENT":2,"TEXCOORD_0":3},"indices":6,"material":2},{"attributes":{"POSITION":0,"NORMAL":1,"TANGENT":2,"TEXCOORD_0":3},"indices":7,"material":3},{"attributes":{"POSITION":0,"NORMAL":1,"TANGENT":2,"TEXCOORD_0":3},"indices":8,"material":4},{"attributes":{"POSITION":0,"NORMAL":1,"TANGENT":2,"TEXCOORD_0":3},"indices":9,"material":5},{"attributes":{"POSITION":0,"NORMAL":1,"TANGENT":2,"TEXCOORD_0":3},"indices":10,"material":6},{"attributes":{"POSITION":0,"NORMAL":1,"TANGENT":2,"TEXCOORD_0":3},"indices":11,"material":7},{"attributes":{"POSITION":0,"NORMAL":1,"TANGENT":2,"TEXCOORD_0":3},"indices":12,"material":8},{"attributes":{"POSITION":0,"NORMAL":1,"TANGENT":2,"TEXCOORD_0":3},"indices":13,"material":9},{"attributes":{"POSITION":0,"NORMAL":1,"TANGENT":2,"TEXCOORD_0":3},"indices":14,"material":10},{"attributes":{"POSITION":0,"NORMAL":1,"TANGENT":2,"TEXCOORD_0":3},"indices":15,"material":11},{"attributes":{"POSITION":0,"NORMAL":1,"TANGENT":2,"TEXCOORD_0":3},"indices":16,"material":12},{"attributes":{"POSITION":0,"NORMAL":1,"TANGENT":2,"TEXCOORD_0":3},"indices":17,"material":13},{"attributes":{"POSITION":0,"NORMAL":1,"TANGENT":2,"TEXCOORD_0":3},"indices":18,"material":14},{"attributes":{"POSITION":0,"NORMAL":1,"TANGENT":2,"TEXCOORD_0":3},"indices":19,"material":15},{"attributes":{"POSITION":0,"NORMAL":1,"TANGENT":2,"TEXCOORD_0":3},"indices":20,"material":16},{"attributes":{"POSITION":0,"NORMAL":1,"TANGENT":2,"TEXCOORD_0":3},"indices":21,"material":17}]}],"scene":0,"scenes":[{"name":"BanquetRoom2","nodes":[0]}],"textures":[{"source":0},{"source":1},{"source":2},{"source":3},{"source":4},{"source":5},{"source":6},{"source":7},{"source":8},{"source":9},{"source":10},{"source":11},{"source":12},{"source":13},{"source":14},{"source":15},{"source":16},{"source":17},{"source":18},{"source":19},{"source":20},{"source":21},{"source":22},{"source":23},{"source":24},{"source":25},{"source":26},{"source":27},{"source":28},{"source":29}]}