{"asset":{"version":"2.0","generator":"Unity 6000.2.9f1 glTFast 6.15.1"},"nodes":[{"name":"BanquetRoom1","mesh":0,"translation":[-92.96959,7.66,-36.87485],"rotation":[0,-0.707106769,0,-0.7071067],"scale":[1.00000012,1,1.00000012]}],"buffers":[{"uri":"BanquetRoom1.bin","byteLength":3796820}],"bufferViews":[{"buffer":0,"byteLength":189132,"target":34963},{"buffer":0,"byteLength":3607688,"byteOffset":189132,"byteStride":56,"target":34962}],"accessors":[{"bufferView":1,"componentType":5126,"count":64423,"type":"VEC3","max":[17.1078,3.7300005,26.8095932],"min":[-30.5660057,-8.6,-0.6539612]},{"bufferView":1,"componentType":5126,"count":64423,"type":"VEC3","byteOffset":12},{"bufferView":1,"componentType":5126,"count":64423,"type":"VEC4","byteOffset":24},{"bufferView":1,"componentType":5126,"count":64423,"type":"VEC2","byteOffset":40},{"bufferView":1,"componentType":5126,"count":64423,"type":"VEC2","byteOffset":48},{"bufferView":0,"componentType":5123,"count":372,"type":"SCALAR"},{"bufferView":0,"componentType":5123,"count":12948,"type":"SCALAR","byteOffset":744},{"bufferView":0,"componentType":5123,"count":5244,"type":"SCALAR","byteOffset":26640},{"bufferView":0,"componentType":5123,"count":1854,"type":"SCALAR","byteOffset":37128},{"bufferView":0,"componentType":5123,"count":1338,"type":"SCALAR","byteOffset":40836},{"bufferView":0,"componentType":5123,"count":1146,"type":"SCALAR","byteOffset":43512},{"bufferView":0,"componentType":5123,"count":3480,"type":"SCALAR","byteOffset":45804},{"bufferView":0,"componentType":5123,"count":29160,"type":"SCALAR","byteOffset":52764},{"bufferView":0,"componentType":5123,"count":38520,"type":"SCALAR","byteOffset":111084},{"bufferView":0,"componentType":5123,"count":504,"type":"SCALAR","byteOffset":188124}],"images":[{"name":"T_ENV_MOD_Interior_gateway_E.jpg","uri":"T_ENV_MOD_Interior_gateway_E.jpg","mimeType":"image/jpeg"},{"name":"T_ENV_MOD_Interior_gateway_BC.jpg","uri":"T_ENV_MOD_Interior_gateway_BC.jpg","mimeType":"image/jpeg"},{"name":"T_ENV_MOD_Floor_01_v3_N.png","uri":"T_ENV_MOD_Floor_01_v3_N.png","mimeType":"image/png"},{"name":"T_ENV_MOD_Floor_01_v1_BC.jpg","uri":"T_ENV_MOD_Floor_01_v1_BC.jpg","mimeType":"image/jpeg"},{"name":"T_ENV_MOD_Floor_01_v3_MTSM.jpg","uri":"T_ENV_MOD_Floor_01_v3_MTSM.jpg","mimeType":"image/jpeg"},{"name":"T_ENV_MOD_StoneStack_01_v3_N.png","uri":"T_ENV_MOD_StoneStack_01_v3_N.png","mimeType":"image/png"},{"name":"T_ENV_MOD_StoneStack_01_v1_BC.jpg","uri":"T_ENV_MOD_StoneStack_01_v1_BC.jpg","mimeType":"image/jpeg"},{"name":"T_ENV_MOD_StoneStack_01_v3_MTSM.jpg","uri":"T_ENV_MOD_StoneStack_01_v3_MTSM.jpg","mimeType":"image/jpeg"},{"name":"T_ENV_MOD_Wall_01_v1_N.png","uri":"T_ENV_MOD_Wall_01_v1_N.png","mimeType":"image/png"},{"name":"T_ENV_MOD_Wall_01_v1_BC.jpg","uri":"T_ENV_MOD_Wall_01_v1_BC.jpg","mimeType":"image/jpeg"},{"name":"T_ENV_MOD_Wall_01_v1_MTSM.jpg","uri":"T_ENV_MOD_Wall_01_v1_MTSM.jpg","mimeType":"image/jpeg"},{"name":"T_ENV_MOD_StoneStack_01_v3_BC.jpg","uri":"T_ENV_MOD_StoneStack_01_v3_BC.jpg","mimeType":"image/jpeg"},{"name":"T_wood_planks_dungeon_03_N.png","uri":"T_wood_planks_dungeon_03_N.png","mimeType":"image/png"},{"name":"T_wood_planks_dungeon_03_BC.jpg","uri":"T_wood_planks_dungeon_03_BC.jpg","mimeType":"image/jpeg"},{"name":"T_wood_planks_dungeon_03_MTSM_nometal.jpg","uri":"T_wood_planks_dungeon_03_MTSM_nometal.jpg","mimeType":"image/jpeg"},{"name":"T_PROP_wood_planks_interior_01_BC.jpg","uri":"T_PROP_wood_planks_interior_01_BC.jpg","mimeType":"image/jpeg"},{"name":"T_PROP_metal_interior_E.jpg","uri":"T_PROP_metal_interior_E.jpg","mimeType":"image/jpeg"},{"name":"T_PROP_metal_interior_BC.jpg","uri":"T_PROP_metal_interior_BC.jpg","mimeType":"image/jpeg"},{"name":"T_PROP_items_interior_01_BC.jpg","uri":"T_PROP_items_interior_01_BC.jpg","mimeType":"image/jpeg"},{"name":"T_PROP_fabrics_interior_BC.jpg","uri":"T_PROP_fabrics_interior_BC.jpg","mimeType":"image/jpeg"}],"materials":[{"name":"M_ENV_MOD_gateway_interior_01","pbrMetallicRoughness":{"metallicFactor":0,"baseColorTexture":{"index":1}},"emissiveTexture":{"index":0},"emissiveFactor":[1,0.575985134,0.09714398]},{"name":"M_MOD_Floor_01_v3_clean","pbrMetallicRoughness":{"roughnessFactor":0,"baseColorTexture":{"index":3},"metallicRoughnessTexture":{"index":4}},"normalTexture":{"index":2}},{"name":"M_MOD_Trim_Stone_01_v3_clean","pbrMetallicRoughness":{"roughnessFactor":0,"baseColorTexture":{"index":6},"metallicRoughnessTexture":{"index":7}},"normalTexture":{"index":5}},{"name":"M_MOD_Wall_01_v1","pbrMetallicRoughness":{"roughnessFactor":0,"baseColorTexture":{"index":9},"metallicRoughnessTexture":{"index":10}},"normalTexture":{"index":8,"scale":1.82}},{"name":"M_MOD_Trim_Stone_01_v3","pbrMetallicRoughness":{"roughnessFactor":0,"baseColorTexture":{"index":11},"metallicRoughnessTexture":{"index":7}},"normalTexture":{"index":5}},{"name":"M_wood_planks_dungeon_03","pbrMetallicRoughness":{"roughnessFactor":0,"baseColorTexture":{"index":13},"metallicRoughnessTexture":{"index":14}},"normalTexture":{"index":12}},{"name":"M_PROP_wood_planks_interior_01","pbrMetallicRoughness":{"metallicFactor":0,"baseColorTexture":{"index":15}}},{"name":"M_PROP_metal_interior","pbrMetallicRoughness":{"metallicFactor":0,"baseColorTexture":{"index":17}},"emissiveTexture":{"index":16},"emissiveFactor":[1,0.447957,0.07655142]},{"name":"M_PROP_items_interior_01","pbrMetallicRoughness":{"metallicFactor":0,"baseColorTexture":{"index":18}}},{"name":"M_PROP_fabrics_interior","pbrMetallicRoughness":{"metallicFactor":0,"baseColorTexture":{"index":19}},"doubleSided":true}],"meshes":[{"name":"pb_Mesh-176912","primitives":[{"attributes":{"POSITION":0,"NORMAL":1,"TANGENT":2,"TEXCOORD_0":3,"TEXCOORD_1":4},"indices":5,"material":0},{"attributes":{"POSITION":0,"NORMAL":1,"TANGENT":2,"TEXCOORD_0":3,"TEXCOORD_1":4},"indices":6,"material":1},{"attributes":{"POSITION":0,"NORMAL":1,"TANGENT":2,"TEXCOORD_0":3,"TEXCOORD_1":4},"indices":7,"material":2},{"attributes":{"POSITION":0,"NORMAL":1,"TANGENT":2,"TEXCOORD_0":3,"TEXCOORD_1":4},"indices":8,"material":3},{"attributes":{"POSITION":0,"NORMAL":1,"TANGENT":2,"TEXCOORD_0":3,"TEXCOORD_1":4},"indices":9,"material":4},{"attributes":{"POSITION":0,"NORMAL":1,"TANGENT":2,"TEXCOORD_0":3,"TEXCOORD_1":4},"indices":10,"material":5},{"attributes":{"POSITION":0,"NORMAL":1,"TANGENT":2,"TEXCOORD_0":3,"TEXCOORD_1":4},"indices":11,"material":6},{"attributes":{"POSITION":0,"NORMAL":1,"TANGENT":2,"TEXCOORD_0":3,"TEXCOORD_1":4},"indices":12,"material":7},{"attributes":{"POSITION":0,"NORMAL":1,"TANGENT":2,"TEXCOORD_0":3,"TEXCOORD_1":4},"indices":13,"material":8},{"attributes":{"POSITION":0,"NORMAL":1,"TANGENT":2,"TEXCOORD_0":3,"TEXCOORD_1":4},"indices":14,"material":9}]}],"scene":0,"scenes":[{"name":"BanquetRoom1","nodes":[0]}],"textures":[{"source":0},{"source":1},{"source":2},{"source":3},{"source":4},{"source":5},{"source":6},{"source":7},{"source":8},{"source":9},{"source":10},{"source":11},{"source":12},{"source":13},{"source":14},{"source":15},{"source":16},{"source":17},{"source":18},{"source":19}]}