{"asset":{"version":"2.0","generator":"Unity 6000.2.9f1 glTFast 6.15.1"},"nodes":[{"name":"BanquetRoom1","mesh":0,"translation":[-77.89,2.25,-38.63]}],"buffers":[{"uri":"BanquetRoom1.bin","byteLength":3216132}],"bufferViews":[{"buffer":0,"byteLength":189012,"target":34963},{"buffer":0,"byteLength":3027120,"byteOffset":189012,"byteStride":48,"target":34962}],"accessors":[{"bufferView":1,"componentType":5126,"count":63065,"type":"VEC3","max":[12.1915817,8.610001,30.646],"min":[-15.271965,-3.72000027,-17.0277977]},{"bufferView":1,"componentType":5126,"count":63065,"type":"VEC3","byteOffset":12},{"bufferView":1,"componentType":5126,"count":63065,"type":"VEC4","byteOffset":24},{"bufferView":1,"componentType":5126,"count":63065,"type":"VEC2","byteOffset":40},{"bufferView":0,"componentType":5123,"count":12378,"type":"SCALAR"},{"bufferView":0,"componentType":5123,"count":1440,"type":"SCALAR","byteOffset":24756},{"bufferView":0,"componentType":5123,"count":2544,"type":"SCALAR","byteOffset":27636},{"bufferView":0,"componentType":5123,"count":1338,"type":"SCALAR","byteOffset":32724},{"bufferView":0,"componentType":5123,"count":1146,"type":"SCALAR","byteOffset":35400},{"bufferView":0,"componentType":5123,"count":4176,"type":"SCALAR","byteOffset":37692},{"bufferView":0,"componentType":5123,"count":30312,"type":"SCALAR","byteOffset":46044},{"bufferView":0,"componentType":5123,"count":40668,"type":"SCALAR","byteOffset":106668},{"bufferView":0,"componentType":5123,"count":504,"type":"SCALAR","byteOffset":188004}],"images":[{"name":"T_ENV_MOD_Floor_01_v3_N.png","uri":"T_ENV_MOD_Floor_01_v3_N.png","mimeType":"image/png"},{"name":"T_ENV_MOD_Floor_01_v1_BC.jpg","uri":"T_ENV_MOD_Floor_01_v1_BC.jpg","mimeType":"image/jpeg"},{"name":"T_ENV_MOD_Floor_01_v3_MTSM.jpg","uri":"T_ENV_MOD_Floor_01_v3_MTSM.jpg","mimeType":"image/jpeg"},{"name":"T_ENV_MOD_Wall_01_v1_N.png","uri":"T_ENV_MOD_Wall_01_v1_N.png","mimeType":"image/png"},{"name":"T_ENV_MOD_Wall_01_v1_BC.jpg","uri":"T_ENV_MOD_Wall_01_v1_BC.jpg","mimeType":"image/jpeg"},{"name":"T_ENV_MOD_Wall_01_v1_MTSM.jpg","uri":"T_ENV_MOD_Wall_01_v1_MTSM.jpg","mimeType":"image/jpeg"},{"name":"T_ENV_MOD_StoneStack_01_v3_N.png","uri":"T_ENV_MOD_StoneStack_01_v3_N.png","mimeType":"image/png"},{"name":"T_ENV_MOD_StoneStack_01_v1_BC.jpg","uri":"T_ENV_MOD_StoneStack_01_v1_BC.jpg","mimeType":"image/jpeg"},{"name":"T_ENV_MOD_StoneStack_01_v3_MTSM.jpg","uri":"T_ENV_MOD_StoneStack_01_v3_MTSM.jpg","mimeType":"image/jpeg"},{"name":"T_ENV_MOD_StoneStack_01_v3_BC.jpg","uri":"T_ENV_MOD_StoneStack_01_v3_BC.jpg","mimeType":"image/jpeg"},{"name":"T_wood_planks_dungeon_03_N.png","uri":"T_wood_planks_dungeon_03_N.png","mimeType":"image/png"},{"name":"T_wood_planks_dungeon_03_BC.jpg","uri":"T_wood_planks_dungeon_03_BC.jpg","mimeType":"image/jpeg"},{"name":"T_wood_planks_dungeon_03_MTSM_nometal.jpg","uri":"T_wood_planks_dungeon_03_MTSM_nometal.jpg","mimeType":"image/jpeg"},{"name":"T_PROP_wood_planks_interior_01_BC.jpg","uri":"T_PROP_wood_planks_interior_01_BC.jpg","mimeType":"image/jpeg"},{"name":"T_PROP_metal_interior_E.jpg","uri":"T_PROP_metal_interior_E.jpg","mimeType":"image/jpeg"},{"name":"T_PROP_metal_interior_BC.jpg","uri":"T_PROP_metal_interior_BC.jpg","mimeType":"image/jpeg"},{"name":"T_PROP_items_interior_01_BC.jpg","uri":"T_PROP_items_interior_01_BC.jpg","mimeType":"image/jpeg"},{"name":"T_PROP_fabrics_interior_BC.jpg","uri":"T_PROP_fabrics_interior_BC.jpg","mimeType":"image/jpeg"}],"materials":[{"name":"M_MOD_Floor_01_v3_clean","pbrMetallicRoughness":{"roughnessFactor":0,"baseColorTexture":{"index":1},"metallicRoughnessTexture":{"index":2}},"normalTexture":{"index":0}},{"name":"M_MOD_Wall_01_v1","pbrMetallicRoughness":{"roughnessFactor":0,"baseColorTexture":{"index":4},"metallicRoughnessTexture":{"index":5}},"normalTexture":{"index":3,"scale":1.82}},{"name":"M_MOD_Trim_Stone_01_v3_clean","pbrMetallicRoughness":{"roughnessFactor":0,"baseColorTexture":{"index":7},"metallicRoughnessTexture":{"index":8}},"normalTexture":{"index":6}},{"name":"M_MOD_Trim_Stone_01_v3","pbrMetallicRoughness":{"roughnessFactor":0,"baseColorTexture":{"index":9},"metallicRoughnessTexture":{"index":8}},"normalTexture":{"index":6}},{"name":"M_wood_planks_dungeon_03","pbrMetallicRoughness":{"roughnessFactor":0,"baseColorTexture":{"index":11},"metallicRoughnessTexture":{"index":12}},"normalTexture":{"index":10}},{"name":"M_PROP_wood_planks_interior_01","pbrMetallicRoughness":{"metallicFactor":0,"baseColorTexture":{"index":13}}},{"name":"M_PROP_metal_interior","pbrMetallicRoughness":{"metallicFactor":0,"baseColorTexture":{"index":15}},"emissiveTexture":{"index":14},"emissiveFactor":[1,0.447957,0.07655142]},{"name":"M_PROP_items_interior_01","pbrMetallicRoughness":{"metallicFactor":0,"baseColorTexture":{"index":16}}},{"name":"M_PROP_fabrics_interior","pbrMetallicRoughness":{"metallicFactor":0,"baseColorTexture":{"index":17}},"doubleSided":true}],"meshes":[{"name":"pb_Mesh-566514","primitives":[{"attributes":{"POSITION":0,"NORMAL":1,"TANGENT":2,"TEXCOORD_0":3},"indices":4,"material":0},{"attributes":{"POSITION":0,"NORMAL":1,"TANGENT":2,"TEXCOORD_0":3},"indices":5,"material":1},{"attributes":{"POSITION":0,"NORMAL":1,"TANGENT":2,"TEXCOORD_0":3},"indices":6,"material":2},{"attributes":{"POSITION":0,"NORMAL":1,"TANGENT":2,"TEXCOORD_0":3},"indices":7,"material":3},{"attributes":{"POSITION":0,"NORMAL":1,"TANGENT":2,"TEXCOORD_0":3},"indices":8,"material":4},{"attributes":{"POSITION":0,"NORMAL":1,"TANGENT":2,"TEXCOORD_0":3},"indices":9,"material":5},{"attributes":{"POSITION":0,"NORMAL":1,"TANGENT":2,"TEXCOORD_0":3},"indices":10,"material":6},{"attributes":{"POSITION":0,"NORMAL":1,"TANGENT":2,"TEXCOORD_0":3},"indices":11,"material":7},{"attributes":{"POSITION":0,"NORMAL":1,"TANGENT":2,"TEXCOORD_0":3},"indices":12,"material":8}]}],"scene":0,"scenes":[{"name":"BanquetRoom1","nodes":[0]}],"textures":[{"source":0},{"source":1},{"source":2},{"source":3},{"source":4},{"source":5},{"source":6},{"source":7},{"source":8},{"source":9},{"source":10},{"source":11},{"source":12},{"source":13},{"source":14},{"source":15},{"source":16},{"source":17}]}