{"asset":{"version":"2.0","generator":"Unity 6000.2.9f1 glTFast 6.15.1"},"nodes":[{"name":"Crystals","mesh":0,"translation":[3.3,1.61112928,-45.22],"scale":[0.71716,0.71716,0.71716]}],"buffers":[{"uri":"Crystals.bin","byteLength":3744}],"bufferViews":[{"buffer":0,"byteLength":288,"target":34963},{"buffer":0,"byteLength":3456,"byteOffset":288,"byteStride":48,"target":34962}],"accessors":[{"bufferView":1,"componentType":5126,"count":72,"type":"VEC3","max":[0.623162746,0.61112833,0.5626106],"min":[-0.623162746,-0.61112833,-0.5626106]},{"bufferView":1,"componentType":5126,"count":72,"type":"VEC3","byteOffset":12},{"bufferView":1,"componentType":5126,"count":72,"type":"VEC4","byteOffset":24},{"bufferView":1,"componentType":5126,"count":72,"type":"VEC2","byteOffset":40},{"bufferView":0,"componentType":5123,"count":144,"type":"SCALAR"}],"materials":[{"name":"EspectralPath","pbrMetallicRoughness":{"baseColorFactor":[0,0.936659038,0.957614,0.192156866],"metallicFactor":0.53,"roughnessFactor":0.5},"emissiveFactor":[0.3160377,0.86320734,1],"alphaMode":"BLEND"}],"meshes":[{"name":"pb_Mesh-72180","primitives":[{"attributes":{"POSITION":0,"NORMAL":1,"TANGENT":2,"TEXCOORD_0":3},"indices":4,"material":0}]}],"scene":0,"scenes":[{"name":"Crystals","nodes":[0]}]}