{"asset":{"version":"2.0","generator":"Unity 6000.2.9f1 glTFast 6.15.1"},"nodes":[{"name":"ExteriorPath1","mesh":0,"translation":[-51.97,1,12.85]}],"buffers":[{"uri":"ExteriorWalls1.bin","byteLength":3223956}],"bufferViews":[{"buffer":0,"byteLength":193716,"target":34963},{"buffer":0,"byteLength":3030240,"byteOffset":193716,"byteStride":48,"target":34962}],"accessors":[{"bufferView":1,"componentType":5126,"count":63130,"type":"VEC3","max":[17.6913834,6.48564,25.7796021],"min":[-19.5540237,-14.0500011,-21.3300018]},{"bufferView":1,"componentType":5126,"count":63130,"type":"VEC3","byteOffset":12},{"bufferView":1,"componentType":5126,"count":63130,"type":"VEC4","byteOffset":24},{"bufferView":1,"componentType":5126,"count":63130,"type":"VEC2","byteOffset":40},{"bufferView":0,"componentType":5123,"count":2646,"type":"SCALAR"},{"bufferView":0,"componentType":5123,"count":47010,"type":"SCALAR","byteOffset":5292},{"bufferView":0,"componentType":5123,"count":3504,"type":"SCALAR","byteOffset":99312},{"bufferView":0,"componentType":5123,"count":7602,"type":"SCALAR","byteOffset":106320},{"bufferView":0,"componentType":5123,"count":14376,"type":"SCALAR","byteOffset":121524},{"bufferView":0,"componentType":5123,"count":96,"type":"SCALAR","byteOffset":150276},{"bufferView":0,"componentType":5123,"count":120,"type":"SCALAR","byteOffset":150468},{"bufferView":0,"componentType":5123,"count":2784,"type":"SCALAR","byteOffset":150708},{"bufferView":0,"componentType":5123,"count":1200,"type":"SCALAR","byteOffset":156276},{"bufferView":0,"componentType":5123,"count":2700,"type":"SCALAR","byteOffset":158676},{"bufferView":0,"componentType":5123,"count":6840,"type":"SCALAR","byteOffset":164076},{"bufferView":0,"componentType":5123,"count":7728,"type":"SCALAR","byteOffset":177756},{"bufferView":0,"componentType":5123,"count":252,"type":"SCALAR","byteOffset":193212}],"images":[{"name":"T_ENV_MOD_Floor_01_v3_N.png","uri":"T_ENV_MOD_Floor_01_v3_N.png","mimeType":"image/png"},{"name":"T_ENV_MOD_Floor_01_v1_BC.jpg","uri":"T_ENV_MOD_Floor_01_v1_BC.jpg","mimeType":"image/jpeg"},{"name":"T_ENV_MOD_Floor_01_v3_MTSM.jpg","uri":"T_ENV_MOD_Floor_01_v3_MTSM.jpg","mimeType":"image/jpeg"},{"name":"T_ENV_MOD_StoneStack_01_v3_N.png","uri":"T_ENV_MOD_StoneStack_01_v3_N.png","mimeType":"image/png"},{"name":"T_ENV_MOD_StoneStack_01_v3_BC.jpg","uri":"T_ENV_MOD_StoneStack_01_v3_BC.jpg","mimeType":"image/jpeg"},{"name":"T_ENV_MOD_StoneStack_01_v3_MTSM.jpg","uri":"T_ENV_MOD_StoneStack_01_v3_MTSM.jpg","mimeType":"image/jpeg"},{"name":"T_ENV_MOD_Wall_01_v3_N.png","uri":"T_ENV_MOD_Wall_01_v3_N.png","mimeType":"image/png"},{"name":"T_ENV_MOD_Wall_01_v3_BC.jpg","uri":"T_ENV_MOD_Wall_01_v3_BC.jpg","mimeType":"image/jpeg"},{"name":"T_ENV_MOD_Wall_01_v3_MTSM.jpg","uri":"T_ENV_MOD_Wall_01_v3_MTSM.jpg","mimeType":"image/jpeg"},{"name":"T_wood_planks_dungeon_01_N.png","uri":"T_wood_planks_dungeon_01_N.png","mimeType":"image/png"},{"name":"T_wood_planks_dungeon_01_BC.jpg","uri":"T_wood_planks_dungeon_01_BC.jpg","mimeType":"image/jpeg"},{"name":"T_wood_planks_dungeon_01_MTSM.jpg","uri":"T_wood_planks_dungeon_01_MTSM.jpg","mimeType":"image/jpeg"},{"name":"T_wood_planks_dungeon_03_N.png","uri":"T_wood_planks_dungeon_03_N.png","mimeType":"image/png"},{"name":"T_wood_planks_dungeon_03_BC.jpg","uri":"T_wood_planks_dungeon_03_BC.jpg","mimeType":"image/jpeg"},{"name":"T_wood_planks_dungeon_03_MTSM_nometal.jpg","uri":"T_wood_planks_dungeon_03_MTSM_nometal.jpg","mimeType":"image/jpeg"},{"name":"T_PROP_chains_dungeon_BC.png","uri":"T_PROP_chains_dungeon_BC.png","mimeType":"image/png"},{"name":"T_ENV_MOD_Floor_01_v3_BC.jpg","uri":"T_ENV_MOD_Floor_01_v3_BC.jpg","mimeType":"image/jpeg"},{"name":"T_wood_planks_dungeon_02_N.png","uri":"T_wood_planks_dungeon_02_N.png","mimeType":"image/png"},{"name":"T_wood_planks_dungeon_02_BC.jpg","uri":"T_wood_planks_dungeon_02_BC.jpg","mimeType":"image/jpeg"},{"name":"T_wood_planks_dungeon_02_MTSM_nometal.jpg","uri":"T_wood_planks_dungeon_02_MTSM_nometal.jpg","mimeType":"image/jpeg"},{"name":"T_PROP_sack_dungeon_BC.jpg","uri":"T_PROP_sack_dungeon_BC.jpg","mimeType":"image/jpeg"},{"name":"T_PROP_wood_planks_interior_02_BC.jpg","uri":"T_PROP_wood_planks_interior_02_BC.jpg","mimeType":"image/jpeg"},{"name":"T_PROP_weapon_dungeon_BC.jpg","uri":"T_PROP_weapon_dungeon_BC.jpg","mimeType":"image/jpeg"},{"name":"T_PROP_bow_dungeon_BC.jpg","uri":"T_PROP_bow_dungeon_BC.jpg","mimeType":"image/jpeg"},{"name":"T_PROP_wood_planks_interior_01_BC.jpg","uri":"T_PROP_wood_planks_interior_01_BC.jpg","mimeType":"image/jpeg"}],"materials":[{"name":"M_MOD_Floor_01_v3_clean","pbrMetallicRoughness":{"roughnessFactor":0,"baseColorTexture":{"index":1},"metallicRoughnessTexture":{"index":2}},"normalTexture":{"index":0}},{"name":"M_MOD_Trim_Stone_01_v3","pbrMetallicRoughness":{"roughnessFactor":0,"baseColorTexture":{"index":4},"metallicRoughnessTexture":{"index":5}},"normalTexture":{"index":3}},{"name":"M_MOD_Wall_01_v3","pbrMetallicRoughness":{"roughnessFactor":0,"baseColorTexture":{"index":7},"metallicRoughnessTexture":{"index":8}},"normalTexture":{"index":6,"scale":1.82}},{"name":"M_wood_planks_dungeon_01","pbrMetallicRoughness":{"roughnessFactor":0,"baseColorTexture":{"index":10},"metallicRoughnessTexture":{"index":11}},"normalTexture":{"index":9}},{"name":"M_wood_planks_dungeon_03","pbrMetallicRoughness":{"roughnessFactor":0,"baseColorTexture":{"index":13},"metallicRoughnessTexture":{"index":14}},"normalTexture":{"index":12}},{"name":"M_PROP_chains_dungeon","pbrMetallicRoughness":{"metallicFactor":0,"roughnessFactor":0.695,"baseColorTexture":{"index":15}},"alphaMode":"MASK","alphaCutoff":0.506,"doubleSided":true},{"name":"M_MOD_Floor_01_v3","pbrMetallicRoughness":{"roughnessFactor":0,"baseColorTexture":{"index":16},"metallicRoughnessTexture":{"index":2}},"normalTexture":{"index":0}},{"name":"M_wood_planks_dungeon_02","pbrMetallicRoughness":{"roughnessFactor":0,"baseColorTexture":{"index":18},"metallicRoughnessTexture":{"index":19}},"normalTexture":{"index":17}},{"name":"M_PROP_sack_dungeon","pbrMetallicRoughness":{"metallicFactor":0,"baseColorTexture":{"index":20}}},{"name":"M_PROP_wood_planks_interior_02","pbrMetallicRoughness":{"metallicFactor":0,"baseColorTexture":{"index":21}}},{"name":"M_PROP_weapon_dungeon","pbrMetallicRoughness":{"metallicFactor":0,"baseColorTexture":{"index":22}}},{"name":"M_PROP_bow_dungeon","pbrMetallicRoughness":{"metallicFactor":0,"baseColorTexture":{"index":23}},"doubleSided":true},{"name":"M_PROP_wood_planks_interior_01","pbrMetallicRoughness":{"metallicFactor":0,"baseColorTexture":{"index":24}}}],"meshes":[{"name":"pb_Mesh-649050","primitives":[{"attributes":{"POSITION":0,"NORMAL":1,"TANGENT":2,"TEXCOORD_0":3},"indices":4,"material":0},{"attributes":{"POSITION":0,"NORMAL":1,"TANGENT":2,"TEXCOORD_0":3},"indices":5,"material":1},{"attributes":{"POSITION":0,"NORMAL":1,"TANGENT":2,"TEXCOORD_0":3},"indices":6,"material":2},{"attributes":{"POSITION":0,"NORMAL":1,"TANGENT":2,"TEXCOORD_0":3},"indices":7,"material":3},{"attributes":{"POSITION":0,"NORMAL":1,"TANGENT":2,"TEXCOORD_0":3},"indices":8,"material":4},{"attributes":{"POSITION":0,"NORMAL":1,"TANGENT":2,"TEXCOORD_0":3},"indices":9,"material":5},{"attributes":{"POSITION":0,"NORMAL":1,"TANGENT":2,"TEXCOORD_0":3},"indices":10,"material":6},{"attributes":{"POSITION":0,"NORMAL":1,"TANGENT":2,"TEXCOORD_0":3},"indices":11,"material":7},{"attributes":{"POSITION":0,"NORMAL":1,"TANGENT":2,"TEXCOORD_0":3},"indices":12,"material":8},{"attributes":{"POSITION":0,"NORMAL":1,"TANGENT":2,"TEXCOORD_0":3},"indices":13,"material":9},{"attributes":{"POSITION":0,"NORMAL":1,"TANGENT":2,"TEXCOORD_0":3},"indices":14,"material":10},{"attributes":{"POSITION":0,"NORMAL":1,"TANGENT":2,"TEXCOORD_0":3},"indices":15,"material":11},{"attributes":{"POSITION":0,"NORMAL":1,"TANGENT":2,"TEXCOORD_0":3},"indices":16,"material":12}]}],"scene":0,"scenes":[{"name":"ExteriorPath1","nodes":[0]}],"textures":[{"source":0},{"source":1},{"source":2},{"source":3},{"source":4},{"source":5},{"source":6},{"source":7},{"source":8},{"source":9},{"source":10},{"source":11},{"source":12},{"source":13},{"source":14},{"source":15},{"source":16},{"source":17},{"source":18},{"source":19},{"source":20},{"source":21},{"source":22},{"source":23},{"source":24}]}