{"asset":{"version":"2.0","generator":"Unity 6000.2.9f1 glTFast 6.15.1"},"nodes":[{"name":"ExteriorWalls1","mesh":0,"translation":[-45.14,-17.42,8.91],"rotation":[0,0.6179717,0,0.7862004]}],"buffers":[{"uri":"ExteriorWalls1.bin","byteLength":3769092}],"bufferViews":[{"buffer":0,"byteLength":193716,"target":34963},{"buffer":0,"byteLength":3575376,"byteOffset":193716,"byteStride":56,"target":34962}],"accessors":[{"bufferView":1,"componentType":5126,"count":63846,"type":"VEC3","max":[32.7622452,24.90564,24.3677635],"min":[-15.652215,0,-16.9143867]},{"bufferView":1,"componentType":5126,"count":63846,"type":"VEC3","byteOffset":12},{"bufferView":1,"componentType":5126,"count":63846,"type":"VEC4","byteOffset":24},{"bufferView":1,"componentType":5126,"count":63846,"type":"VEC2","byteOffset":40},{"bufferView":1,"componentType":5126,"count":63846,"type":"VEC2","byteOffset":48},{"bufferView":0,"componentType":5123,"count":47238,"type":"SCALAR"},{"bufferView":0,"componentType":5123,"count":2826,"type":"SCALAR","byteOffset":94476},{"bufferView":0,"componentType":5123,"count":318,"type":"SCALAR","byteOffset":100128},{"bufferView":0,"componentType":5123,"count":3648,"type":"SCALAR","byteOffset":100764},{"bufferView":0,"componentType":5123,"count":7602,"type":"SCALAR","byteOffset":108060},{"bufferView":0,"componentType":5123,"count":14376,"type":"SCALAR","byteOffset":123264},{"bufferView":0,"componentType":5123,"count":96,"type":"SCALAR","byteOffset":152016},{"bufferView":0,"componentType":5123,"count":2784,"type":"SCALAR","byteOffset":152208},{"bufferView":0,"componentType":5123,"count":1200,"type":"SCALAR","byteOffset":157776},{"bufferView":0,"componentType":5123,"count":2700,"type":"SCALAR","byteOffset":160176},{"bufferView":0,"componentType":5123,"count":6840,"type":"SCALAR","byteOffset":165576},{"bufferView":0,"componentType":5123,"count":6762,"type":"SCALAR","byteOffset":179256},{"bufferView":0,"componentType":5123,"count":468,"type":"SCALAR","byteOffset":192780}],"images":[{"name":"T_ENV_MOD_StoneStack_01_v3_N.png","uri":"T_ENV_MOD_StoneStack_01_v3_N.png","mimeType":"image/png"},{"name":"T_ENV_MOD_StoneStack_01_v3_BC.jpg","uri":"T_ENV_MOD_StoneStack_01_v3_BC.jpg","mimeType":"image/jpeg"},{"name":"T_ENV_MOD_StoneStack_01_v3_MTSM.jpg","uri":"T_ENV_MOD_StoneStack_01_v3_MTSM.jpg","mimeType":"image/jpeg"},{"name":"T_ENV_MOD_Floor_01_v3_N.png","uri":"T_ENV_MOD_Floor_01_v3_N.png","mimeType":"image/png"},{"name":"T_ENV_MOD_Floor_01_v1_BC.jpg","uri":"T_ENV_MOD_Floor_01_v1_BC.jpg","mimeType":"image/jpeg"},{"name":"T_ENV_MOD_Floor_01_v3_MTSM.jpg","uri":"T_ENV_MOD_Floor_01_v3_MTSM.jpg","mimeType":"image/jpeg"},{"name":"T_ENV_MOD_Floor_01_v3_BC.jpg","uri":"T_ENV_MOD_Floor_01_v3_BC.jpg","mimeType":"image/jpeg"},{"name":"T_ENV_MOD_Wall_01_v3_N.png","uri":"T_ENV_MOD_Wall_01_v3_N.png","mimeType":"image/png"},{"name":"T_ENV_MOD_Wall_01_v3_BC.jpg","uri":"T_ENV_MOD_Wall_01_v3_BC.jpg","mimeType":"image/jpeg"},{"name":"T_ENV_MOD_Wall_01_v3_MTSM.jpg","uri":"T_ENV_MOD_Wall_01_v3_MTSM.jpg","mimeType":"image/jpeg"},{"name":"T_wood_planks_dungeon_01_N.png","uri":"T_wood_planks_dungeon_01_N.png","mimeType":"image/png"},{"name":"T_wood_planks_dungeon_01_BC.jpg","uri":"T_wood_planks_dungeon_01_BC.jpg","mimeType":"image/jpeg"},{"name":"T_wood_planks_dungeon_01_MTSM.jpg","uri":"T_wood_planks_dungeon_01_MTSM.jpg","mimeType":"image/jpeg"},{"name":"T_wood_planks_dungeon_03_N.png","uri":"T_wood_planks_dungeon_03_N.png","mimeType":"image/png"},{"name":"T_wood_planks_dungeon_03_BC.jpg","uri":"T_wood_planks_dungeon_03_BC.jpg","mimeType":"image/jpeg"},{"name":"T_wood_planks_dungeon_03_MTSM_nometal.jpg","uri":"T_wood_planks_dungeon_03_MTSM_nometal.jpg","mimeType":"image/jpeg"},{"name":"T_PROP_chains_dungeon_BC.png","uri":"T_PROP_chains_dungeon_BC.png","mimeType":"image/png"},{"name":"T_wood_planks_dungeon_02_N.png","uri":"T_wood_planks_dungeon_02_N.png","mimeType":"image/png"},{"name":"T_wood_planks_dungeon_02_BC.jpg","uri":"T_wood_planks_dungeon_02_BC.jpg","mimeType":"image/jpeg"},{"name":"T_wood_planks_dungeon_02_MTSM_nometal.jpg","uri":"T_wood_planks_dungeon_02_MTSM_nometal.jpg","mimeType":"image/jpeg"},{"name":"T_PROP_sack_dungeon_BC.jpg","uri":"T_PROP_sack_dungeon_BC.jpg","mimeType":"image/jpeg"},{"name":"T_PROP_wood_planks_interior_02_BC.jpg","uri":"T_PROP_wood_planks_interior_02_BC.jpg","mimeType":"image/jpeg"},{"name":"T_PROP_weapon_dungeon_BC.jpg","uri":"T_PROP_weapon_dungeon_BC.jpg","mimeType":"image/jpeg"},{"name":"T_PROP_bow_dungeon_BC.jpg","uri":"T_PROP_bow_dungeon_BC.jpg","mimeType":"image/jpeg"},{"name":"T_PROP_wood_planks_interior_01_BC.jpg","uri":"T_PROP_wood_planks_interior_01_BC.jpg","mimeType":"image/jpeg"}],"materials":[{"name":"M_MOD_Trim_Stone_01_v3","pbrMetallicRoughness":{"roughnessFactor":0,"baseColorTexture":{"index":1},"metallicRoughnessTexture":{"index":2}},"normalTexture":{"index":0}},{"name":"M_MOD_Floor_01_v3_clean","pbrMetallicRoughness":{"roughnessFactor":0,"baseColorTexture":{"index":4},"metallicRoughnessTexture":{"index":5}},"normalTexture":{"index":3}},{"name":"M_MOD_Floor_01_v3","pbrMetallicRoughness":{"roughnessFactor":0,"baseColorTexture":{"index":6},"metallicRoughnessTexture":{"index":5}},"normalTexture":{"index":3}},{"name":"M_MOD_Wall_01_v3","pbrMetallicRoughness":{"roughnessFactor":0,"baseColorTexture":{"index":8},"metallicRoughnessTexture":{"index":9}},"normalTexture":{"index":7,"scale":1.82}},{"name":"M_wood_planks_dungeon_01","pbrMetallicRoughness":{"roughnessFactor":0,"baseColorTexture":{"index":11},"metallicRoughnessTexture":{"index":12}},"normalTexture":{"index":10}},{"name":"M_wood_planks_dungeon_03","pbrMetallicRoughness":{"roughnessFactor":0,"baseColorTexture":{"index":14},"metallicRoughnessTexture":{"index":15}},"normalTexture":{"index":13}},{"name":"M_PROP_chains_dungeon","pbrMetallicRoughness":{"metallicFactor":0,"roughnessFactor":0.695,"baseColorTexture":{"index":16}},"alphaMode":"MASK","alphaCutoff":0.506,"doubleSided":true},{"name":"M_wood_planks_dungeon_02","pbrMetallicRoughness":{"roughnessFactor":0,"baseColorTexture":{"index":18},"metallicRoughnessTexture":{"index":19}},"normalTexture":{"index":17}},{"name":"M_PROP_sack_dungeon","pbrMetallicRoughness":{"metallicFactor":0,"baseColorTexture":{"index":20}}},{"name":"M_PROP_wood_planks_interior_02","pbrMetallicRoughness":{"metallicFactor":0,"baseColorTexture":{"index":21}}},{"name":"M_PROP_weapon_dungeon","pbrMetallicRoughness":{"metallicFactor":0,"baseColorTexture":{"index":22}}},{"name":"M_PROP_bow_dungeon","pbrMetallicRoughness":{"metallicFactor":0,"baseColorTexture":{"index":23}},"doubleSided":true},{"name":"M_PROP_wood_planks_interior_01","pbrMetallicRoughness":{"metallicFactor":0,"baseColorTexture":{"index":24}}}],"meshes":[{"name":"pb_Mesh-342756","primitives":[{"attributes":{"POSITION":0,"NORMAL":1,"TANGENT":2,"TEXCOORD_0":3,"TEXCOORD_1":4},"indices":5,"material":0},{"attributes":{"POSITION":0,"NORMAL":1,"TANGENT":2,"TEXCOORD_0":3,"TEXCOORD_1":4},"indices":6,"material":1},{"attributes":{"POSITION":0,"NORMAL":1,"TANGENT":2,"TEXCOORD_0":3,"TEXCOORD_1":4},"indices":7,"material":2},{"attributes":{"POSITION":0,"NORMAL":1,"TANGENT":2,"TEXCOORD_0":3,"TEXCOORD_1":4},"indices":8,"material":3},{"attributes":{"POSITION":0,"NORMAL":1,"TANGENT":2,"TEXCOORD_0":3,"TEXCOORD_1":4},"indices":9,"material":4},{"attributes":{"POSITION":0,"NORMAL":1,"TANGENT":2,"TEXCOORD_0":3,"TEXCOORD_1":4},"indices":10,"material":5},{"attributes":{"POSITION":0,"NORMAL":1,"TANGENT":2,"TEXCOORD_0":3,"TEXCOORD_1":4},"indices":11,"material":6},{"attributes":{"POSITION":0,"NORMAL":1,"TANGENT":2,"TEXCOORD_0":3,"TEXCOORD_1":4},"indices":12,"material":7},{"attributes":{"POSITION":0,"NORMAL":1,"TANGENT":2,"TEXCOORD_0":3,"TEXCOORD_1":4},"indices":13,"material":8},{"attributes":{"POSITION":0,"NORMAL":1,"TANGENT":2,"TEXCOORD_0":3,"TEXCOORD_1":4},"indices":14,"material":9},{"attributes":{"POSITION":0,"NORMAL":1,"TANGENT":2,"TEXCOORD_0":3,"TEXCOORD_1":4},"indices":15,"material":10},{"attributes":{"POSITION":0,"NORMAL":1,"TANGENT":2,"TEXCOORD_0":3,"TEXCOORD_1":4},"indices":16,"material":11},{"attributes":{"POSITION":0,"NORMAL":1,"TANGENT":2,"TEXCOORD_0":3,"TEXCOORD_1":4},"indices":17,"material":12}]}],"scene":0,"scenes":[{"name":"ExteriorWalls1","nodes":[0]}],"textures":[{"source":0},{"source":1},{"source":2},{"source":3},{"source":4},{"source":5},{"source":6},{"source":7},{"source":8},{"source":9},{"source":10},{"source":11},{"source":12},{"source":13},{"source":14},{"source":15},{"source":16},{"source":17},{"source":18},{"source":19},{"source":20},{"source":21},{"source":22},{"source":23},{"source":24}]}