{"asset":{"version":"2.0","generator":"Unity 6000.2.9f1 glTFast 6.15.1"},"nodes":[{"name":"ExteriorWalls2","mesh":0,"translation":[-45.14,-17.42,8.91]}],"buffers":[{"uri":"ExteriorWalls2.bin","byteLength":2706624}],"bufferViews":[{"buffer":0,"byteLength":159216,"target":34963},{"buffer":0,"byteLength":2547408,"byteOffset":159216,"byteStride":48,"target":34962}],"accessors":[{"bufferView":1,"componentType":5126,"count":53071,"type":"VEC3","max":[20.1295052,23.3116035,10.1649094],"min":[-12.1599836,0.0146369934,-33.36]},{"bufferView":1,"componentType":5126,"count":53071,"type":"VEC3","byteOffset":12},{"bufferView":1,"componentType":5126,"count":53071,"type":"VEC4","byteOffset":24},{"bufferView":1,"componentType":5126,"count":53071,"type":"VEC2","byteOffset":40},{"bufferView":0,"componentType":5123,"count":2898,"type":"SCALAR"},{"bufferView":0,"componentType":5123,"count":21990,"type":"SCALAR","byteOffset":5796},{"bufferView":0,"componentType":5123,"count":2340,"type":"SCALAR","byteOffset":49776},{"bufferView":0,"componentType":5123,"count":9528,"type":"SCALAR","byteOffset":54456},{"bufferView":0,"componentType":5123,"count":2784,"type":"SCALAR","byteOffset":73512},{"bufferView":0,"componentType":5123,"count":864,"type":"SCALAR","byteOffset":79080},{"bufferView":0,"componentType":5123,"count":3348,"type":"SCALAR","byteOffset":80808},{"bufferView":0,"componentType":5123,"count":16320,"type":"SCALAR","byteOffset":87504},{"bufferView":0,"componentType":5123,"count":12960,"type":"SCALAR","byteOffset":120144},{"bufferView":0,"componentType":5123,"count":4200,"type":"SCALAR","byteOffset":146064},{"bufferView":0,"componentType":5123,"count":2376,"type":"SCALAR","byteOffset":154464}],"images":[{"name":"T_PROP_bow_dungeon_BC.jpg","uri":"T_PROP_bow_dungeon_BC.jpg","mimeType":"image/jpeg"},{"name":"T_wood_planks_dungeon_03_N.png","uri":"T_wood_planks_dungeon_03_N.png","mimeType":"image/png"},{"name":"T_wood_planks_dungeon_03_BC.jpg","uri":"T_wood_planks_dungeon_03_BC.jpg","mimeType":"image/jpeg"},{"name":"T_wood_planks_dungeon_03_MTSM_nometal.jpg","uri":"T_wood_planks_dungeon_03_MTSM_nometal.jpg","mimeType":"image/jpeg"},{"name":"T_PROP_wood_planks_interior_01_BC.jpg","uri":"T_PROP_wood_planks_interior_01_BC.jpg","mimeType":"image/jpeg"},{"name":"T_PROP_wood_planks_interior_02_BC.jpg","uri":"T_PROP_wood_planks_interior_02_BC.jpg","mimeType":"image/jpeg"},{"name":"T_wood_planks_dungeon_01_N.png","uri":"T_wood_planks_dungeon_01_N.png","mimeType":"image/png"},{"name":"T_wood_planks_dungeon_01_BC.jpg","uri":"T_wood_planks_dungeon_01_BC.jpg","mimeType":"image/jpeg"},{"name":"T_wood_planks_dungeon_01_MTSM.jpg","uri":"T_wood_planks_dungeon_01_MTSM.jpg","mimeType":"image/jpeg"},{"name":"T_PROP_flags_dungeon_BC.jpg","uri":"T_PROP_flags_dungeon_BC.jpg","mimeType":"image/jpeg"},{"name":"T_PROP_metal_interior_E.jpg","uri":"T_PROP_metal_interior_E.jpg","mimeType":"image/jpeg"},{"name":"T_PROP_metal_interior_BC.jpg","uri":"T_PROP_metal_interior_BC.jpg","mimeType":"image/jpeg"},{"name":"T_metal_dungeon_N.png","uri":"T_metal_dungeon_N.png","mimeType":"image/png"},{"name":"T_metal_dungeon_01_BC.jpg","uri":"T_metal_dungeon_01_BC.jpg","mimeType":"image/jpeg"},{"name":"T_metal_dungeon_MTSM_nometal.jpg","uri":"T_metal_dungeon_MTSM_nometal.jpg","mimeType":"image/jpeg"},{"name":"T_ENV_MOD_StoneStack_01_v3_N.png","uri":"T_ENV_MOD_StoneStack_01_v3_N.png","mimeType":"image/png"},{"name":"T_ENV_MOD_StoneStack_01_v3_BC.jpg","uri":"T_ENV_MOD_StoneStack_01_v3_BC.jpg","mimeType":"image/jpeg"},{"name":"T_ENV_MOD_StoneStack_01_v3_MTSM.jpg","uri":"T_ENV_MOD_StoneStack_01_v3_MTSM.jpg","mimeType":"image/jpeg"},{"name":"T_PROP_campfire_dungeon_E.png","uri":"T_PROP_campfire_dungeon_E.png","mimeType":"image/png"},{"name":"T_PROP_campfire_dungeon_BC.png","uri":"T_PROP_campfire_dungeon_BC.png","mimeType":"image/png"},{"name":"T_ENV_MOD_Wall_01_v3_N.png","uri":"T_ENV_MOD_Wall_01_v3_N.png","mimeType":"image/png"},{"name":"T_ENV_MOD_Wall_01_v3_BC.jpg","uri":"T_ENV_MOD_Wall_01_v3_BC.jpg","mimeType":"image/jpeg"},{"name":"T_ENV_MOD_Wall_01_v3_MTSM.jpg","uri":"T_ENV_MOD_Wall_01_v3_MTSM.jpg","mimeType":"image/jpeg"}],"materials":[{"name":"M_PROP_bow_dungeon","pbrMetallicRoughness":{"metallicFactor":0,"baseColorTexture":{"index":0}},"doubleSided":true},{"name":"M_wood_planks_dungeon_03","pbrMetallicRoughness":{"roughnessFactor":0,"baseColorTexture":{"index":2},"metallicRoughnessTexture":{"index":3}},"normalTexture":{"index":1}},{"name":"M_PROP_wood_planks_interior_01","pbrMetallicRoughness":{"metallicFactor":0,"baseColorTexture":{"index":4}}},{"name":"M_PROP_wood_planks_interior_02","pbrMetallicRoughness":{"metallicFactor":0,"baseColorTexture":{"index":5}}},{"name":"M_wood_planks_dungeon_01","pbrMetallicRoughness":{"roughnessFactor":0,"baseColorTexture":{"index":7},"metallicRoughnessTexture":{"index":8}},"normalTexture":{"index":6}},{"name":"M_PROP_flags_dungeon","pbrMetallicRoughness":{"metallicFactor":0,"baseColorTexture":{"index":9}},"doubleSided":true},{"name":"M_PROP_metal_interior","pbrMetallicRoughness":{"metallicFactor":0,"baseColorTexture":{"index":11}},"emissiveTexture":{"index":10},"emissiveFactor":[1,0.447957,0.07655142]},{"name":"M_metal_dungeon_01","pbrMetallicRoughness":{"roughnessFactor":0,"baseColorTexture":{"index":13},"metallicRoughnessTexture":{"index":14}},"normalTexture":{"index":12}},{"name":"M_MOD_Trim_Stone_01_v3","pbrMetallicRoughness":{"roughnessFactor":0,"baseColorTexture":{"index":16},"metallicRoughnessTexture":{"index":17}},"normalTexture":{"index":15}},{"name":"M_PROP_campfire_dungeon","pbrMetallicRoughness":{"metallicFactor":0,"roughnessFactor":0,"baseColorTexture":{"index":19}},"emissiveTexture":{"index":18},"emissiveFactor":[1,0.459795684,0]},{"name":"M_MOD_Wall_01_v3","pbrMetallicRoughness":{"roughnessFactor":0,"baseColorTexture":{"index":21},"metallicRoughnessTexture":{"index":22}},"normalTexture":{"index":20,"scale":1.82}}],"meshes":[{"name":"pb_Mesh-345642","primitives":[{"attributes":{"POSITION":0,"NORMAL":1,"TANGENT":2,"TEXCOORD_0":3},"indices":4,"material":0},{"attributes":{"POSITION":0,"NORMAL":1,"TANGENT":2,"TEXCOORD_0":3},"indices":5,"material":1},{"attributes":{"POSITION":0,"NORMAL":1,"TANGENT":2,"TEXCOORD_0":3},"indices":6,"material":2},{"attributes":{"POSITION":0,"NORMAL":1,"TANGENT":2,"TEXCOORD_0":3},"indices":7,"material":3},{"attributes":{"POSITION":0,"NORMAL":1,"TANGENT":2,"TEXCOORD_0":3},"indices":8,"material":4},{"attributes":{"POSITION":0,"NORMAL":1,"TANGENT":2,"TEXCOORD_0":3},"indices":9,"material":5},{"attributes":{"POSITION":0,"NORMAL":1,"TANGENT":2,"TEXCOORD_0":3},"indices":10,"material":6},{"attributes":{"POSITION":0,"NORMAL":1,"TANGENT":2,"TEXCOORD_0":3},"indices":11,"material":7},{"attributes":{"POSITION":0,"NORMAL":1,"TANGENT":2,"TEXCOORD_0":3},"indices":12,"material":8},{"attributes":{"POSITION":0,"NORMAL":1,"TANGENT":2,"TEXCOORD_0":3},"indices":13,"material":9},{"attributes":{"POSITION":0,"NORMAL":1,"TANGENT":2,"TEXCOORD_0":3},"indices":14,"material":10}]}],"scene":0,"scenes":[{"name":"ExteriorWalls2","nodes":[0]}],"textures":[{"source":0},{"source":1},{"source":2},{"source":3},{"source":4},{"source":5},{"source":6},{"source":7},{"source":8},{"source":9},{"source":10},{"source":11},{"source":12},{"source":13},{"source":14},{"source":15},{"source":16},{"source":17},{"source":18},{"source":19},{"source":20},{"source":21},{"source":22}]}