{"asset":{"version":"2.0","generator":"Unity 6000.2.9f1 glTFast 6.15.1"},"nodes":[{"name":"Halls","mesh":0,"translation":[-62.61,3.03,-49.42],"rotation":[0,-2.95042946E-06,0,1],"scale":[1,1,1.1758]}],"buffers":[{"uri":"Halls.bin","byteLength":3271988}],"bufferViews":[{"buffer":0,"byteLength":171660,"target":34963},{"buffer":0,"byteLength":3100328,"byteOffset":171660,"byteStride":56,"target":34962}],"accessors":[{"bufferView":1,"componentType":5126,"count":55363,"type":"VEC3","max":[43.8399773,8.024266,27.676384],"min":[-6.179474,-4.318742,-3.86028481]},{"bufferView":1,"componentType":5126,"count":55363,"type":"VEC3","byteOffset":12},{"bufferView":1,"componentType":5126,"count":55363,"type":"VEC4","byteOffset":24},{"bufferView":1,"componentType":5126,"count":55363,"type":"VEC2","byteOffset":40},{"bufferView":1,"componentType":5126,"count":55363,"type":"VEC2","byteOffset":48},{"bufferView":0,"componentType":5123,"count":192,"type":"SCALAR"},{"bufferView":0,"componentType":5123,"count":306,"type":"SCALAR","byteOffset":384},{"bufferView":0,"componentType":5123,"count":1404,"type":"SCALAR","byteOffset":996},{"bufferView":0,"componentType":5123,"count":15252,"type":"SCALAR","byteOffset":3804},{"bufferView":0,"componentType":5123,"count":1200,"type":"SCALAR","byteOffset":34308},{"bufferView":0,"componentType":5123,"count":5256,"type":"SCALAR","byteOffset":36708},{"bufferView":0,"componentType":5123,"count":324,"type":"SCALAR","byteOffset":47220},{"bufferView":0,"componentType":5123,"count":41988,"type":"SCALAR","byteOffset":47868},{"bufferView":0,"componentType":5123,"count":420,"type":"SCALAR","byteOffset":131844},{"bufferView":0,"componentType":5123,"count":4104,"type":"SCALAR","byteOffset":132684},{"bufferView":0,"componentType":5123,"count":270,"type":"SCALAR","byteOffset":140892},{"bufferView":0,"componentType":5123,"count":8892,"type":"SCALAR","byteOffset":141432},{"bufferView":0,"componentType":5123,"count":3408,"type":"SCALAR","byteOffset":159216},{"bufferView":0,"componentType":5123,"count":2724,"type":"SCALAR","byteOffset":166032},{"bufferView":0,"componentType":5123,"count":90,"type":"SCALAR","byteOffset":171480}],"images":[{"name":"T_ENV_MOD_Interior_PlanksShort_02_N.png","uri":"T_ENV_MOD_Interior_PlanksShort_02_N.png","mimeType":"image/png"},{"name":"T_ENV_MOD_Interior_PlanksShort_02_v2_BC.jpg","uri":"T_ENV_MOD_Interior_PlanksShort_02_v2_BC.jpg","mimeType":"image/jpeg"},{"name":"T_ENV_MOD_Interior_PlanksShort_02_v1_MTSM.jpg","uri":"T_ENV_MOD_Interior_PlanksShort_02_v1_MTSM.jpg","mimeType":"image/jpeg"},{"name":"T_ENV_MOD_Floor_01_v3_N.png","uri":"T_ENV_MOD_Floor_01_v3_N.png","mimeType":"image/png"},{"name":"T_ENV_MOD_Floor_01_v1_BC.jpg","uri":"T_ENV_MOD_Floor_01_v1_BC.jpg","mimeType":"image/jpeg"},{"name":"T_ENV_MOD_Floor_01_v3_MTSM.jpg","uri":"T_ENV_MOD_Floor_01_v3_MTSM.jpg","mimeType":"image/jpeg"},{"name":"T_ENV_MOD_Wall_01_v1_N.png","uri":"T_ENV_MOD_Wall_01_v1_N.png","mimeType":"image/png"},{"name":"T_ENV_MOD_Wall_01_v1_BC.jpg","uri":"T_ENV_MOD_Wall_01_v1_BC.jpg","mimeType":"image/jpeg"},{"name":"T_ENV_MOD_Wall_01_v1_MTSM.jpg","uri":"T_ENV_MOD_Wall_01_v1_MTSM.jpg","mimeType":"image/jpeg"},{"name":"T_ENV_MOD_StoneStack_01_v3_N.png","uri":"T_ENV_MOD_StoneStack_01_v3_N.png","mimeType":"image/png"},{"name":"T_ENV_MOD_StoneStack_01_v3_BC.jpg","uri":"T_ENV_MOD_StoneStack_01_v3_BC.jpg","mimeType":"image/jpeg"},{"name":"T_ENV_MOD_StoneStack_01_v3_MTSM.jpg","uri":"T_ENV_MOD_StoneStack_01_v3_MTSM.jpg","mimeType":"image/jpeg"},{"name":"T_ENV_MOD_StoneStack_01_v1_BC.jpg","uri":"T_ENV_MOD_StoneStack_01_v1_BC.jpg","mimeType":"image/jpeg"},{"name":"T_PROP_orevein_dungeon_N.png","uri":"T_PROP_orevein_dungeon_N.png","mimeType":"image/png"},{"name":"T_PROP_orevein_dungeon_BC.jpg","uri":"T_PROP_orevein_dungeon_BC.jpg","mimeType":"image/jpeg"},{"name":"T_PROP_orevein_dungeon_MTSM.jpg","uri":"T_PROP_orevein_dungeon_MTSM.jpg","mimeType":"image/jpeg"},{"name":"T_PROP_fabric_dungeon_BC.jpg","uri":"T_PROP_fabric_dungeon_BC.jpg","mimeType":"image/jpeg"},{"name":"T_wood_planks_dungeon_03_N.png","uri":"T_wood_planks_dungeon_03_N.png","mimeType":"image/png"},{"name":"T_wood_planks_dungeon_03_BC.jpg","uri":"T_wood_planks_dungeon_03_BC.jpg","mimeType":"image/jpeg"},{"name":"T_wood_planks_dungeon_03_MTSM_nometal.jpg","uri":"T_wood_planks_dungeon_03_MTSM_nometal.jpg","mimeType":"image/jpeg"},{"name":"T_PROP_flags_dungeon_BC.jpg","uri":"T_PROP_flags_dungeon_BC.jpg","mimeType":"image/jpeg"},{"name":"T_PROP_frames_interior_BC.jpg","uri":"T_PROP_frames_interior_BC.jpg","mimeType":"image/jpeg"},{"name":"T_PROP_items_interior_02_BC.jpg","uri":"T_PROP_items_interior_02_BC.jpg","mimeType":"image/jpeg"},{"name":"T_PROP_wood_planks_interior_02_BC.jpg","uri":"T_PROP_wood_planks_interior_02_BC.jpg","mimeType":"image/jpeg"},{"name":"T_metal_dungeon_N.png","uri":"T_metal_dungeon_N.png","mimeType":"image/png"},{"name":"T_metal_dungeon_01_BC.jpg","uri":"T_metal_dungeon_01_BC.jpg","mimeType":"image/jpeg"},{"name":"T_metal_dungeon_MTSM_nometal.jpg","uri":"T_metal_dungeon_MTSM_nometal.jpg","mimeType":"image/jpeg"},{"name":"T_ENV_MOD_Interior_WoodGeneric_v2_N.png","uri":"T_ENV_MOD_Interior_WoodGeneric_v2_N.png","mimeType":"image/png"},{"name":"T_ENV_MOD_Interior_WoodGeneric_v2_BC.jpg","uri":"T_ENV_MOD_Interior_WoodGeneric_v2_BC.jpg","mimeType":"image/jpeg"},{"name":"T_ENV_MOD_Interior_WoodGeneric_v2_MTSM.jpg","uri":"T_ENV_MOD_Interior_WoodGeneric_v2_MTSM.jpg","mimeType":"image/jpeg"},{"name":"T_ENV_MOD_Interior_PlanksLong_02_N.png","uri":"T_ENV_MOD_Interior_PlanksLong_02_N.png","mimeType":"image/png"},{"name":"T_ENV_MOD_Interior_PlanksLong_02_v2_BC.jpg","uri":"T_ENV_MOD_Interior_PlanksLong_02_v2_BC.jpg","mimeType":"image/jpeg"},{"name":"T_ENV_MOD_Interior_PlanksLong_02_v2_MTSM.jpg","uri":"T_ENV_MOD_Interior_PlanksLong_02_v2_MTSM.jpg","mimeType":"image/jpeg"}],"materials":[{"name":"M_ENV_MOD_Interior_PlanksShort_02_v2","pbrMetallicRoughness":{"baseColorTexture":{"index":1},"metallicRoughnessTexture":{"index":2}},"normalTexture":{"index":0}},{"name":"M_MOD_Floor_01_v3_clean","pbrMetallicRoughness":{"roughnessFactor":0,"baseColorTexture":{"index":4},"metallicRoughnessTexture":{"index":5}},"normalTexture":{"index":3}},{"name":"M_MOD_Wall_01_v1","pbrMetallicRoughness":{"roughnessFactor":0,"baseColorTexture":{"index":7},"metallicRoughnessTexture":{"index":8}},"normalTexture":{"index":6,"scale":1.82}},{"name":"M_MOD_Trim_Stone_01_v3","pbrMetallicRoughness":{"roughnessFactor":0,"baseColorTexture":{"index":10},"metallicRoughnessTexture":{"index":11}},"normalTexture":{"index":9}},{"name":"M_MOD_Trim_Stone_01_v3_clean","pbrMetallicRoughness":{"roughnessFactor":0,"baseColorTexture":{"index":12},"metallicRoughnessTexture":{"index":11}},"normalTexture":{"index":9}},{"name":"M_PROP_orevein_dungeon","pbrMetallicRoughness":{"roughnessFactor":0,"baseColorTexture":{"index":14},"metallicRoughnessTexture":{"index":15}},"normalTexture":{"index":13}},{"name":"M_PROP_fabric_dungeon","pbrMetallicRoughness":{"metallicFactor":0,"baseColorTexture":{"index":16}},"doubleSided":true},{"name":"M_wood_planks_dungeon_03","pbrMetallicRoughness":{"roughnessFactor":0,"baseColorTexture":{"index":18},"metallicRoughnessTexture":{"index":19}},"normalTexture":{"index":17}},{"name":"M_PROP_flags_dungeon","pbrMetallicRoughness":{"metallicFactor":0,"baseColorTexture":{"index":20}},"doubleSided":true},{"name":"M_PROP_frames_interior","pbrMetallicRoughness":{"metallicFactor":0,"baseColorTexture":{"index":21}}},{"name":"M_PROP_items_interior_02","pbrMetallicRoughness":{"metallicFactor":0,"baseColorTexture":{"index":22}}},{"name":"M_PROP_wood_planks_interior_02","pbrMetallicRoughness":{"metallicFactor":0,"baseColorTexture":{"index":23}}},{"name":"M_metal_dungeon_01","pbrMetallicRoughness":{"roughnessFactor":0,"baseColorTexture":{"index":25},"metallicRoughnessTexture":{"index":26}},"normalTexture":{"index":24}},{"name":"M_ENV_MOD_Interior_WoodGeneric_v2","pbrMetallicRoughness":{"baseColorTexture":{"index":28},"metallicRoughnessTexture":{"index":29}},"normalTexture":{"index":27}},{"name":"M_ENV_MOD_Interior_PlanksLong_02_v2","pbrMetallicRoughness":{"baseColorTexture":{"index":31},"metallicRoughnessTexture":{"index":32}},"normalTexture":{"index":30}}],"meshes":[{"name":"pb_Mesh-153138","primitives":[{"attributes":{"POSITION":0,"NORMAL":1,"TANGENT":2,"TEXCOORD_0":3,"TEXCOORD_1":4},"indices":5,"material":0},{"attributes":{"POSITION":0,"NORMAL":1,"TANGENT":2,"TEXCOORD_0":3,"TEXCOORD_1":4},"indices":6,"material":1},{"attributes":{"POSITION":0,"NORMAL":1,"TANGENT":2,"TEXCOORD_0":3,"TEXCOORD_1":4},"indices":7,"material":2},{"attributes":{"POSITION":0,"NORMAL":1,"TANGENT":2,"TEXCOORD_0":3,"TEXCOORD_1":4},"indices":8,"material":3},{"attributes":{"POSITION":0,"NORMAL":1,"TANGENT":2,"TEXCOORD_0":3,"TEXCOORD_1":4},"indices":9,"material":4},{"attributes":{"POSITION":0,"NORMAL":1,"TANGENT":2,"TEXCOORD_0":3,"TEXCOORD_1":4},"indices":10,"material":5},{"attributes":{"POSITION":0,"NORMAL":1,"TANGENT":2,"TEXCOORD_0":3,"TEXCOORD_1":4},"indices":11,"material":6},{"attributes":{"POSITION":0,"NORMAL":1,"TANGENT":2,"TEXCOORD_0":3,"TEXCOORD_1":4},"indices":12,"material":7},{"attributes":{"POSITION":0,"NORMAL":1,"TANGENT":2,"TEXCOORD_0":3,"TEXCOORD_1":4},"indices":13,"material":8},{"attributes":{"POSITION":0,"NORMAL":1,"TANGENT":2,"TEXCOORD_0":3,"TEXCOORD_1":4},"indices":14,"material":9},{"attributes":{"POSITION":0,"NORMAL":1,"TANGENT":2,"TEXCOORD_0":3,"TEXCOORD_1":4},"indices":15,"material":10},{"attributes":{"POSITION":0,"NORMAL":1,"TANGENT":2,"TEXCOORD_0":3,"TEXCOORD_1":4},"indices":16,"material":11},{"attributes":{"POSITION":0,"NORMAL":1,"TANGENT":2,"TEXCOORD_0":3,"TEXCOORD_1":4},"indices":17,"material":12},{"attributes":{"POSITION":0,"NORMAL":1,"TANGENT":2,"TEXCOORD_0":3,"TEXCOORD_1":4},"indices":18,"material":13},{"attributes":{"POSITION":0,"NORMAL":1,"TANGENT":2,"TEXCOORD_0":3,"TEXCOORD_1":4},"indices":19,"material":14}]}],"scene":0,"scenes":[{"name":"Halls","nodes":[0]}],"textures":[{"source":0},{"source":1},{"source":2},{"source":3},{"source":4},{"source":5},{"source":6},{"source":7},{"source":8},{"source":9},{"source":10},{"source":11},{"source":12},{"source":13},{"source":14},{"source":15},{"source":16},{"source":17},{"source":18},{"source":19},{"source":20},{"source":21},{"source":22},{"source":23},{"source":24},{"source":25},{"source":26},{"source":27},{"source":28},{"source":29},{"source":30},{"source":31},{"source":32}]}