{"asset":{"version":"2.0","generator":"Unity 6000.2.9f1 glTFast 6.15.1"},"nodes":[{"name":"P_MOD_Floor_02_E_straight_med (4)","mesh":0,"translation":[-11.7115841,1.08,-1.46749961]}],"buffers":[{"uri":"LyrielRoom.bin","byteLength":2477256}],"bufferViews":[{"buffer":0,"byteLength":125424,"target":34963},{"buffer":0,"byteLength":2351832,"byteOffset":125424,"byteStride":56,"target":34962}],"accessors":[{"bufferView":1,"componentType":5126,"count":41997,"type":"VEC3","max":[8.885571,6.18,8.864971],"min":[-4.716198,-0.5,-4.889797]},{"bufferView":1,"componentType":5126,"count":41997,"type":"VEC3","byteOffset":12},{"bufferView":1,"componentType":5126,"count":41997,"type":"VEC4","byteOffset":24},{"bufferView":1,"componentType":5126,"count":41997,"type":"VEC2","byteOffset":40},{"bufferView":1,"componentType":5126,"count":41997,"type":"VEC2","byteOffset":48},{"bufferView":0,"componentType":5123,"count":324,"type":"SCALAR"},{"bufferView":0,"componentType":5123,"count":1008,"type":"SCALAR","byteOffset":648},{"bufferView":0,"componentType":5123,"count":5328,"type":"SCALAR","byteOffset":2664},{"bufferView":0,"componentType":5123,"count":1146,"type":"SCALAR","byteOffset":13320},{"bufferView":0,"componentType":5123,"count":1644,"type":"SCALAR","byteOffset":15612},{"bufferView":0,"componentType":5123,"count":13140,"type":"SCALAR","byteOffset":18900},{"bufferView":0,"componentType":5123,"count":7530,"type":"SCALAR","byteOffset":45180},{"bufferView":0,"componentType":5123,"count":7776,"type":"SCALAR","byteOffset":60240},{"bufferView":0,"componentType":5123,"count":9720,"type":"SCALAR","byteOffset":75792},{"bufferView":0,"componentType":5123,"count":6072,"type":"SCALAR","byteOffset":95232},{"bufferView":0,"componentType":5123,"count":2100,"type":"SCALAR","byteOffset":107376},{"bufferView":0,"componentType":5123,"count":1878,"type":"SCALAR","byteOffset":111576},{"bufferView":0,"componentType":5123,"count":1704,"type":"SCALAR","byteOffset":115332},{"bufferView":0,"componentType":5123,"count":372,"type":"SCALAR","byteOffset":118740},{"bufferView":0,"componentType":5123,"count":480,"type":"SCALAR","byteOffset":119484},{"bufferView":0,"componentType":5123,"count":1266,"type":"SCALAR","byteOffset":120444},{"bufferView":0,"componentType":5123,"count":432,"type":"SCALAR","byteOffset":122976},{"bufferView":0,"componentType":5123,"count":792,"type":"SCALAR","byteOffset":123840}],"images":[{"name":"T_ENV_MOD_Interior_PlanksShort_02_N.png","uri":"T_ENV_MOD_Interior_PlanksShort_02_N.png","mimeType":"image/png"},{"name":"T_ENV_MOD_Interior_PlanksShort_02_v2_BC.jpg","uri":"T_ENV_MOD_Interior_PlanksShort_02_v2_BC.jpg","mimeType":"image/jpeg"},{"name":"T_ENV_MOD_Interior_PlanksShort_02_v1_MTSM.jpg","uri":"T_ENV_MOD_Interior_PlanksShort_02_v1_MTSM.jpg","mimeType":"image/jpeg"},{"name":"T_ENV_MOD_Wall_01_v1_N.png","uri":"T_ENV_MOD_Wall_01_v1_N.png","mimeType":"image/png"},{"name":"T_ENV_MOD_Wall_01_v1_BC.jpg","uri":"T_ENV_MOD_Wall_01_v1_BC.jpg","mimeType":"image/jpeg"},{"name":"T_ENV_MOD_Wall_01_v1_MTSM.jpg","uri":"T_ENV_MOD_Wall_01_v1_MTSM.jpg","mimeType":"image/jpeg"},{"name":"T_ENV_MOD_StoneStack_01_v3_N.png","uri":"T_ENV_MOD_StoneStack_01_v3_N.png","mimeType":"image/png"},{"name":"T_ENV_MOD_StoneStack_01_v3_BC.jpg","uri":"T_ENV_MOD_StoneStack_01_v3_BC.jpg","mimeType":"image/jpeg"},{"name":"T_ENV_MOD_StoneStack_01_v3_MTSM.jpg","uri":"T_ENV_MOD_StoneStack_01_v3_MTSM.jpg","mimeType":"image/jpeg"},{"name":"T_wood_planks_dungeon_03_N.png","uri":"T_wood_planks_dungeon_03_N.png","mimeType":"image/png"},{"name":"T_wood_planks_dungeon_03_BC.jpg","uri":"T_wood_planks_dungeon_03_BC.jpg","mimeType":"image/jpeg"},{"name":"T_wood_planks_dungeon_03_MTSM_nometal.jpg","uri":"T_wood_planks_dungeon_03_MTSM_nometal.jpg","mimeType":"image/jpeg"},{"name":"T_PROP_bed_interior_BC.jpg","uri":"T_PROP_bed_interior_BC.jpg","mimeType":"image/jpeg"},{"name":"T_PROP_wood_planks_interior_01_BC.jpg","uri":"T_PROP_wood_planks_interior_01_BC.jpg","mimeType":"image/jpeg"},{"name":"T_PROP_frames_interior_BC.jpg","uri":"T_PROP_frames_interior_BC.jpg","mimeType":"image/jpeg"},{"name":"T_PROP_fabrics_interior_BC.jpg","uri":"T_PROP_fabrics_interior_BC.jpg","mimeType":"image/jpeg"},{"name":"T_PROP_metal_interior_E.jpg","uri":"T_PROP_metal_interior_E.jpg","mimeType":"image/jpeg"},{"name":"T_PROP_metal_interior_BC.jpg","uri":"T_PROP_metal_interior_BC.jpg","mimeType":"image/jpeg"},{"name":"T_PROP_plant_interior_BC.jpg","uri":"T_PROP_plant_interior_BC.jpg","mimeType":"image/jpeg"},{"name":"T_PROP_items_interior_02_BC.jpg","uri":"T_PROP_items_interior_02_BC.jpg","mimeType":"image/jpeg"},{"name":"T_PROP_fireplaces_interior_BC.jpg","uri":"T_PROP_fireplaces_interior_BC.jpg","mimeType":"image/jpeg"},{"name":"T_PROP_items_interior_03_BC.jpg","uri":"T_PROP_items_interior_03_BC.jpg","mimeType":"image/jpeg"},{"name":"T_ENV_MOD_Interior_gateway_E.jpg","uri":"T_ENV_MOD_Interior_gateway_E.jpg","mimeType":"image/jpeg"},{"name":"T_ENV_MOD_Interior_gateway_BC.jpg","uri":"T_ENV_MOD_Interior_gateway_BC.jpg","mimeType":"image/jpeg"},{"name":"T_PROP_items_interior_01_BC.jpg","uri":"T_PROP_items_interior_01_BC.jpg","mimeType":"image/jpeg"},{"name":"T_PROP_candle _dungeon_BC.jpg","uri":"T_PROP_candle _dungeon_BC.jpg","mimeType":"image/jpeg"},{"name":"T_PROP_books_dungeon_BC.jpg","uri":"T_PROP_books_dungeon_BC.jpg","mimeType":"image/jpeg"},{"name":"T_PROP_orevein_dungeon_N.png","uri":"T_PROP_orevein_dungeon_N.png","mimeType":"image/png"},{"name":"T_PROP_orevein_dungeon_BC.jpg","uri":"T_PROP_orevein_dungeon_BC.jpg","mimeType":"image/jpeg"},{"name":"T_PROP_orevein_dungeon_MTSM.jpg","uri":"T_PROP_orevein_dungeon_MTSM.jpg","mimeType":"image/jpeg"}],"materials":[{"name":"M_ENV_MOD_Interior_PlanksShort_02_v2","pbrMetallicRoughness":{"baseColorTexture":{"index":1},"metallicRoughnessTexture":{"index":2}},"normalTexture":{"index":0}},{"name":"M_MOD_Wall_01_v1","pbrMetallicRoughness":{"roughnessFactor":0,"baseColorTexture":{"index":4},"metallicRoughnessTexture":{"index":5}},"normalTexture":{"index":3,"scale":1.82}},{"name":"M_MOD_Trim_Stone_01_v3","pbrMetallicRoughness":{"roughnessFactor":0,"baseColorTexture":{"index":7},"metallicRoughnessTexture":{"index":8}},"normalTexture":{"index":6}},{"name":"M_wood_planks_dungeon_03","pbrMetallicRoughness":{"roughnessFactor":0,"baseColorTexture":{"index":10},"metallicRoughnessTexture":{"index":11}},"normalTexture":{"index":9}},{"name":"M_PROP_bed_interior","pbrMetallicRoughness":{"metallicFactor":0,"baseColorTexture":{"index":12}}},{"name":"M_PROP_wood_planks_interior_01","pbrMetallicRoughness":{"metallicFactor":0,"baseColorTexture":{"index":13}}},{"name":"M_PROP_frames_interior","pbrMetallicRoughness":{"metallicFactor":0,"baseColorTexture":{"index":14}}},{"name":"M_PROP_fabrics_interior","pbrMetallicRoughness":{"metallicFactor":0,"baseColorTexture":{"index":15}},"doubleSided":true},{"name":"M_PROP_metal_interior","pbrMetallicRoughness":{"metallicFactor":0,"baseColorTexture":{"index":17}},"emissiveTexture":{"index":16},"emissiveFactor":[1,0.447957,0.07655142]},{"name":"M_PROP_plant_interior","pbrMetallicRoughness":{"metallicFactor":0,"baseColorTexture":{"index":18}}},{"name":"M_PROP_items_interior_02","pbrMetallicRoughness":{"metallicFactor":0,"baseColorTexture":{"index":19}}},{"name":"M_PROP_fireplaces_interior","pbrMetallicRoughness":{"metallicFactor":0,"baseColorTexture":{"index":20}}},{"name":"M_PROP_items_interior_03","pbrMetallicRoughness":{"metallicFactor":0,"baseColorTexture":{"index":21}}},{"name":"M_ENV_MOD_gateway_interior_01","pbrMetallicRoughness":{"metallicFactor":0,"baseColorTexture":{"index":23}},"emissiveTexture":{"index":22},"emissiveFactor":[1,0.575985134,0.09714398]},{"name":"M_PROP_items_interior_01","pbrMetallicRoughness":{"metallicFactor":0,"baseColorTexture":{"index":24}}},{"name":"M_PROP_candle_dungeon","pbrMetallicRoughness":{"metallicFactor":0,"baseColorTexture":{"index":25}}},{"name":"M_PROP_books_dungeon","pbrMetallicRoughness":{"metallicFactor":0,"baseColorTexture":{"index":26}},"doubleSided":true},{"name":"M_PROP_orevein_dungeon","pbrMetallicRoughness":{"roughnessFactor":0,"baseColorTexture":{"index":28},"metallicRoughnessTexture":{"index":29}},"normalTexture":{"index":27}}],"meshes":[{"name":"pb_Mesh-665192","primitives":[{"attributes":{"POSITION":0,"NORMAL":1,"TANGENT":2,"TEXCOORD_0":3,"TEXCOORD_1":4},"indices":5,"material":0},{"attributes":{"POSITION":0,"NORMAL":1,"TANGENT":2,"TEXCOORD_0":3,"TEXCOORD_1":4},"indices":6,"material":1},{"attributes":{"POSITION":0,"NORMAL":1,"TANGENT":2,"TEXCOORD_0":3,"TEXCOORD_1":4},"indices":7,"material":2},{"attributes":{"POSITION":0,"NORMAL":1,"TANGENT":2,"TEXCOORD_0":3,"TEXCOORD_1":4},"indices":8,"material":3},{"attributes":{"POSITION":0,"NORMAL":1,"TANGENT":2,"TEXCOORD_0":3,"TEXCOORD_1":4},"indices":9,"material":4},{"attributes":{"POSITION":0,"NORMAL":1,"TANGENT":2,"TEXCOORD_0":3,"TEXCOORD_1":4},"indices":10,"material":5},{"attributes":{"POSITION":0,"NORMAL":1,"TANGENT":2,"TEXCOORD_0":3,"TEXCOORD_1":4},"indices":11,"material":6},{"attributes":{"POSITION":0,"NORMAL":1,"TANGENT":2,"TEXCOORD_0":3,"TEXCOORD_1":4},"indices":12,"material":7},{"attributes":{"POSITION":0,"NORMAL":1,"TANGENT":2,"TEXCOORD_0":3,"TEXCOORD_1":4},"indices":13,"material":8},{"attributes":{"POSITION":0,"NORMAL":1,"TANGENT":2,"TEXCOORD_0":3,"TEXCOORD_1":4},"indices":14,"material":9},{"attributes":{"POSITION":0,"NORMAL":1,"TANGENT":2,"TEXCOORD_0":3,"TEXCOORD_1":4},"indices":15,"material":10},{"attributes":{"POSITION":0,"NORMAL":1,"TANGENT":2,"TEXCOORD_0":3,"TEXCOORD_1":4},"indices":16,"material":11},{"attributes":{"POSITION":0,"NORMAL":1,"TANGENT":2,"TEXCOORD_0":3,"TEXCOORD_1":4},"indices":17,"material":12},{"attributes":{"POSITION":0,"NORMAL":1,"TANGENT":2,"TEXCOORD_0":3,"TEXCOORD_1":4},"indices":18,"material":13},{"attributes":{"POSITION":0,"NORMAL":1,"TANGENT":2,"TEXCOORD_0":3,"TEXCOORD_1":4},"indices":19,"material":14},{"attributes":{"POSITION":0,"NORMAL":1,"TANGENT":2,"TEXCOORD_0":3,"TEXCOORD_1":4},"indices":20,"material":15},{"attributes":{"POSITION":0,"NORMAL":1,"TANGENT":2,"TEXCOORD_0":3,"TEXCOORD_1":4},"indices":21,"material":16},{"attributes":{"POSITION":0,"NORMAL":1,"TANGENT":2,"TEXCOORD_0":3,"TEXCOORD_1":4},"indices":22,"material":17}]}],"scene":0,"scenes":[{"name":"P_MOD_Floor_02_E_straight_med (4)","nodes":[0]}],"textures":[{"source":0},{"source":1},{"source":2},{"source":3},{"source":4},{"source":5},{"source":6},{"source":7},{"source":8},{"source":9},{"source":10},{"source":11},{"source":12},{"source":13},{"source":14},{"source":15},{"source":16},{"source":17},{"source":18},{"source":19},{"source":20},{"source":21},{"source":22},{"source":23},{"source":24},{"source":25},{"source":26},{"source":27},{"source":28},{"source":29}]}