{"asset":{"version":"2.0","generator":"Unity 6000.2.9f1 glTFast 6.15.1"},"nodes":[{"name":"Cube (16)","mesh":0,"translation":[-52.11,1.68,0.23]}],"buffers":[{"uri":"Path.bin","byteLength":2448}],"bufferViews":[{"buffer":0,"byteLength":144,"target":34963},{"buffer":0,"byteLength":2304,"byteOffset":144,"byteStride":48,"target":34962}],"accessors":[{"bufferView":1,"componentType":5126,"count":48,"type":"VEC3","max":[1,0.27309984,2.812169],"min":[-7.119995,-0.27309984,-2.735393]},{"bufferView":1,"componentType":5126,"count":48,"type":"VEC3","byteOffset":12},{"bufferView":1,"componentType":5126,"count":48,"type":"VEC4","byteOffset":24},{"bufferView":1,"componentType":5126,"count":48,"type":"VEC2","byteOffset":40},{"bufferView":0,"componentType":5123,"count":72,"type":"SCALAR"}],"materials":[{"name":"EspectralPath","pbrMetallicRoughness":{"baseColorFactor":[0,0.936659038,0.957614,0.192156866],"metallicFactor":0.53,"roughnessFactor":0.5},"emissiveFactor":[0.3160377,0.86320734,1],"alphaMode":"BLEND"}],"meshes":[{"name":"pb_Mesh-90254(Clone)(Clone)","primitives":[{"attributes":{"POSITION":0,"NORMAL":1,"TANGENT":2,"TEXCOORD_0":3},"indices":4,"material":0}]}],"scene":0,"scenes":[{"name":"Cube (16)","nodes":[0]}]}