{"asset":{"version":"2.0","generator":"Unity 6000.2.9f1 glTFast 6.15.1"},"nodes":[{"name":"P_MOD_Floor_01_O_straight_med (9)","mesh":0,"translation":[-9.29871,5.73,-3.4334],"rotation":[0,-1,0,-5.8114523E-07]}],"buffers":[{"uri":"SecretPath.bin","byteLength":1684384}],"bufferViews":[{"buffer":0,"byteLength":83736,"target":34963},{"buffer":0,"byteLength":1600648,"byteOffset":83736,"byteStride":56,"target":34962}],"accessors":[{"bufferView":1,"componentType":5126,"count":28583,"type":"VEC3","max":[13.8073578,8.109665,17.7800121],"min":[-13.2562218,-9.417,-14.1090145]},{"bufferView":1,"componentType":5126,"count":28583,"type":"VEC3","byteOffset":12},{"bufferView":1,"componentType":5126,"count":28583,"type":"VEC4","byteOffset":24},{"bufferView":1,"componentType":5126,"count":28583,"type":"VEC2","byteOffset":40},{"bufferView":1,"componentType":5126,"count":28583,"type":"VEC2","byteOffset":48},{"bufferView":0,"componentType":5123,"count":306,"type":"SCALAR"},{"bufferView":0,"componentType":5123,"count":420,"type":"SCALAR","byteOffset":612},{"bufferView":0,"componentType":5123,"count":2166,"type":"SCALAR","byteOffset":1452},{"bufferView":0,"componentType":5123,"count":4932,"type":"SCALAR","byteOffset":5784},{"bufferView":0,"componentType":5123,"count":25416,"type":"SCALAR","byteOffset":15648},{"bufferView":0,"componentType":5123,"count":8520,"type":"SCALAR","byteOffset":66480},{"bufferView":0,"componentType":5123,"count":84,"type":"SCALAR","byteOffset":83520},{"bufferView":0,"componentType":5123,"count":24,"type":"SCALAR","byteOffset":83688}],"images":[{"name":"T_ENV_MOD_Floor_01_v3_N.png","uri":"T_ENV_MOD_Floor_01_v3_N.png","mimeType":"image/png"},{"name":"T_ENV_MOD_Floor_01_v3_BC.jpg","uri":"T_ENV_MOD_Floor_01_v3_BC.jpg","mimeType":"image/jpeg"},{"name":"T_ENV_MOD_Floor_01_v3_MTSM.jpg","uri":"T_ENV_MOD_Floor_01_v3_MTSM.jpg","mimeType":"image/jpeg"},{"name":"T_PROP_orevein_dungeon_N.png","uri":"T_PROP_orevein_dungeon_N.png","mimeType":"image/png"},{"name":"T_PROP_orevein_dungeon_BC.jpg","uri":"T_PROP_orevein_dungeon_BC.jpg","mimeType":"image/jpeg"},{"name":"T_PROP_orevein_dungeon_MTSM.jpg","uri":"T_PROP_orevein_dungeon_MTSM.jpg","mimeType":"image/jpeg"},{"name":"T_ENV_MOD_Wall_01_v3_N.png","uri":"T_ENV_MOD_Wall_01_v3_N.png","mimeType":"image/png"},{"name":"T_ENV_MOD_Wall_01_v3_BC.jpg","uri":"T_ENV_MOD_Wall_01_v3_BC.jpg","mimeType":"image/jpeg"},{"name":"T_ENV_MOD_Wall_01_v3_MTSM.jpg","uri":"T_ENV_MOD_Wall_01_v3_MTSM.jpg","mimeType":"image/jpeg"},{"name":"T_ENV_MOD_StoneStack_01_v3_N.png","uri":"T_ENV_MOD_StoneStack_01_v3_N.png","mimeType":"image/png"},{"name":"T_ENV_MOD_StoneStack_01_v3_BC.jpg","uri":"T_ENV_MOD_StoneStack_01_v3_BC.jpg","mimeType":"image/jpeg"},{"name":"T_ENV_MOD_StoneStack_01_v3_MTSM.jpg","uri":"T_ENV_MOD_StoneStack_01_v3_MTSM.jpg","mimeType":"image/jpeg"},{"name":"T_metal_dungeon_N.png","uri":"T_metal_dungeon_N.png","mimeType":"image/png"},{"name":"T_metal_dungeon_01_BC.jpg","uri":"T_metal_dungeon_01_BC.jpg","mimeType":"image/jpeg"},{"name":"T_metal_dungeon_MTSM_nometal.jpg","uri":"T_metal_dungeon_MTSM_nometal.jpg","mimeType":"image/jpeg"},{"name":"T_PROP_vegetation_dungeon_BC.png","uri":"T_PROP_vegetation_dungeon_BC.png","mimeType":"image/png"},{"name":"T_PROP_spiderweb_dungeon_BC.png","uri":"T_PROP_spiderweb_dungeon_BC.png","mimeType":"image/png"}],"materials":[{"name":"M_MOD_Floor_01_v3","pbrMetallicRoughness":{"roughnessFactor":0,"baseColorTexture":{"index":1},"metallicRoughnessTexture":{"index":2}},"normalTexture":{"index":0}},{"name":"EspectralPath","pbrMetallicRoughness":{"baseColorFactor":[0,0.936659038,0.957614,0.192156866],"metallicFactor":0.53,"roughnessFactor":0.5},"emissiveFactor":[0.3160377,0.86320734,1],"alphaMode":"BLEND"},{"name":"M_PROP_orevein_dungeon","pbrMetallicRoughness":{"roughnessFactor":0,"baseColorTexture":{"index":4},"metallicRoughnessTexture":{"index":5}},"normalTexture":{"index":3}},{"name":"M_MOD_Wall_01_v3","pbrMetallicRoughness":{"roughnessFactor":0,"baseColorTexture":{"index":7},"metallicRoughnessTexture":{"index":8}},"normalTexture":{"index":6,"scale":1.82}},{"name":"M_MOD_Trim_Stone_01_v3","pbrMetallicRoughness":{"roughnessFactor":0,"baseColorTexture":{"index":10},"metallicRoughnessTexture":{"index":11}},"normalTexture":{"index":9}},{"name":"M_metal_dungeon_01","pbrMetallicRoughness":{"roughnessFactor":0,"baseColorTexture":{"index":13},"metallicRoughnessTexture":{"index":14}},"normalTexture":{"index":12}},{"name":"M_PROP_vegetation_dungeon","pbrMetallicRoughness":{"metallicFactor":0,"baseColorTexture":{"index":15}},"alphaMode":"MASK","alphaCutoff":0.506,"doubleSided":true},{"name":"M_PROP_spiderweb_dungeon","pbrMetallicRoughness":{"baseColorFactor":[0.432035774,0.432035774,0.432035774,1],"metallicFactor":0,"baseColorTexture":{"index":16}},"alphaMode":"BLEND","doubleSided":true}],"meshes":[{"name":"pb_Mesh-383580","primitives":[{"attributes":{"POSITION":0,"NORMAL":1,"TANGENT":2,"TEXCOORD_0":3,"TEXCOORD_1":4},"indices":5,"material":0},{"attributes":{"POSITION":0,"NORMAL":1,"TANGENT":2,"TEXCOORD_0":3,"TEXCOORD_1":4},"indices":6,"material":1},{"attributes":{"POSITION":0,"NORMAL":1,"TANGENT":2,"TEXCOORD_0":3,"TEXCOORD_1":4},"indices":7,"material":2},{"attributes":{"POSITION":0,"NORMAL":1,"TANGENT":2,"TEXCOORD_0":3,"TEXCOORD_1":4},"indices":8,"material":3},{"attributes":{"POSITION":0,"NORMAL":1,"TANGENT":2,"TEXCOORD_0":3,"TEXCOORD_1":4},"indices":9,"material":4},{"attributes":{"POSITION":0,"NORMAL":1,"TANGENT":2,"TEXCOORD_0":3,"TEXCOORD_1":4},"indices":10,"material":5},{"attributes":{"POSITION":0,"NORMAL":1,"TANGENT":2,"TEXCOORD_0":3,"TEXCOORD_1":4},"indices":11,"material":6},{"attributes":{"POSITION":0,"NORMAL":1,"TANGENT":2,"TEXCOORD_0":3,"TEXCOORD_1":4},"indices":12,"material":7}]}],"samplers":[{"wrapS":33071,"wrapT":33071}],"scene":0,"scenes":[{"name":"P_MOD_Floor_01_O_straight_med (9)","nodes":[0]}],"textures":[{"source":0},{"source":1},{"source":2},{"source":3},{"source":4},{"source":5},{"source":6},{"source":7},{"source":8},{"source":9},{"source":10},{"source":11},{"source":12},{"source":13},{"source":14},{"source":15,"sampler":0},{"source":16,"sampler":0}]}