{"asset":{"version":"2.0","generator":"Unity 6000.2.9f1 glTFast 6.15.1"},"nodes":[{"name":"ServantsQuartet","mesh":0,"translation":[-49.89,1.01,-40.23],"rotation":[0,0.6255465,0,0.780186832]}],"buffers":[{"uri":"ServantsQuartet.bin","byteLength":3255964}],"bufferViews":[{"buffer":0,"byteLength":164988,"target":34963},{"buffer":0,"byteLength":3090976,"byteOffset":164988,"byteStride":56,"target":34962}],"accessors":[{"bufferView":1,"componentType":5126,"count":55196,"type":"VEC3","max":[2.49700356,5.955,10.7799358],"min":[-16.96014,-0.5,-5.55534172]},{"bufferView":1,"componentType":5126,"count":55196,"type":"VEC3","byteOffset":12},{"bufferView":1,"componentType":5126,"count":55196,"type":"VEC4","byteOffset":24},{"bufferView":1,"componentType":5126,"count":55196,"type":"VEC2","byteOffset":40},{"bufferView":1,"componentType":5126,"count":55196,"type":"VEC2","byteOffset":48},{"bufferView":0,"componentType":5123,"count":10554,"type":"SCALAR"},{"bufferView":0,"componentType":5123,"count":432,"type":"SCALAR","byteOffset":21108},{"bufferView":0,"componentType":5123,"count":360,"type":"SCALAR","byteOffset":21972},{"bufferView":0,"componentType":5123,"count":4086,"type":"SCALAR","byteOffset":22692},{"bufferView":0,"componentType":5123,"count":690,"type":"SCALAR","byteOffset":30864},{"bufferView":0,"componentType":5123,"count":9666,"type":"SCALAR","byteOffset":32244},{"bufferView":0,"componentType":5123,"count":8274,"type":"SCALAR","byteOffset":51576},{"bufferView":0,"componentType":5123,"count":15300,"type":"SCALAR","byteOffset":68124},{"bufferView":0,"componentType":5123,"count":744,"type":"SCALAR","byteOffset":98724},{"bufferView":0,"componentType":5123,"count":6048,"type":"SCALAR","byteOffset":100212},{"bufferView":0,"componentType":5123,"count":720,"type":"SCALAR","byteOffset":112308},{"bufferView":0,"componentType":5123,"count":1974,"type":"SCALAR","byteOffset":113748},{"bufferView":0,"componentType":5123,"count":2400,"type":"SCALAR","byteOffset":117696},{"bufferView":0,"componentType":5123,"count":3432,"type":"SCALAR","byteOffset":122496},{"bufferView":0,"componentType":5123,"count":7128,"type":"SCALAR","byteOffset":129360},{"bufferView":0,"componentType":5123,"count":1188,"type":"SCALAR","byteOffset":143616},{"bufferView":0,"componentType":5123,"count":8010,"type":"SCALAR","byteOffset":145992},{"bufferView":0,"componentType":5123,"count":1440,"type":"SCALAR","byteOffset":162012},{"bufferView":0,"componentType":5123,"count":48,"type":"SCALAR","byteOffset":164892}],"images":[{"name":"T_PROP_candle _dungeon_BC.jpg","uri":"T_PROP_candle _dungeon_BC.jpg","mimeType":"image/jpeg"},{"name":"T_ENV_MOD_Interior_PlanksShort_02_N.png","uri":"T_ENV_MOD_Interior_PlanksShort_02_N.png","mimeType":"image/png"},{"name":"T_ENV_MOD_Interior_PlanksShort_02_v2_BC.jpg","uri":"T_ENV_MOD_Interior_PlanksShort_02_v2_BC.jpg","mimeType":"image/jpeg"},{"name":"T_ENV_MOD_Interior_PlanksShort_02_v1_MTSM.jpg","uri":"T_ENV_MOD_Interior_PlanksShort_02_v1_MTSM.jpg","mimeType":"image/jpeg"},{"name":"T_ENV_MOD_Wall_01_v1_N.png","uri":"T_ENV_MOD_Wall_01_v1_N.png","mimeType":"image/png"},{"name":"T_ENV_MOD_Wall_01_v1_BC.jpg","uri":"T_ENV_MOD_Wall_01_v1_BC.jpg","mimeType":"image/jpeg"},{"name":"T_ENV_MOD_Wall_01_v1_MTSM.jpg","uri":"T_ENV_MOD_Wall_01_v1_MTSM.jpg","mimeType":"image/jpeg"},{"name":"T_ENV_MOD_StoneStack_01_v3_N.png","uri":"T_ENV_MOD_StoneStack_01_v3_N.png","mimeType":"image/png"},{"name":"T_ENV_MOD_StoneStack_01_v1_BC.jpg","uri":"T_ENV_MOD_StoneStack_01_v1_BC.jpg","mimeType":"image/jpeg"},{"name":"T_ENV_MOD_StoneStack_01_v3_MTSM.jpg","uri":"T_ENV_MOD_StoneStack_01_v3_MTSM.jpg","mimeType":"image/jpeg"},{"name":"T_ENV_MOD_StoneStack_01_v3_BC.jpg","uri":"T_ENV_MOD_StoneStack_01_v3_BC.jpg","mimeType":"image/jpeg"},{"name":"T_wood_planks_dungeon_03_N.png","uri":"T_wood_planks_dungeon_03_N.png","mimeType":"image/png"},{"name":"T_wood_planks_dungeon_03_BC.jpg","uri":"T_wood_planks_dungeon_03_BC.jpg","mimeType":"image/jpeg"},{"name":"T_wood_planks_dungeon_03_MTSM_nometal.jpg","uri":"T_wood_planks_dungeon_03_MTSM_nometal.jpg","mimeType":"image/jpeg"},{"name":"T_PROP_wood_planks_interior_01_BC.jpg","uri":"T_PROP_wood_planks_interior_01_BC.jpg","mimeType":"image/jpeg"},{"name":"T_PROP_fabrics_interior_BC.jpg","uri":"T_PROP_fabrics_interior_BC.jpg","mimeType":"image/jpeg"},{"name":"T_ENV_MOD_Interior_gateway_E.jpg","uri":"T_ENV_MOD_Interior_gateway_E.jpg","mimeType":"image/jpeg"},{"name":"T_ENV_MOD_Interior_gateway_BC.jpg","uri":"T_ENV_MOD_Interior_gateway_BC.jpg","mimeType":"image/jpeg"},{"name":"T_PROP_metal_interior_E.jpg","uri":"T_PROP_metal_interior_E.jpg","mimeType":"image/jpeg"},{"name":"T_PROP_metal_interior_BC.jpg","uri":"T_PROP_metal_interior_BC.jpg","mimeType":"image/jpeg"},{"name":"T_PROP_items_interior_01_BC.jpg","uri":"T_PROP_items_interior_01_BC.jpg","mimeType":"image/jpeg"},{"name":"T_PROP_items_interior_02_BC.jpg","uri":"T_PROP_items_interior_02_BC.jpg","mimeType":"image/jpeg"},{"name":"T_PROP_fireplaces_interior_BC.jpg","uri":"T_PROP_fireplaces_interior_BC.jpg","mimeType":"image/jpeg"},{"name":"T_PROP_frames_interior_BC.jpg","uri":"T_PROP_frames_interior_BC.jpg","mimeType":"image/jpeg"},{"name":"T_PROP_plant_interior_BC.jpg","uri":"T_PROP_plant_interior_BC.jpg","mimeType":"image/jpeg"},{"name":"T_wood_planks_dungeon_04_N.png","uri":"T_wood_planks_dungeon_04_N.png","mimeType":"image/png"},{"name":"T_wood_planks_dungeon_04_BC.jpg","uri":"T_wood_planks_dungeon_04_BC.jpg","mimeType":"image/jpeg"},{"name":"T_wood_planks_dungeon_04_MTSM.jpg","uri":"T_wood_planks_dungeon_04_MTSM.jpg","mimeType":"image/jpeg"},{"name":"T_PROP_books_dungeon_BC.jpg","uri":"T_PROP_books_dungeon_BC.jpg","mimeType":"image/jpeg"},{"name":"T_PROP_wood_planks_interior_02_BC.jpg","uri":"T_PROP_wood_planks_interior_02_BC.jpg","mimeType":"image/jpeg"},{"name":"T_PROP_chains_dungeon_BC.png","uri":"T_PROP_chains_dungeon_BC.png","mimeType":"image/png"}],"materials":[{"name":"M_PROP_candle_dungeon","pbrMetallicRoughness":{"metallicFactor":0,"baseColorTexture":{"index":0}}},{"name":"M_ENV_MOD_Interior_PlanksShort_02_v2","pbrMetallicRoughness":{"baseColorTexture":{"index":2},"metallicRoughnessTexture":{"index":3}},"normalTexture":{"index":1}},{"name":"M_MOD_Wall_01_v1","pbrMetallicRoughness":{"roughnessFactor":0,"baseColorTexture":{"index":5},"metallicRoughnessTexture":{"index":6}},"normalTexture":{"index":4,"scale":1.82}},{"name":"M_MOD_Trim_Stone_01_v3_clean","pbrMetallicRoughness":{"roughnessFactor":0,"baseColorTexture":{"index":8},"metallicRoughnessTexture":{"index":9}},"normalTexture":{"index":7}},{"name":"M_MOD_Trim_Stone_01_v3","pbrMetallicRoughness":{"roughnessFactor":0,"baseColorTexture":{"index":10},"metallicRoughnessTexture":{"index":9}},"normalTexture":{"index":7}},{"name":"M_wood_planks_dungeon_03","pbrMetallicRoughness":{"roughnessFactor":0,"baseColorTexture":{"index":12},"metallicRoughnessTexture":{"index":13}},"normalTexture":{"index":11}},{"name":"M_PROP_wood_planks_interior_01","pbrMetallicRoughness":{"metallicFactor":0,"baseColorTexture":{"index":14}}},{"name":"M_PROP_fabrics_interior","pbrMetallicRoughness":{"metallicFactor":0,"baseColorTexture":{"index":15}},"doubleSided":true},{"name":"M_ENV_MOD_gateway_interior_01","pbrMetallicRoughness":{"metallicFactor":0,"baseColorTexture":{"index":17}},"emissiveTexture":{"index":16},"emissiveFactor":[1,0.575985134,0.09714398]},{"name":"M_PROP_metal_interior","pbrMetallicRoughness":{"metallicFactor":0,"baseColorTexture":{"index":19}},"emissiveTexture":{"index":18},"emissiveFactor":[1,0.447957,0.07655142]},{"name":"M_PROP_items_interior_01","pbrMetallicRoughness":{"metallicFactor":0,"baseColorTexture":{"index":20}}},{"name":"M_PROP_items_interior_02","pbrMetallicRoughness":{"metallicFactor":0,"baseColorTexture":{"index":21}}},{"name":"M_PROP_fireplaces_interior","pbrMetallicRoughness":{"metallicFactor":0,"baseColorTexture":{"index":22}}},{"name":"M_PROP_frames_interior","pbrMetallicRoughness":{"metallicFactor":0,"baseColorTexture":{"index":23}}},{"name":"M_PROP_plant_interior","pbrMetallicRoughness":{"metallicFactor":0,"baseColorTexture":{"index":24}}},{"name":"M_wood_planks_dungeon_04","pbrMetallicRoughness":{"roughnessFactor":0,"baseColorTexture":{"index":26},"metallicRoughnessTexture":{"index":27}},"normalTexture":{"index":25}},{"name":"M_PROP_books_dungeon","pbrMetallicRoughness":{"metallicFactor":0,"baseColorTexture":{"index":28}},"doubleSided":true},{"name":"M_PROP_wood_planks_interior_02","pbrMetallicRoughness":{"metallicFactor":0,"baseColorTexture":{"index":29}}},{"name":"M_PROP_chains_dungeon","pbrMetallicRoughness":{"metallicFactor":0,"roughnessFactor":0.695,"baseColorTexture":{"index":30}},"alphaMode":"MASK","alphaCutoff":0.506,"doubleSided":true}],"meshes":[{"name":"pb_Mesh-199312","primitives":[{"attributes":{"POSITION":0,"NORMAL":1,"TANGENT":2,"TEXCOORD_0":3,"TEXCOORD_1":4},"indices":5,"material":0},{"attributes":{"POSITION":0,"NORMAL":1,"TANGENT":2,"TEXCOORD_0":3,"TEXCOORD_1":4},"indices":6,"material":1},{"attributes":{"POSITION":0,"NORMAL":1,"TANGENT":2,"TEXCOORD_0":3,"TEXCOORD_1":4},"indices":7,"material":2},{"attributes":{"POSITION":0,"NORMAL":1,"TANGENT":2,"TEXCOORD_0":3,"TEXCOORD_1":4},"indices":8,"material":3},{"attributes":{"POSITION":0,"NORMAL":1,"TANGENT":2,"TEXCOORD_0":3,"TEXCOORD_1":4},"indices":9,"material":4},{"attributes":{"POSITION":0,"NORMAL":1,"TANGENT":2,"TEXCOORD_0":3,"TEXCOORD_1":4},"indices":10,"material":5},{"attributes":{"POSITION":0,"NORMAL":1,"TANGENT":2,"TEXCOORD_0":3,"TEXCOORD_1":4},"indices":11,"material":6},{"attributes":{"POSITION":0,"NORMAL":1,"TANGENT":2,"TEXCOORD_0":3,"TEXCOORD_1":4},"indices":12,"material":7},{"attributes":{"POSITION":0,"NORMAL":1,"TANGENT":2,"TEXCOORD_0":3,"TEXCOORD_1":4},"indices":13,"material":8},{"attributes":{"POSITION":0,"NORMAL":1,"TANGENT":2,"TEXCOORD_0":3,"TEXCOORD_1":4},"indices":14,"material":9},{"attributes":{"POSITION":0,"NORMAL":1,"TANGENT":2,"TEXCOORD_0":3,"TEXCOORD_1":4},"indices":15,"material":10},{"attributes":{"POSITION":0,"NORMAL":1,"TANGENT":2,"TEXCOORD_0":3,"TEXCOORD_1":4},"indices":16,"material":11},{"attributes":{"POSITION":0,"NORMAL":1,"TANGENT":2,"TEXCOORD_0":3,"TEXCOORD_1":4},"indices":17,"material":12},{"attributes":{"POSITION":0,"NORMAL":1,"TANGENT":2,"TEXCOORD_0":3,"TEXCOORD_1":4},"indices":18,"material":13},{"attributes":{"POSITION":0,"NORMAL":1,"TANGENT":2,"TEXCOORD_0":3,"TEXCOORD_1":4},"indices":19,"material":14},{"attributes":{"POSITION":0,"NORMAL":1,"TANGENT":2,"TEXCOORD_0":3,"TEXCOORD_1":4},"indices":20,"material":15},{"attributes":{"POSITION":0,"NORMAL":1,"TANGENT":2,"TEXCOORD_0":3,"TEXCOORD_1":4},"indices":21,"material":16},{"attributes":{"POSITION":0,"NORMAL":1,"TANGENT":2,"TEXCOORD_0":3,"TEXCOORD_1":4},"indices":22,"material":17},{"attributes":{"POSITION":0,"NORMAL":1,"TANGENT":2,"TEXCOORD_0":3,"TEXCOORD_1":4},"indices":23,"material":18}]}],"scene":0,"scenes":[{"name":"ServantsQuartet","nodes":[0]}],"textures":[{"source":0},{"source":1},{"source":2},{"source":3},{"source":4},{"source":5},{"source":6},{"source":7},{"source":8},{"source":9},{"source":10},{"source":11},{"source":12},{"source":13},{"source":14},{"source":15},{"source":16},{"source":17},{"source":18},{"source":19},{"source":20},{"source":21},{"source":22},{"source":23},{"source":24},{"source":25},{"source":26},{"source":27},{"source":28},{"source":29},{"source":30}]}