{"asset":{"version":"2.0","generator":"Unity 6000.2.9f1 glTFast 6.15.1"},"nodes":[{"name":"StorageRoom2","mesh":0}],"buffers":[{"uri":"StorageRoom2.bin","byteLength":5027880}],"bufferViews":[{"buffer":0,"byteLength":585768,"target":34963},{"buffer":0,"byteLength":4442112,"byteOffset":585768,"byteStride":48,"target":34962}],"accessors":[{"bufferView":1,"componentType":5126,"count":92544,"type":"VEC3","max":[28.7506084,6.90432262,20.04],"min":[0,-0.480000019,-0.335380554]},{"bufferView":1,"componentType":5126,"count":92544,"type":"VEC3","byteOffset":12},{"bufferView":1,"componentType":5126,"count":92544,"type":"VEC4","byteOffset":24},{"bufferView":1,"componentType":5126,"count":92544,"type":"VEC2","byteOffset":40},{"bufferView":0,"componentType":5125,"count":29580,"type":"SCALAR"},{"bufferView":0,"componentType":5125,"count":2736,"type":"SCALAR","byteOffset":118320},{"bufferView":0,"componentType":5125,"count":9876,"type":"SCALAR","byteOffset":129264},{"bufferView":0,"componentType":5125,"count":7380,"type":"SCALAR","byteOffset":168768},{"bufferView":0,"componentType":5125,"count":2556,"type":"SCALAR","byteOffset":198288},{"bufferView":0,"componentType":5125,"count":1536,"type":"SCALAR","byteOffset":208512},{"bufferView":0,"componentType":5125,"count":234,"type":"SCALAR","byteOffset":214656},{"bufferView":0,"componentType":5125,"count":75408,"type":"SCALAR","byteOffset":215592},{"bufferView":0,"componentType":5125,"count":3408,"type":"SCALAR","byteOffset":517224},{"bufferView":0,"componentType":5125,"count":48,"type":"SCALAR","byteOffset":530856},{"bufferView":0,"componentType":5125,"count":1488,"type":"SCALAR","byteOffset":531048},{"bufferView":0,"componentType":5125,"count":4356,"type":"SCALAR","byteOffset":537000},{"bufferView":0,"componentType":5125,"count":3564,"type":"SCALAR","byteOffset":554424},{"bufferView":0,"componentType":5125,"count":3768,"type":"SCALAR","byteOffset":568680},{"bufferView":0,"componentType":5125,"count":24,"type":"SCALAR","byteOffset":583752},{"bufferView":0,"componentType":5125,"count":360,"type":"SCALAR","byteOffset":583848},{"bufferView":0,"componentType":5125,"count":120,"type":"SCALAR","byteOffset":585288}],"images":[{"name":"T_PROP_items_interior_03_BC.jpg","uri":"T_PROP_items_interior_03_BC.jpg","mimeType":"image/jpeg"},{"name":"T_PROP_frames_interior_BC.jpg","uri":"T_PROP_frames_interior_BC.jpg","mimeType":"image/jpeg"},{"name":"T_PROP_metal_interior_E.jpg","uri":"T_PROP_metal_interior_E.jpg","mimeType":"image/jpeg"},{"name":"T_PROP_metal_interior_BC.jpg","uri":"T_PROP_metal_interior_BC.jpg","mimeType":"image/jpeg"},{"name":"T_PROP_wood_planks_interior_01_BC.jpg","uri":"T_PROP_wood_planks_interior_01_BC.jpg","mimeType":"image/jpeg"},{"name":"T_PROP_fabrics_interior_BC.jpg","uri":"T_PROP_fabrics_interior_BC.jpg","mimeType":"image/jpeg"},{"name":"T_PROP_bed_interior_BC.jpg","uri":"T_PROP_bed_interior_BC.jpg","mimeType":"image/jpeg"},{"name":"T_PROP_vegetation_dungeon_BC.png","uri":"T_PROP_vegetation_dungeon_BC.png","mimeType":"image/png"},{"name":"T_wood_planks_dungeon_03_N.png","uri":"T_wood_planks_dungeon_03_N.png","mimeType":"image/png"},{"name":"T_wood_planks_dungeon_03_BC.jpg","uri":"T_wood_planks_dungeon_03_BC.jpg","mimeType":"image/jpeg"},{"name":"T_wood_planks_dungeon_03_MTSM_nometal.jpg","uri":"T_wood_planks_dungeon_03_MTSM_nometal.jpg","mimeType":"image/jpeg"},{"name":"T_PROP_candle _dungeon_BC.jpg","uri":"T_PROP_candle _dungeon_BC.jpg","mimeType":"image/jpeg"},{"name":"T_PROP_chains_dungeon_BC.png","uri":"T_PROP_chains_dungeon_BC.png","mimeType":"image/png"},{"name":"T_PROP_sack_dungeon_BC.jpg","uri":"T_PROP_sack_dungeon_BC.jpg","mimeType":"image/jpeg"},{"name":"T_metal_dungeon_N.png","uri":"T_metal_dungeon_N.png","mimeType":"image/png"},{"name":"T_metal_dungeon_01_BC.jpg","uri":"T_metal_dungeon_01_BC.jpg","mimeType":"image/jpeg"},{"name":"T_metal_dungeon_MTSM_nometal.jpg","uri":"T_metal_dungeon_MTSM_nometal.jpg","mimeType":"image/jpeg"},{"name":"T_wood_planks_dungeon_01_N.png","uri":"T_wood_planks_dungeon_01_N.png","mimeType":"image/png"},{"name":"T_wood_planks_dungeon_01_BC.jpg","uri":"T_wood_planks_dungeon_01_BC.jpg","mimeType":"image/jpeg"},{"name":"T_wood_planks_dungeon_01_MTSM.jpg","uri":"T_wood_planks_dungeon_01_MTSM.jpg","mimeType":"image/jpeg"},{"name":"T_wood_planks_dungeon_02_N.png","uri":"T_wood_planks_dungeon_02_N.png","mimeType":"image/png"},{"name":"T_wood_planks_dungeon_02_BC.jpg","uri":"T_wood_planks_dungeon_02_BC.jpg","mimeType":"image/jpeg"},{"name":"T_wood_planks_dungeon_02_MTSM_nometal.jpg","uri":"T_wood_planks_dungeon_02_MTSM_nometal.jpg","mimeType":"image/jpeg"},{"name":"T_PROP_gold_dungeon_N.png","uri":"T_PROP_gold_dungeon_N.png","mimeType":"image/png"},{"name":"T_PROP_gold_dungeon_BC.jpg","uri":"T_PROP_gold_dungeon_BC.jpg","mimeType":"image/jpeg"},{"name":"T_PROP_gold_dungeon_MTSM_nometal.jpg","uri":"T_PROP_gold_dungeon_MTSM_nometal.jpg","mimeType":"image/jpeg"},{"name":"T_ENV_MOD_Interior_PlanksShort_02_N.png","uri":"T_ENV_MOD_Interior_PlanksShort_02_N.png","mimeType":"image/png"},{"name":"T_ENV_MOD_Interior_PlanksShort_02_v2_BC.jpg","uri":"T_ENV_MOD_Interior_PlanksShort_02_v2_BC.jpg","mimeType":"image/jpeg"},{"name":"T_ENV_MOD_Interior_PlanksShort_02_v1_MTSM.jpg","uri":"T_ENV_MOD_Interior_PlanksShort_02_v1_MTSM.jpg","mimeType":"image/jpeg"},{"name":"T_ENV_MOD_Floor_01_v3_N.png","uri":"T_ENV_MOD_Floor_01_v3_N.png","mimeType":"image/png"},{"name":"T_ENV_MOD_Floor_01_v1_BC.jpg","uri":"T_ENV_MOD_Floor_01_v1_BC.jpg","mimeType":"image/jpeg"},{"name":"T_ENV_MOD_Floor_01_v3_MTSM.jpg","uri":"T_ENV_MOD_Floor_01_v3_MTSM.jpg","mimeType":"image/jpeg"}],"materials":[{"name":"M_PROP_items_interior_03","pbrMetallicRoughness":{"metallicFactor":0,"baseColorTexture":{"index":0}}},{"name":"M_PROP_frames_interior","pbrMetallicRoughness":{"metallicFactor":0,"baseColorTexture":{"index":1}}},{"name":"M_PROP_metal_interior","pbrMetallicRoughness":{"metallicFactor":0,"baseColorTexture":{"index":3}},"emissiveTexture":{"index":2},"emissiveFactor":[1,0.447957,0.07655142]},{"name":"M_PROP_wood_planks_interior_01","pbrMetallicRoughness":{"metallicFactor":0,"baseColorTexture":{"index":4}}},{"name":"M_PROP_fabrics_interior","pbrMetallicRoughness":{"metallicFactor":0,"baseColorTexture":{"index":5}},"doubleSided":true},{"name":"M_PROP_bed_interior","pbrMetallicRoughness":{"metallicFactor":0,"baseColorTexture":{"index":6}}},{"name":"M_PROP_vegetation_dungeon","pbrMetallicRoughness":{"metallicFactor":0,"baseColorTexture":{"index":7}},"alphaMode":"MASK","alphaCutoff":0.506,"doubleSided":true},{"name":"M_wood_planks_dungeon_03","pbrMetallicRoughness":{"roughnessFactor":0,"baseColorTexture":{"index":9},"metallicRoughnessTexture":{"index":10}},"normalTexture":{"index":8}},{"name":"M_PROP_candle_dungeon","pbrMetallicRoughness":{"metallicFactor":0,"baseColorTexture":{"index":11}}},{"name":"M_PROP_chains_dungeon","pbrMetallicRoughness":{"metallicFactor":0,"roughnessFactor":0.695,"baseColorTexture":{"index":12}},"alphaMode":"MASK","alphaCutoff":0.506,"doubleSided":true},{"name":"M_PROP_sack_dungeon","pbrMetallicRoughness":{"metallicFactor":0,"baseColorTexture":{"index":13}}},{"name":"M_metal_dungeon_01","pbrMetallicRoughness":{"roughnessFactor":0,"baseColorTexture":{"index":15},"metallicRoughnessTexture":{"index":16}},"normalTexture":{"index":14}},{"name":"M_wood_planks_dungeon_01","pbrMetallicRoughness":{"roughnessFactor":0,"baseColorTexture":{"index":18},"metallicRoughnessTexture":{"index":19}},"normalTexture":{"index":17}},{"name":"M_wood_planks_dungeon_02","pbrMetallicRoughness":{"roughnessFactor":0,"baseColorTexture":{"index":21},"metallicRoughnessTexture":{"index":22}},"normalTexture":{"index":20}},{"name":"M_PROP_goldpile_dungeon","pbrMetallicRoughness":{"roughnessFactor":0,"baseColorTexture":{"index":24},"metallicRoughnessTexture":{"index":25}},"normalTexture":{"index":23}},{"name":"M_ENV_MOD_Interior_PlanksShort_02_v2","pbrMetallicRoughness":{"baseColorTexture":{"index":27},"metallicRoughnessTexture":{"index":28}},"normalTexture":{"index":26}},{"name":"M_MOD_Floor_01_v3_clean","pbrMetallicRoughness":{"roughnessFactor":0,"baseColorTexture":{"index":30},"metallicRoughnessTexture":{"index":31}},"normalTexture":{"index":29}}],"meshes":[{"name":"pb_Mesh-425728","primitives":[{"attributes":{"POSITION":0,"NORMAL":1,"TANGENT":2,"TEXCOORD_0":3},"indices":4,"material":0},{"attributes":{"POSITION":0,"NORMAL":1,"TANGENT":2,"TEXCOORD_0":3},"indices":5,"material":1},{"attributes":{"POSITION":0,"NORMAL":1,"TANGENT":2,"TEXCOORD_0":3},"indices":6,"material":2},{"attributes":{"POSITION":0,"NORMAL":1,"TANGENT":2,"TEXCOORD_0":3},"indices":7,"material":3},{"attributes":{"POSITION":0,"NORMAL":1,"TANGENT":2,"TEXCOORD_0":3},"indices":8,"material":4},{"attributes":{"POSITION":0,"NORMAL":1,"TANGENT":2,"TEXCOORD_0":3},"indices":9,"material":5},{"attributes":{"POSITION":0,"NORMAL":1,"TANGENT":2,"TEXCOORD_0":3},"indices":10,"material":6},{"attributes":{"POSITION":0,"NORMAL":1,"TANGENT":2,"TEXCOORD_0":3},"indices":11,"material":7},{"attributes":{"POSITION":0,"NORMAL":1,"TANGENT":2,"TEXCOORD_0":3},"indices":12,"material":8},{"attributes":{"POSITION":0,"NORMAL":1,"TANGENT":2,"TEXCOORD_0":3},"indices":13,"material":9},{"attributes":{"POSITION":0,"NORMAL":1,"TANGENT":2,"TEXCOORD_0":3},"indices":14,"material":10},{"attributes":{"POSITION":0,"NORMAL":1,"TANGENT":2,"TEXCOORD_0":3},"indices":15,"material":11},{"attributes":{"POSITION":0,"NORMAL":1,"TANGENT":2,"TEXCOORD_0":3},"indices":16,"material":12},{"attributes":{"POSITION":0,"NORMAL":1,"TANGENT":2,"TEXCOORD_0":3},"indices":17,"material":13},{"attributes":{"POSITION":0,"NORMAL":1,"TANGENT":2,"TEXCOORD_0":3},"indices":18,"material":14},{"attributes":{"POSITION":0,"NORMAL":1,"TANGENT":2,"TEXCOORD_0":3},"indices":19,"material":15},{"attributes":{"POSITION":0,"NORMAL":1,"TANGENT":2,"TEXCOORD_0":3},"indices":20,"material":16}]}],"samplers":[{"wrapS":33071,"wrapT":33071}],"scene":0,"scenes":[{"name":"StorageRoom2","nodes":[0]}],"textures":[{"source":0},{"source":1},{"source":2},{"source":3},{"source":4},{"source":5},{"source":6},{"source":7,"sampler":0},{"source":8},{"source":9},{"source":10},{"source":11},{"source":12},{"source":13},{"source":14},{"source":15},{"source":16},{"source":17},{"source":18},{"source":19},{"source":20},{"source":21},{"source":22},{"source":23},{"source":24},{"source":25},{"source":26},{"source":27},{"source":28},{"source":29},{"source":30},{"source":31}]}