{"asset":{"version":"2.0","generator":"Unity 6000.2.9f1 glTFast 6.15.1"},"nodes":[{"name":"StorageRoom2","mesh":0,"translation":[3.3,1.61112928,-45.22]}],"buffers":[{"uri":"StorageRoom2.bin","byteLength":5035632}],"bufferViews":[{"buffer":0,"byteLength":587520,"target":34963},{"buffer":0,"byteLength":4448112,"byteOffset":587520,"byteStride":48,"target":34962}],"accessors":[{"bufferView":1,"componentType":5126,"count":92669,"type":"VEC3","max":[7.726795,6.3331933,8.827797],"min":[-24.22771,-1.0089488,-12.1953812]},{"bufferView":1,"componentType":5126,"count":92669,"type":"VEC3","byteOffset":12},{"bufferView":1,"componentType":5126,"count":92669,"type":"VEC4","byteOffset":24},{"bufferView":1,"componentType":5126,"count":92669,"type":"VEC2","byteOffset":40},{"bufferView":0,"componentType":5125,"count":9540,"type":"SCALAR"},{"bufferView":0,"componentType":5125,"count":25812,"type":"SCALAR","byteOffset":38160},{"bufferView":0,"componentType":5125,"count":1656,"type":"SCALAR","byteOffset":141408},{"bufferView":0,"componentType":5125,"count":6708,"type":"SCALAR","byteOffset":148032},{"bufferView":0,"componentType":5125,"count":2556,"type":"SCALAR","byteOffset":174864},{"bufferView":0,"componentType":5125,"count":1536,"type":"SCALAR","byteOffset":185088},{"bufferView":0,"componentType":5125,"count":246,"type":"SCALAR","byteOffset":191232},{"bufferView":0,"componentType":5125,"count":12,"type":"SCALAR","byteOffset":192216},{"bufferView":0,"componentType":5125,"count":78846,"type":"SCALAR","byteOffset":192264},{"bufferView":0,"componentType":5125,"count":3408,"type":"SCALAR","byteOffset":507648},{"bufferView":0,"componentType":5125,"count":48,"type":"SCALAR","byteOffset":521280},{"bufferView":0,"componentType":5125,"count":1488,"type":"SCALAR","byteOffset":521472},{"bufferView":0,"componentType":5125,"count":4356,"type":"SCALAR","byteOffset":527424},{"bufferView":0,"componentType":5125,"count":3564,"type":"SCALAR","byteOffset":544848},{"bufferView":0,"componentType":5125,"count":3768,"type":"SCALAR","byteOffset":559104},{"bufferView":0,"componentType":5125,"count":24,"type":"SCALAR","byteOffset":574176},{"bufferView":0,"componentType":5125,"count":3168,"type":"SCALAR","byteOffset":574272},{"bufferView":0,"componentType":5125,"count":144,"type":"SCALAR","byteOffset":586944}],"images":[{"name":"T_PROP_metal_interior_E.jpg","uri":"T_PROP_metal_interior_E.jpg","mimeType":"image/jpeg"},{"name":"T_PROP_metal_interior_BC.jpg","uri":"T_PROP_metal_interior_BC.jpg","mimeType":"image/jpeg"},{"name":"T_PROP_items_interior_03_BC.jpg","uri":"T_PROP_items_interior_03_BC.jpg","mimeType":"image/jpeg"},{"name":"T_PROP_frames_interior_BC.jpg","uri":"T_PROP_frames_interior_BC.jpg","mimeType":"image/jpeg"},{"name":"T_PROP_wood_planks_interior_01_BC.jpg","uri":"T_PROP_wood_planks_interior_01_BC.jpg","mimeType":"image/jpeg"},{"name":"T_PROP_fabrics_interior_BC.jpg","uri":"T_PROP_fabrics_interior_BC.jpg","mimeType":"image/jpeg"},{"name":"T_PROP_bed_interior_BC.jpg","uri":"T_PROP_bed_interior_BC.jpg","mimeType":"image/jpeg"},{"name":"T_PROP_vegetation_dungeon_BC.png","uri":"T_PROP_vegetation_dungeon_BC.png","mimeType":"image/png"},{"name":"T_PROP_spiderweb_dungeon_BC.png","uri":"T_PROP_spiderweb_dungeon_BC.png","mimeType":"image/png"},{"name":"T_wood_planks_dungeon_03_N.png","uri":"T_wood_planks_dungeon_03_N.png","mimeType":"image/png"},{"name":"T_wood_planks_dungeon_03_BC.jpg","uri":"T_wood_planks_dungeon_03_BC.jpg","mimeType":"image/jpeg"},{"name":"T_wood_planks_dungeon_03_MTSM_nometal.jpg","uri":"T_wood_planks_dungeon_03_MTSM_nometal.jpg","mimeType":"image/jpeg"},{"name":"T_PROP_candle _dungeon_BC.jpg","uri":"T_PROP_candle _dungeon_BC.jpg","mimeType":"image/jpeg"},{"name":"T_PROP_chains_dungeon_BC.png","uri":"T_PROP_chains_dungeon_BC.png","mimeType":"image/png"},{"name":"T_PROP_sack_dungeon_BC.jpg","uri":"T_PROP_sack_dungeon_BC.jpg","mimeType":"image/jpeg"},{"name":"T_metal_dungeon_N.png","uri":"T_metal_dungeon_N.png","mimeType":"image/png"},{"name":"T_metal_dungeon_01_BC.jpg","uri":"T_metal_dungeon_01_BC.jpg","mimeType":"image/jpeg"},{"name":"T_metal_dungeon_MTSM_nometal.jpg","uri":"T_metal_dungeon_MTSM_nometal.jpg","mimeType":"image/jpeg"},{"name":"T_wood_planks_dungeon_01_N.png","uri":"T_wood_planks_dungeon_01_N.png","mimeType":"image/png"},{"name":"T_wood_planks_dungeon_01_BC.jpg","uri":"T_wood_planks_dungeon_01_BC.jpg","mimeType":"image/jpeg"},{"name":"T_wood_planks_dungeon_01_MTSM.jpg","uri":"T_wood_planks_dungeon_01_MTSM.jpg","mimeType":"image/jpeg"},{"name":"T_wood_planks_dungeon_02_N.png","uri":"T_wood_planks_dungeon_02_N.png","mimeType":"image/png"},{"name":"T_wood_planks_dungeon_02_BC.jpg","uri":"T_wood_planks_dungeon_02_BC.jpg","mimeType":"image/jpeg"},{"name":"T_wood_planks_dungeon_02_MTSM_nometal.jpg","uri":"T_wood_planks_dungeon_02_MTSM_nometal.jpg","mimeType":"image/jpeg"},{"name":"T_PROP_gold_dungeon_N.png","uri":"T_PROP_gold_dungeon_N.png","mimeType":"image/png"},{"name":"T_PROP_gold_dungeon_BC.jpg","uri":"T_PROP_gold_dungeon_BC.jpg","mimeType":"image/jpeg"},{"name":"T_PROP_gold_dungeon_MTSM_nometal.jpg","uri":"T_PROP_gold_dungeon_MTSM_nometal.jpg","mimeType":"image/jpeg"},{"name":"T_ENV_MOD_StoneStack_01_v3_N.png","uri":"T_ENV_MOD_StoneStack_01_v3_N.png","mimeType":"image/png"},{"name":"T_ENV_MOD_StoneStack_01_v3_BC.jpg","uri":"T_ENV_MOD_StoneStack_01_v3_BC.jpg","mimeType":"image/jpeg"},{"name":"T_ENV_MOD_StoneStack_01_v3_MTSM.jpg","uri":"T_ENV_MOD_StoneStack_01_v3_MTSM.jpg","mimeType":"image/jpeg"}],"materials":[{"name":"M_PROP_metal_interior","pbrMetallicRoughness":{"metallicFactor":0,"baseColorTexture":{"index":1}},"emissiveTexture":{"index":0},"emissiveFactor":[1,0.447957,0.07655142]},{"name":"M_PROP_items_interior_03","pbrMetallicRoughness":{"metallicFactor":0,"baseColorTexture":{"index":2}}},{"name":"M_PROP_frames_interior","pbrMetallicRoughness":{"metallicFactor":0,"baseColorTexture":{"index":3}}},{"name":"M_PROP_wood_planks_interior_01","pbrMetallicRoughness":{"metallicFactor":0,"baseColorTexture":{"index":4}}},{"name":"M_PROP_fabrics_interior","pbrMetallicRoughness":{"metallicFactor":0,"baseColorTexture":{"index":5}},"doubleSided":true},{"name":"M_PROP_bed_interior","pbrMetallicRoughness":{"metallicFactor":0,"baseColorTexture":{"index":6}}},{"name":"M_PROP_vegetation_dungeon","pbrMetallicRoughness":{"metallicFactor":0,"baseColorTexture":{"index":7}},"alphaMode":"MASK","alphaCutoff":0.506,"doubleSided":true},{"name":"M_PROP_spiderweb_dungeon","pbrMetallicRoughness":{"baseColorFactor":[0.432035774,0.432035774,0.432035774,1],"metallicFactor":0,"baseColorTexture":{"index":8}},"alphaMode":"BLEND","doubleSided":true},{"name":"M_wood_planks_dungeon_03","pbrMetallicRoughness":{"roughnessFactor":0,"baseColorTexture":{"index":10},"metallicRoughnessTexture":{"index":11}},"normalTexture":{"index":9}},{"name":"M_PROP_candle_dungeon","pbrMetallicRoughness":{"metallicFactor":0,"baseColorTexture":{"index":12}}},{"name":"M_PROP_chains_dungeon","pbrMetallicRoughness":{"metallicFactor":0,"roughnessFactor":0.695,"baseColorTexture":{"index":13}},"alphaMode":"MASK","alphaCutoff":0.506,"doubleSided":true},{"name":"M_PROP_sack_dungeon","pbrMetallicRoughness":{"metallicFactor":0,"baseColorTexture":{"index":14}}},{"name":"M_metal_dungeon_01","pbrMetallicRoughness":{"roughnessFactor":0,"baseColorTexture":{"index":16},"metallicRoughnessTexture":{"index":17}},"normalTexture":{"index":15}},{"name":"M_wood_planks_dungeon_01","pbrMetallicRoughness":{"roughnessFactor":0,"baseColorTexture":{"index":19},"metallicRoughnessTexture":{"index":20}},"normalTexture":{"index":18}},{"name":"M_wood_planks_dungeon_02","pbrMetallicRoughness":{"roughnessFactor":0,"baseColorTexture":{"index":22},"metallicRoughnessTexture":{"index":23}},"normalTexture":{"index":21}},{"name":"M_PROP_goldpile_dungeon","pbrMetallicRoughness":{"roughnessFactor":0,"baseColorTexture":{"index":25},"metallicRoughnessTexture":{"index":26}},"normalTexture":{"index":24}},{"name":"M_MOD_Trim_Stone_01_v3","pbrMetallicRoughness":{"roughnessFactor":0,"baseColorTexture":{"index":28},"metallicRoughnessTexture":{"index":29}},"normalTexture":{"index":27}},{"name":"EspectralPath","pbrMetallicRoughness":{"baseColorFactor":[0,0.936659038,0.957614,0.192156866],"metallicFactor":0.53,"roughnessFactor":0.5},"emissiveFactor":[0.3160377,0.86320734,1],"alphaMode":"BLEND"}],"meshes":[{"name":"pb_Mesh-136688","primitives":[{"attributes":{"POSITION":0,"NORMAL":1,"TANGENT":2,"TEXCOORD_0":3},"indices":4,"material":0},{"attributes":{"POSITION":0,"NORMAL":1,"TANGENT":2,"TEXCOORD_0":3},"indices":5,"material":1},{"attributes":{"POSITION":0,"NORMAL":1,"TANGENT":2,"TEXCOORD_0":3},"indices":6,"material":2},{"attributes":{"POSITION":0,"NORMAL":1,"TANGENT":2,"TEXCOORD_0":3},"indices":7,"material":3},{"attributes":{"POSITION":0,"NORMAL":1,"TANGENT":2,"TEXCOORD_0":3},"indices":8,"material":4},{"attributes":{"POSITION":0,"NORMAL":1,"TANGENT":2,"TEXCOORD_0":3},"indices":9,"material":5},{"attributes":{"POSITION":0,"NORMAL":1,"TANGENT":2,"TEXCOORD_0":3},"indices":10,"material":6},{"attributes":{"POSITION":0,"NORMAL":1,"TANGENT":2,"TEXCOORD_0":3},"indices":11,"material":7},{"attributes":{"POSITION":0,"NORMAL":1,"TANGENT":2,"TEXCOORD_0":3},"indices":12,"material":8},{"attributes":{"POSITION":0,"NORMAL":1,"TANGENT":2,"TEXCOORD_0":3},"indices":13,"material":9},{"attributes":{"POSITION":0,"NORMAL":1,"TANGENT":2,"TEXCOORD_0":3},"indices":14,"material":10},{"attributes":{"POSITION":0,"NORMAL":1,"TANGENT":2,"TEXCOORD_0":3},"indices":15,"material":11},{"attributes":{"POSITION":0,"NORMAL":1,"TANGENT":2,"TEXCOORD_0":3},"indices":16,"material":12},{"attributes":{"POSITION":0,"NORMAL":1,"TANGENT":2,"TEXCOORD_0":3},"indices":17,"material":13},{"attributes":{"POSITION":0,"NORMAL":1,"TANGENT":2,"TEXCOORD_0":3},"indices":18,"material":14},{"attributes":{"POSITION":0,"NORMAL":1,"TANGENT":2,"TEXCOORD_0":3},"indices":19,"material":15},{"attributes":{"POSITION":0,"NORMAL":1,"TANGENT":2,"TEXCOORD_0":3},"indices":20,"material":16},{"attributes":{"POSITION":0,"NORMAL":1,"TANGENT":2,"TEXCOORD_0":3},"indices":21,"material":17}]}],"samplers":[{"wrapS":33071,"wrapT":33071}],"scene":0,"scenes":[{"name":"StorageRoom2","nodes":[0]}],"textures":[{"source":0},{"source":1},{"source":2},{"source":3},{"source":4},{"source":5},{"source":6},{"source":7,"sampler":0},{"source":8,"sampler":0},{"source":9},{"source":10},{"source":11},{"source":12},{"source":13},{"source":14},{"source":15},{"source":16},{"source":17},{"source":18},{"source":19},{"source":20},{"source":21},{"source":22},{"source":23},{"source":24},{"source":25},{"source":26},{"source":27},{"source":28},{"source":29}]}