{"asset":{"version":"2.0","generator":"Unity 6000.2.9f1 glTFast 6.15.1"},"nodes":[{"name":"StorageRoom","mesh":0,"translation":[3.36,1.61112928,-50.11],"scale":[0.71716,0.71716,0.71716]}],"buffers":[{"uri":"StorageRoom.bin","byteLength":3215060}],"bufferViews":[{"buffer":0,"byteLength":190530,"target":34963},{"buffer":0,"byteLength":3024528,"byteOffset":190532,"byteStride":48,"target":34962}],"accessors":[{"bufferView":1,"componentType":5126,"count":63011,"type":"VEC3","max":[10.8034382,7.56995773,19.22555],"min":[-31.35673,-1.46568322,-10.8871059]},{"bufferView":1,"componentType":5126,"count":63011,"type":"VEC3","byteOffset":12},{"bufferView":1,"componentType":5126,"count":63011,"type":"VEC4","byteOffset":24},{"bufferView":1,"componentType":5126,"count":63011,"type":"VEC2","byteOffset":40},{"bufferView":0,"componentType":5123,"count":144,"type":"SCALAR"},{"bufferView":0,"componentType":5123,"count":360,"type":"SCALAR","byteOffset":288},{"bufferView":0,"componentType":5123,"count":150,"type":"SCALAR","byteOffset":1008},{"bufferView":0,"componentType":5123,"count":432,"type":"SCALAR","byteOffset":1308},{"bufferView":0,"componentType":5123,"count":10152,"type":"SCALAR","byteOffset":2172},{"bufferView":0,"componentType":5123,"count":504,"type":"SCALAR","byteOffset":22476},{"bufferView":0,"componentType":5123,"count":32949,"type":"SCALAR","byteOffset":23484},{"bufferView":0,"componentType":5123,"count":11562,"type":"SCALAR","byteOffset":89382},{"bufferView":0,"componentType":5123,"count":7536,"type":"SCALAR","byteOffset":112506},{"bufferView":0,"componentType":5123,"count":4356,"type":"SCALAR","byteOffset":127578},{"bufferView":0,"componentType":5123,"count":612,"type":"SCALAR","byteOffset":136290},{"bufferView":0,"componentType":5123,"count":4464,"type":"SCALAR","byteOffset":137514},{"bufferView":0,"componentType":5123,"count":912,"type":"SCALAR","byteOffset":146442},{"bufferView":0,"componentType":5123,"count":1386,"type":"SCALAR","byteOffset":148266},{"bufferView":0,"componentType":5123,"count":1686,"type":"SCALAR","byteOffset":151038},{"bufferView":0,"componentType":5123,"count":1992,"type":"SCALAR","byteOffset":154410},{"bufferView":0,"componentType":5123,"count":1224,"type":"SCALAR","byteOffset":158394},{"bufferView":0,"componentType":5123,"count":2640,"type":"SCALAR","byteOffset":160842},{"bufferView":0,"componentType":5123,"count":1188,"type":"SCALAR","byteOffset":166122},{"bufferView":0,"componentType":5123,"count":36,"type":"SCALAR","byteOffset":168498},{"bufferView":0,"componentType":5123,"count":2160,"type":"SCALAR","byteOffset":168570},{"bufferView":0,"componentType":5123,"count":8820,"type":"SCALAR","byteOffset":172890}],"images":[{"name":"T_ENV_MOD_Interior_PlanksShort_02_N.png","uri":"T_ENV_MOD_Interior_PlanksShort_02_N.png","mimeType":"image/png"},{"name":"T_ENV_MOD_Interior_PlanksShort_02_v2_BC.jpg","uri":"T_ENV_MOD_Interior_PlanksShort_02_v2_BC.jpg","mimeType":"image/jpeg"},{"name":"T_ENV_MOD_Interior_PlanksShort_02_v1_MTSM.jpg","uri":"T_ENV_MOD_Interior_PlanksShort_02_v1_MTSM.jpg","mimeType":"image/jpeg"},{"name":"T_ENV_MOD_Floor_01_v3_N.png","uri":"T_ENV_MOD_Floor_01_v3_N.png","mimeType":"image/png"},{"name":"T_ENV_MOD_Floor_01_v1_BC.jpg","uri":"T_ENV_MOD_Floor_01_v1_BC.jpg","mimeType":"image/jpeg"},{"name":"T_ENV_MOD_Floor_01_v3_MTSM.jpg","uri":"T_ENV_MOD_Floor_01_v3_MTSM.jpg","mimeType":"image/jpeg"},{"name":"T_ENV_MOD_Wall_01_v3_N.png","uri":"T_ENV_MOD_Wall_01_v3_N.png","mimeType":"image/png"},{"name":"T_ENV_MOD_Wall_01_v3_BC.jpg","uri":"T_ENV_MOD_Wall_01_v3_BC.jpg","mimeType":"image/jpeg"},{"name":"T_ENV_MOD_Wall_01_v3_MTSM.jpg","uri":"T_ENV_MOD_Wall_01_v3_MTSM.jpg","mimeType":"image/jpeg"},{"name":"T_ENV_MOD_StoneStack_01_v3_N.png","uri":"T_ENV_MOD_StoneStack_01_v3_N.png","mimeType":"image/png"},{"name":"T_ENV_MOD_StoneStack_01_v3_BC.jpg","uri":"T_ENV_MOD_StoneStack_01_v3_BC.jpg","mimeType":"image/jpeg"},{"name":"T_ENV_MOD_StoneStack_01_v3_MTSM.jpg","uri":"T_ENV_MOD_StoneStack_01_v3_MTSM.jpg","mimeType":"image/jpeg"},{"name":"T_ENV_MOD_Wall_01_v1_N.png","uri":"T_ENV_MOD_Wall_01_v1_N.png","mimeType":"image/png"},{"name":"T_ENV_MOD_Wall_01_v1_BC.jpg","uri":"T_ENV_MOD_Wall_01_v1_BC.jpg","mimeType":"image/jpeg"},{"name":"T_ENV_MOD_Wall_01_v1_MTSM.jpg","uri":"T_ENV_MOD_Wall_01_v1_MTSM.jpg","mimeType":"image/jpeg"},{"name":"T_PROP_wood_planks_interior_02_BC.jpg","uri":"T_PROP_wood_planks_interior_02_BC.jpg","mimeType":"image/jpeg"},{"name":"T_PROP_wood_planks_interior_01_BC.jpg","uri":"T_PROP_wood_planks_interior_01_BC.jpg","mimeType":"image/jpeg"},{"name":"T_PROP_metal_interior_E.jpg","uri":"T_PROP_metal_interior_E.jpg","mimeType":"image/jpeg"},{"name":"T_PROP_metal_interior_BC.jpg","uri":"T_PROP_metal_interior_BC.jpg","mimeType":"image/jpeg"},{"name":"T_wood_planks_dungeon_03_N.png","uri":"T_wood_planks_dungeon_03_N.png","mimeType":"image/png"},{"name":"T_wood_planks_dungeon_03_BC.jpg","uri":"T_wood_planks_dungeon_03_BC.jpg","mimeType":"image/jpeg"},{"name":"T_wood_planks_dungeon_03_MTSM_nometal.jpg","uri":"T_wood_planks_dungeon_03_MTSM_nometal.jpg","mimeType":"image/jpeg"},{"name":"T_wood_planks_dungeon_04_N.png","uri":"T_wood_planks_dungeon_04_N.png","mimeType":"image/png"},{"name":"T_wood_planks_dungeon_04_BC.jpg","uri":"T_wood_planks_dungeon_04_BC.jpg","mimeType":"image/jpeg"},{"name":"T_wood_planks_dungeon_04_MTSM.jpg","uri":"T_wood_planks_dungeon_04_MTSM.jpg","mimeType":"image/jpeg"},{"name":"T_PROP_gold_dungeon_N.png","uri":"T_PROP_gold_dungeon_N.png","mimeType":"image/png"},{"name":"T_PROP_gold_dungeon_BC.jpg","uri":"T_PROP_gold_dungeon_BC.jpg","mimeType":"image/jpeg"},{"name":"T_PROP_gold_dungeon_MTSM_nometal.jpg","uri":"T_PROP_gold_dungeon_MTSM_nometal.jpg","mimeType":"image/jpeg"},{"name":"T_PROP_weapon_dungeon_BC.jpg","uri":"T_PROP_weapon_dungeon_BC.jpg","mimeType":"image/jpeg"},{"name":"T_PROP_books_dungeon_BC.jpg","uri":"T_PROP_books_dungeon_BC.jpg","mimeType":"image/jpeg"},{"name":"T_PROP_candle _dungeon_BC.jpg","uri":"T_PROP_candle _dungeon_BC.jpg","mimeType":"image/jpeg"},{"name":"T_PROP_skeleton_dungeon_BC.jpg","uri":"T_PROP_skeleton_dungeon_BC.jpg","mimeType":"image/jpeg"},{"name":"T_PROP_bottle_dungeon_BC.jpg","uri":"T_PROP_bottle_dungeon_BC.jpg","mimeType":"image/jpeg"},{"name":"T_PROP_pot_dungeon_BC.jpg","uri":"T_PROP_pot_dungeon_BC.jpg","mimeType":"image/jpeg"},{"name":"T_PROP_tools_dungeon_BC.jpg","uri":"T_PROP_tools_dungeon_BC.jpg","mimeType":"image/jpeg"},{"name":"T_PROP_spiderweb_dungeon_BC.png","uri":"T_PROP_spiderweb_dungeon_BC.png","mimeType":"image/png"},{"name":"T_PROP_frames_interior_BC.jpg","uri":"T_PROP_frames_interior_BC.jpg","mimeType":"image/jpeg"},{"name":"T_PROP_items_interior_03_BC.jpg","uri":"T_PROP_items_interior_03_BC.jpg","mimeType":"image/jpeg"}],"materials":[{"name":"EspectralPath","pbrMetallicRoughness":{"baseColorFactor":[0,0.936659038,0.957614,0.192156866],"metallicFactor":0.53,"roughnessFactor":0.5},"emissiveFactor":[0.3160377,0.86320734,1],"alphaMode":"BLEND"},{"name":"M_ENV_MOD_Interior_PlanksShort_02_v2","pbrMetallicRoughness":{"baseColorTexture":{"index":1},"metallicRoughnessTexture":{"index":2}},"normalTexture":{"index":0}},{"name":"M_MOD_Floor_01_v3_clean","pbrMetallicRoughness":{"roughnessFactor":0,"baseColorTexture":{"index":4},"metallicRoughnessTexture":{"index":5}},"normalTexture":{"index":3}},{"name":"M_MOD_Wall_01_v3","pbrMetallicRoughness":{"roughnessFactor":0,"baseColorTexture":{"index":7},"metallicRoughnessTexture":{"index":8}},"normalTexture":{"index":6,"scale":1.82}},{"name":"M_MOD_Trim_Stone_01_v3","pbrMetallicRoughness":{"roughnessFactor":0,"baseColorTexture":{"index":10},"metallicRoughnessTexture":{"index":11}},"normalTexture":{"index":9}},{"name":"M_MOD_Wall_01_v1","pbrMetallicRoughness":{"roughnessFactor":0,"baseColorTexture":{"index":13},"metallicRoughnessTexture":{"index":14}},"normalTexture":{"index":12,"scale":1.82}},{"name":"M_PROP_wood_planks_interior_02","pbrMetallicRoughness":{"metallicFactor":0,"baseColorTexture":{"index":15}}},{"name":"M_PROP_wood_planks_interior_01","pbrMetallicRoughness":{"metallicFactor":0,"baseColorTexture":{"index":16}}},{"name":"M_PROP_metal_interior","pbrMetallicRoughness":{"metallicFactor":0,"baseColorTexture":{"index":18}},"emissiveTexture":{"index":17},"emissiveFactor":[1,0.447957,0.07655142]},{"name":"M_wood_planks_dungeon_03","pbrMetallicRoughness":{"roughnessFactor":0,"baseColorTexture":{"index":20},"metallicRoughnessTexture":{"index":21}},"normalTexture":{"index":19}},{"name":"M_wood_planks_dungeon_04","pbrMetallicRoughness":{"roughnessFactor":0,"baseColorTexture":{"index":23},"metallicRoughnessTexture":{"index":24}},"normalTexture":{"index":22}},{"name":"M_PROP_goldpile_dungeon","pbrMetallicRoughness":{"roughnessFactor":0,"baseColorTexture":{"index":26},"metallicRoughnessTexture":{"index":27}},"normalTexture":{"index":25}},{"name":"M_PROP_weapon_dungeon","pbrMetallicRoughness":{"metallicFactor":0,"baseColorTexture":{"index":28}}},{"name":"M_PROP_books_dungeon","pbrMetallicRoughness":{"metallicFactor":0,"baseColorTexture":{"index":29}},"doubleSided":true},{"name":"M_PROP_candle_dungeon","pbrMetallicRoughness":{"metallicFactor":0,"baseColorTexture":{"index":30}}},{"name":"M_PROP_skeleton_dungeon","pbrMetallicRoughness":{"metallicFactor":0,"baseColorTexture":{"index":31}}},{"name":"M_PROP_bottle_dungeon","pbrMetallicRoughness":{"metallicFactor":0,"baseColorTexture":{"index":32}}},{"name":"M_PROP_pot_dungeon","pbrMetallicRoughness":{"metallicFactor":0,"baseColorTexture":{"index":33}}},{"name":"M_PROP_tools_dungeon","pbrMetallicRoughness":{"metallicFactor":0,"baseColorTexture":{"index":34}}},{"name":"M_PROP_spiderweb_dungeon","pbrMetallicRoughness":{"baseColorFactor":[0.432035774,0.432035774,0.432035774,1],"metallicFactor":0,"baseColorTexture":{"index":35}},"alphaMode":"BLEND","doubleSided":true},{"name":"M_PROP_frames_interior","pbrMetallicRoughness":{"metallicFactor":0,"baseColorTexture":{"index":36}}},{"name":"M_PROP_items_interior_03","pbrMetallicRoughness":{"metallicFactor":0,"baseColorTexture":{"index":37}}}],"meshes":[{"name":"pb_Mesh-72180(Clone)(Clone)","primitives":[{"attributes":{"POSITION":0,"NORMAL":1,"TANGENT":2,"TEXCOORD_0":3},"indices":4,"material":0},{"attributes":{"POSITION":0,"NORMAL":1,"TANGENT":2,"TEXCOORD_0":3},"indices":5,"material":1},{"attributes":{"POSITION":0,"NORMAL":1,"TANGENT":2,"TEXCOORD_0":3},"indices":6,"material":2},{"attributes":{"POSITION":0,"NORMAL":1,"TANGENT":2,"TEXCOORD_0":3},"indices":7,"material":3},{"attributes":{"POSITION":0,"NORMAL":1,"TANGENT":2,"TEXCOORD_0":3},"indices":8,"material":4},{"attributes":{"POSITION":0,"NORMAL":1,"TANGENT":2,"TEXCOORD_0":3},"indices":9,"material":5},{"attributes":{"POSITION":0,"NORMAL":1,"TANGENT":2,"TEXCOORD_0":3},"indices":10,"material":6},{"attributes":{"POSITION":0,"NORMAL":1,"TANGENT":2,"TEXCOORD_0":3},"indices":11,"material":7},{"attributes":{"POSITION":0,"NORMAL":1,"TANGENT":2,"TEXCOORD_0":3},"indices":12,"material":8},{"attributes":{"POSITION":0,"NORMAL":1,"TANGENT":2,"TEXCOORD_0":3},"indices":13,"material":9},{"attributes":{"POSITION":0,"NORMAL":1,"TANGENT":2,"TEXCOORD_0":3},"indices":14,"material":10},{"attributes":{"POSITION":0,"NORMAL":1,"TANGENT":2,"TEXCOORD_0":3},"indices":15,"material":11},{"attributes":{"POSITION":0,"NORMAL":1,"TANGENT":2,"TEXCOORD_0":3},"indices":16,"material":12},{"attributes":{"POSITION":0,"NORMAL":1,"TANGENT":2,"TEXCOORD_0":3},"indices":17,"material":13},{"attributes":{"POSITION":0,"NORMAL":1,"TANGENT":2,"TEXCOORD_0":3},"indices":18,"material":14},{"attributes":{"POSITION":0,"NORMAL":1,"TANGENT":2,"TEXCOORD_0":3},"indices":19,"material":15},{"attributes":{"POSITION":0,"NORMAL":1,"TANGENT":2,"TEXCOORD_0":3},"indices":20,"material":16},{"attributes":{"POSITION":0,"NORMAL":1,"TANGENT":2,"TEXCOORD_0":3},"indices":21,"material":17},{"attributes":{"POSITION":0,"NORMAL":1,"TANGENT":2,"TEXCOORD_0":3},"indices":22,"material":18},{"attributes":{"POSITION":0,"NORMAL":1,"TANGENT":2,"TEXCOORD_0":3},"indices":23,"material":19},{"attributes":{"POSITION":0,"NORMAL":1,"TANGENT":2,"TEXCOORD_0":3},"indices":24,"material":20},{"attributes":{"POSITION":0,"NORMAL":1,"TANGENT":2,"TEXCOORD_0":3},"indices":25,"material":21}]}],"samplers":[{"wrapS":33071,"wrapT":33071}],"scene":0,"scenes":[{"name":"StorageRoom","nodes":[0]}],"textures":[{"source":0},{"source":1},{"source":2},{"source":3},{"source":4},{"source":5},{"source":6},{"source":7},{"source":8},{"source":9},{"source":10},{"source":11},{"source":12},{"source":13},{"source":14},{"source":15},{"source":16},{"source":17},{"source":18},{"source":19},{"source":20},{"source":21},{"source":22},{"source":23},{"source":24},{"source":25},{"source":26},{"source":27},{"source":28},{"source":29},{"source":30},{"source":31},{"source":32},{"source":33},{"source":34},{"source":35,"sampler":0},{"source":36},{"source":37}]}