{"asset":{"version":"2.0","generator":"Unity 6000.2.9f1 glTFast 6.15.1"},"nodes":[{"name":"Sphere","mesh":0,"translation":[-44.44,2.882,1.908],"scale":[0.292897969,0.292897969,0.292897969]}],"buffers":[{"uri":"Sphere.bin","byteLength":33448}],"bufferViews":[{"buffer":0,"byteLength":4608,"target":34963},{"buffer":0,"byteLength":28840,"byteOffset":4608,"byteStride":56,"target":34962}],"accessors":[{"bufferView":1,"componentType":5126,"count":515,"type":"VEC3","max":[0.5,0.5,0.5],"min":[-0.5,-0.5,-0.5]},{"bufferView":1,"componentType":5126,"count":515,"type":"VEC3","byteOffset":12},{"bufferView":1,"componentType":5126,"count":515,"type":"VEC4","byteOffset":24},{"bufferView":1,"componentType":5126,"count":515,"type":"VEC2","byteOffset":40},{"bufferView":1,"componentType":5126,"count":515,"type":"VEC2","byteOffset":48},{"bufferView":0,"componentType":5123,"count":2304,"type":"SCALAR"}],"materials":[{"name":"Brekable","pbrMetallicRoughness":{"baseColorFactor":[0.775822461,0.822786,0.05448027,1],"metallicFactor":0,"roughnessFactor":0.5}}],"meshes":[{"name":"Sphere","primitives":[{"attributes":{"POSITION":0,"NORMAL":1,"TANGENT":2,"TEXCOORD_0":3,"TEXCOORD_1":4},"indices":5,"material":0}]}],"scene":0,"scenes":[{"name":"Sphere","nodes":[0]}]}