{"asset":{"version":"2.0","generator":"Unity 6000.2.9f1 glTFast 6.16.0"},"nodes":[{"name":"P_MOD_Floor_01_O_straight_med","mesh":0,"translation":[-28,0,0]},{"name":"P_MOD_Floor_01_O_straight_med (8)","mesh":0,"translation":[-28,0,-4]},{"name":"P_MOD_Floor_01_O_straight_med (9)","mesh":0,"translation":[-24,0,-4]},{"name":"P_MOD_Floor_01_O_straight_med (10)","mesh":0,"translation":[-20,0,-4]},{"name":"P_MOD_Floor_01_O_straight_med (11)","mesh":0,"translation":[-16,0,-4]},{"name":"P_MOD_Floor_01_O_straight_med (12)","mesh":0,"translation":[-12,0,-4]},{"name":"P_MOD_Floor_01_O_straight_med (23)","mesh":0,"translation":[0,0,-8]},{"name":"P_MOD_Floor_01_O_straight_med (22)","mesh":0,"translation":[-4,0,-8]},{"name":"P_MOD_Floor_01_O_straight_med (21)","mesh":0,"translation":[-8,0,-8]},{"name":"P_MOD_Floor_01_O_straight_med (20)","mesh":0,"translation":[-12,0,-8]},{"name":"P_MOD_Floor_01_O_straight_med (19)","mesh":0,"translation":[-16,0,-8]},{"name":"P_MOD_Floor_01_O_straight_med (18)","mesh":0,"translation":[-20,0,-8]},{"name":"P_MOD_Floor_01_O_straight_med (31)","mesh":0,"translation":[-28,0,-12]},{"name":"P_MOD_Floor_01_O_straight_med (30)","mesh":0,"translation":[-24,0,-12]},{"name":"P_MOD_Floor_01_O_straight_med (29)","mesh":0,"translation":[-20,0,-12]},{"name":"P_MOD_Floor_01_O_straight_med (28)","mesh":0,"translation":[-16,0,-12]},{"name":"P_MOD_Floor_01_O_straight_med (27)","mesh":0,"translation":[-12,0,-12]},{"name":"P_MOD_Floor_01_O_straight_med (26)","mesh":0,"translation":[-8,0,-12]},{"name":"P_MOD_Floor_01_O_straight_med (25)","mesh":0,"translation":[-4,0,-12]},{"name":"P_MOD_Floor_01_O_straight_med (24)","mesh":0,"translation":[0,0,-12]},{"name":"P_MOD_Floor_01_O_straight_med (39)","mesh":0,"translation":[0,0,-16]},{"name":"P_MOD_Floor_01_O_straight_med (38)","mesh":0,"translation":[-4,0,-16]},{"name":"P_MOD_Floor_01_O_straight_med (37)","mesh":0,"translation":[-8,0,-16]},{"name":"P_MOD_Floor_01_O_straight_med (36)","mesh":0,"translation":[-12,0,-16]},{"name":"P_MOD_Floor_01_O_straight_med (47)","mesh":0,"translation":[-28,0,-20]},{"name":"P_MOD_Floor_01_O_straight_med (55)","mesh":0,"translation":[0,0,-24]},{"name":"P_MOD_Floor_01_O_straight_med (54)","mesh":0,"translation":[-4,0,-24]},{"name":"P_MOD_Floor_01_O_straight_med (53)","mesh":0,"translation":[-8,0,-24]},{"name":"P_MOD_Floor_01_O_straight_med (52)","mesh":0,"translation":[-12,0,-24]},{"name":"P_MOD_Floor_01_O_straight_med (51)","mesh":0,"translation":[-16,0,-24]},{"name":"P_MOD_Floor_01_O_straight_med (50)","mesh":0,"translation":[-20,0,-24]},{"name":"P_MOD_Floor_01_O_straight_med (63)","mesh":0,"translation":[-28,0,-28]},{"name":"P_MOD_Floor_01_O_straight_med (62)","mesh":0,"translation":[-24,0,-28]},{"name":"P_MOD_Floor_01_O_straight_med (61)","mesh":0,"translation":[-20,0,-28]},{"name":"P_MOD_Floor_01_O_straight_med (60)","mesh":0,"translation":[-16,0,-28]},{"name":"P_MOD_Floor_01_O_straight_med (59)","mesh":0,"translation":[-12,0,-28]},{"name":"P_MOD_Floor_01_O_straight_med (58)","mesh":0,"translation":[-8,0,-28]},{"name":"P_MOD_Floor_01_O_straight_med (57)","mesh":0,"translation":[-4,0,-28]},{"name":"P_MOD_Floor_01_O_straight_med (56)","mesh":0,"translation":[0,0,-28]},{"name":"P_MOD_Floor_01_O_straight_med (71)","mesh":0,"translation":[0,0,-32]},{"name":"P_MOD_Floor_01_O_straight_med (70)","mesh":0,"translation":[-4,0,-32]},{"name":"P_MOD_Floor_01_O_straight_med (69)","mesh":0,"translation":[-8,0,-32]},{"name":"P_MOD_Floor_01_O_straight_med (68)","mesh":0,"translation":[-12,0,-32]},{"name":"P_MOD_Floor_01_O_straight_med (67)","mesh":0,"translation":[-16,0,-32]},{"name":"P_MOD_Floor_01_O_straight_med (66)","mesh":0,"translation":[-20,0,-32]},{"name":"P_MOD_Floor_01_O_straight_med (65)","mesh":0,"translation":[-24,0,-32]},{"name":"P_MOD_Floor_01_O_straight_med (64)","mesh":0,"translation":[-28,0,-32]},{"name":"P_MOD_Floor_01_O_straight_med (49)","mesh":0,"translation":[-24,0,-24]},{"name":"P_MOD_Floor_01_O_straight_med (48)","mesh":0,"translation":[-28,0,-24]},{"name":"P_MOD_Floor_01_O_straight_med (46)","mesh":0,"translation":[-24,0,-20]},{"name":"P_MOD_Floor_01_O_straight_med (45)","mesh":0,"translation":[-20,0,-20]},{"name":"P_MOD_Floor_01_O_straight_med (44)","mesh":0,"translation":[-16,0,-20]},{"name":"P_MOD_Floor_01_O_straight_med (43)","mesh":0,"translation":[-12,0,-20]},{"name":"P_MOD_Floor_01_O_straight_med (42)","mesh":0,"translation":[-8,0,-20]},{"name":"P_MOD_Floor_01_O_straight_med (41)","mesh":0,"translation":[-4,0,-20]},{"name":"P_MOD_Floor_01_O_straight_med (40)","mesh":0,"translation":[0,0,-20]},{"name":"P_MOD_Floor_01_O_straight_med (35)","mesh":0,"translation":[-16,0,-16]},{"name":"P_MOD_Floor_01_O_straight_med (34)","mesh":0,"translation":[-20,0,-16]},{"name":"P_MOD_Floor_01_O_straight_med (33)","mesh":0,"translation":[-24,0,-16]},{"name":"P_MOD_Floor_01_O_straight_med (32)","mesh":0,"translation":[-28,0,-16]},{"name":"P_MOD_Floor_01_O_straight_med (17)","mesh":0,"translation":[-24,0,-8]},{"name":"P_MOD_Floor_01_O_straight_med (16)","mesh":0,"translation":[-28,0,-8]},{"name":"P_MOD_Floor_01_O_straight_med (13)","mesh":0,"translation":[-8,0,-4]},{"name":"P_MOD_Floor_01_O_straight_med (14)","mesh":0,"translation":[-4,0,-4]},{"name":"P_MOD_Floor_01_O_straight_med (15)","mesh":0,"translation":[0,0,-4]},{"name":"P_MOD_Floor_01_O_straight_med (1)","mesh":0,"translation":[-24,0,0]},{"name":"P_MOD_Floor_01_O_straight_med (2)","mesh":0,"translation":[-20,0,0]},{"name":"P_MOD_Floor_01_O_straight_med (3)","mesh":0,"translation":[-16,0,0]},{"name":"P_MOD_Floor_01_O_straight_med (4)","mesh":0,"translation":[-12,0,0]},{"name":"P_MOD_Floor_01_O_straight_med (5)","mesh":0,"translation":[-8,0,0]},{"name":"P_MOD_Floor_01_O_straight_med (6)","mesh":0,"translation":[-4,0,0]},{"name":"P_MOD_Floor_01_O_straight_med (7)","mesh":0},{"name":"Floor","children":[0,1,2,3,4,5,6,7,8,9,10,11,12,13,14,15,16,17,18,19,20,21,22,23,24,25,26,27,28,29,30,31,32,33,34,35,36,37,38,39,40,41,42,43,44,45,46,47,48,49,50,51,52,53,54,55,56,57,58,59,60,61,62,63,64,65,66,67,68,69,70,71],"translation":[18,0,6]}],"buffers":[{"uri":"Floor.bin","byteLength":236}],"bufferViews":[{"buffer":0,"byteLength":12,"target":34963},{"buffer":0,"byteLength":224,"byteOffset":12,"byteStride":56,"target":34962}],"accessors":[{"bufferView":1,"componentType":5126,"count":4,"type":"VEC3","max":[4,2.98023224E-08,4],"min":[0,2.98023224E-08,0]},{"bufferView":1,"componentType":5126,"count":4,"type":"VEC3","byteOffset":12},{"bufferView":1,"componentType":5126,"count":4,"type":"VEC4","byteOffset":24},{"bufferView":1,"componentType":5126,"count":4,"type":"VEC2","byteOffset":40},{"bufferView":1,"componentType":5126,"count":4,"type":"VEC2","byteOffset":48},{"bufferView":0,"componentType":5123,"count":6,"type":"SCALAR"}],"images":[{"name":"T_ENV_MOD_Floor_01_v3_N.png","uri":"T_ENV_MOD_Floor_01_v3_N.png","mimeType":"image/png"},{"name":"T_ENV_MOD_Floor_01_v3_BC.jpg","uri":"T_ENV_MOD_Floor_01_v3_BC.jpg","mimeType":"image/jpeg"},{"name":"T_ENV_MOD_Floor_01_v3_MTSM.jpg","uri":"T_ENV_MOD_Floor_01_v3_MTSM.jpg","mimeType":"image/jpeg"}],"materials":[{"name":"M_MOD_Floor_01_v3","pbrMetallicRoughness":{"roughnessFactor":0,"baseColorTexture":{"index":1},"metallicRoughnessTexture":{"index":2}},"normalTexture":{"index":0}}],"meshes":[{"name":"MOD_Floor_01_O_straight_med","primitives":[{"attributes":{"POSITION":0,"NORMAL":1,"TANGENT":2,"TEXCOORD_0":3,"TEXCOORD_1":4},"indices":5,"material":0}]}],"scene":0,"scenes":[{"name":"Floor","nodes":[72]}],"textures":[{"source":0},{"source":1},{"source":2}]}