{"asset":{"version":"2.0","generator":"Unity 6000.2.9f1 glTFast 6.15.1"},"nodes":[{"name":"P_MOD_Floor_01_E_straight_med (14)","mesh":0,"translation":[11.1628017,0.63,4.42758]},{"name":"Ground","children":[0],"translation":[68.8,0,-75.44655],"rotation":[0,-1,0,0]}],"buffers":[{"uri":"Ground.bin","byteLength":140184}],"bufferViews":[{"buffer":0,"byteLength":7128,"target":34963},{"buffer":0,"byteLength":133056,"byteOffset":7128,"byteStride":56,"target":34962}],"accessors":[{"bufferView":1,"componentType":5126,"count":2376,"type":"VEC3","max":[16,2.98023224E-08,16],"min":[-40.0000076,-0.49999994,-44]},{"bufferView":1,"componentType":5126,"count":2376,"type":"VEC3","byteOffset":12},{"bufferView":1,"componentType":5126,"count":2376,"type":"VEC4","byteOffset":24},{"bufferView":1,"componentType":5126,"count":2376,"type":"VEC2","byteOffset":40},{"bufferView":1,"componentType":5126,"count":2376,"type":"VEC2","byteOffset":48},{"bufferView":0,"componentType":5123,"count":3564,"type":"SCALAR"}],"images":[{"name":"T_ENV_MOD_Floor_01_v3_N.png","uri":"T_ENV_MOD_Floor_01_v3_N.png","mimeType":"image/png"},{"name":"T_ENV_MOD_Floor_01_v3_BC.jpg","uri":"T_ENV_MOD_Floor_01_v3_BC.jpg","mimeType":"image/jpeg"},{"name":"T_ENV_MOD_Floor_01_v3_MTSM.jpg","uri":"T_ENV_MOD_Floor_01_v3_MTSM.jpg","mimeType":"image/jpeg"}],"materials":[{"name":"M_MOD_Floor_01_v3","pbrMetallicRoughness":{"roughnessFactor":0,"baseColorTexture":{"index":1},"metallicRoughnessTexture":{"index":2}},"normalTexture":{"index":0}}],"meshes":[{"name":"pb_Mesh-101288","primitives":[{"attributes":{"POSITION":0,"NORMAL":1,"TANGENT":2,"TEXCOORD_0":3,"TEXCOORD_1":4},"indices":5,"material":0}]}],"scene":0,"scenes":[{"name":"Ground","nodes":[1]}],"textures":[{"source":0},{"source":1},{"source":2}]}