{
	"asset":{
		"generator":"Khronos glTF Blender I/O v5.0.21",
		"version":"2.0"
	},
	"scene":0,
	"scenes":[
		{
			"name":"Scene",
			"nodes":[
				0
			]
		}
	],
	"nodes":[
		{
			"mesh":0,
			"name":"SM_PROP_pot_dungeon_10_cell.001"
		}
	],
	"materials":[
		{
			"doubleSided":true,
			"name":"Material.004",
			"pbrMetallicRoughness":{
				"baseColorTexture":{
					"index":0
				},
				"metallicFactor":0,
				"roughnessFactor":0.5
			}
		},
		{
			"doubleSided":true,
			"name":"SM_PROP_pot_dungeon_10_Inner_mat",
			"pbrMetallicRoughness":{
				"baseColorFactor":[
					0.25,
					0.25,
					0.25,
					1
				],
				"metallicFactor":0,
				"roughnessFactor":0.5
			}
		}
	],
	"meshes":[
		{
			"name":"SM_PROP_pot_dungeon_10_cell.001",
			"primitives":[
				{
					"attributes":{
						"POSITION":0,
						"NORMAL":1,
						"TEXCOORD_0":2,
						"TEXCOORD_1":3
					},
					"indices":4,
					"material":0
				},
				{
					"attributes":{
						"POSITION":5,
						"NORMAL":6,
						"TEXCOORD_0":7,
						"TEXCOORD_1":8
					},
					"indices":9,
					"material":1
				}
			]
		}
	],
	"textures":[
		{
			"sampler":0,
			"source":0
		}
	],
	"images":[
		{
			"mimeType":"image/png",
			"name":"T_PROP_pot_dungeon_BC",
			"uri":"Vase_Broken/T_PROP_pot_dungeon_BC.png"
		}
	],
	"accessors":[
		{
			"bufferView":0,
			"componentType":5126,
			"count":349,
			"max":[
				0.1981697678565979,
				0.5479438900947571,
				0.2250795066356659
			],
			"min":[
				-0.5291810631752014,
				-0.010749071836471558,
				-0.5921347141265869
			],
			"type":"VEC3"
		},
		{
			"bufferView":1,
			"componentType":5126,
			"count":349,
			"type":"VEC3"
		},
		{
			"bufferView":2,
			"componentType":5126,
			"count":349,
			"type":"VEC2"
		},
		{
			"bufferView":3,
			"componentType":5126,
			"count":349,
			"type":"VEC2"
		},
		{
			"bufferView":4,
			"componentType":5123,
			"count":1152,
			"type":"SCALAR"
		},
		{
			"bufferView":5,
			"componentType":5126,
			"count":148,
			"max":[
				0.1981697678565979,
				0.5479438900947571,
				0.2098303586244583
			],
			"min":[
				-0.5269563794136047,
				-0.010749071836471558,
				-0.5921347141265869
			],
			"type":"VEC3"
		},
		{
			"bufferView":6,
			"componentType":5126,
			"count":148,
			"type":"VEC3"
		},
		{
			"bufferView":7,
			"componentType":5126,
			"count":148,
			"type":"VEC2"
		},
		{
			"bufferView":8,
			"componentType":5126,
			"count":148,
			"type":"VEC2"
		},
		{
			"bufferView":9,
			"componentType":5123,
			"count":348,
			"type":"SCALAR"
		}
	],
	"bufferViews":[
		{
			"buffer":0,
			"byteLength":4188,
			"byteOffset":0,
			"target":34962
		},
		{
			"buffer":0,
			"byteLength":4188,
			"byteOffset":4188,
			"target":34962
		},
		{
			"buffer":0,
			"byteLength":2792,
			"byteOffset":8376,
			"target":34962
		},
		{
			"buffer":0,
			"byteLength":2792,
			"byteOffset":11168,
			"target":34962
		},
		{
			"buffer":0,
			"byteLength":2304,
			"byteOffset":13960,
			"target":34963
		},
		{
			"buffer":0,
			"byteLength":1776,
			"byteOffset":16264,
			"target":34962
		},
		{
			"buffer":0,
			"byteLength":1776,
			"byteOffset":18040,
			"target":34962
		},
		{
			"buffer":0,
			"byteLength":1184,
			"byteOffset":19816,
			"target":34962
		},
		{
			"buffer":0,
			"byteLength":1184,
			"byteOffset":21000,
			"target":34962
		},
		{
			"buffer":0,
			"byteLength":696,
			"byteOffset":22184,
			"target":34963
		}
	],
	"samplers":[
		{
			"magFilter":9729,
			"minFilter":9987
		}
	],
	"buffers":[
		{
			"byteLength":22880,
			"uri":"Vase_Broken.bin"
		}
	]
}
