{"asset":{"version":"2.0","generator":"Unity 6000.2.9f1 glTFast 6.15.1"},"nodes":[{"name":"Ground (1)","mesh":0}],"buffers":[{"uri":"Chapel.bin","byteLength":152568}],"bufferViews":[{"buffer":0,"byteLength":12360,"target":34963},{"buffer":0,"byteLength":140208,"byteOffset":12360,"byteStride":48,"target":34962}],"accessors":[{"bufferView":1,"componentType":5126,"count":2921,"type":"VEC3","max":[4.5,29,22.5000458],"min":[-32,-1.5,-6]},{"bufferView":1,"componentType":5126,"count":2921,"type":"VEC3","byteOffset":12},{"bufferView":1,"componentType":5126,"count":2921,"type":"VEC4","byteOffset":24},{"bufferView":1,"componentType":5126,"count":2921,"type":"VEC2","byteOffset":40},{"bufferView":0,"componentType":5123,"count":6180,"type":"SCALAR"}],"images":[{"name":"GridBox_Default.jpg","uri":"GridBox_Default.jpg","mimeType":"image/jpeg"}],"materials":[{"name":"ProBuilderDefault","pbrMetallicRoughness":{"metallicFactor":0,"baseColorTexture":{"index":0}}}],"meshes":[{"name":"pb_Mesh-251552","primitives":[{"attributes":{"POSITION":0,"NORMAL":1,"TANGENT":2,"TEXCOORD_0":3},"indices":4,"material":0}]}],"scene":0,"scenes":[{"name":"Ground (1)","nodes":[0]}],"textures":[{"source":0}]}