{"asset":{"version":"2.0","generator":"Unity 6000.2.9f1 glTFast 6.15.1"},"nodes":[{"name":"Plane","mesh":0,"rotation":[0,-0.707106769,0,0.7071067],"scale":[1.00000012,1,1.00000012]}],"extensionsRequired":["KHR_texture_transform"],"extensionsUsed":["KHR_texture_transform"],"buffers":[{"uri":"Passage.bin","byteLength":129528}],"bufferViews":[{"buffer":0,"byteLength":9192,"target":34963},{"buffer":0,"byteLength":120336,"byteOffset":9192,"byteStride":48,"target":34962}],"accessors":[{"bufferView":1,"componentType":5126,"count":2507,"type":"VEC3","max":[29.0995522,9.608001,45.6114731],"min":[-5.16447735,-1,-45.39225]},{"bufferView":1,"componentType":5126,"count":2507,"type":"VEC3","byteOffset":12},{"bufferView":1,"componentType":5126,"count":2507,"type":"VEC4","byteOffset":24},{"bufferView":1,"componentType":5126,"count":2507,"type":"VEC2","byteOffset":40},{"bufferView":0,"componentType":5123,"count":648,"type":"SCALAR"},{"bufferView":0,"componentType":5123,"count":3000,"type":"SCALAR","byteOffset":1296},{"bufferView":0,"componentType":5123,"count":288,"type":"SCALAR","byteOffset":7296},{"bufferView":0,"componentType":5123,"count":612,"type":"SCALAR","byteOffset":7872},{"bufferView":0,"componentType":5123,"count":48,"type":"SCALAR","byteOffset":9096}],"images":[{"name":"Grid_01_Emissive.jpg","uri":"Grid_01_Emissive.jpg","mimeType":"image/jpeg"},{"name":"Grid_01_Normal.png","uri":"Grid_01_Normal.png","mimeType":"image/png"},{"name":"Grid_01_BaseMap.jpg","uri":"Grid_01_BaseMap.jpg","mimeType":"image/jpeg"},{"name":"GridBox_Default.jpg","uri":"GridBox_Default.jpg","mimeType":"image/jpeg"},{"name":"T_ENV_MOD_Wall_01_v1_N.png","uri":"T_ENV_MOD_Wall_01_v1_N.png","mimeType":"image/png"},{"name":"T_ENV_MOD_Wall_01_v1_BC.jpg","uri":"T_ENV_MOD_Wall_01_v1_BC.jpg","mimeType":"image/jpeg"},{"name":"T_ENV_MOD_Wall_01_v1_MTSM.jpg","uri":"T_ENV_MOD_Wall_01_v1_MTSM.jpg","mimeType":"image/jpeg"}],"materials":[{"name":"GridBlue_01_Mat","pbrMetallicRoughness":{"baseColorFactor":[0.05942029,0.3932873,0.743349731,1],"metallicFactor":0,"roughnessFactor":0.523,"baseColorTexture":{"index":2,"extensions":{"KHR_texture_transform":{"offset":[0.004,0],"scale":[1,1]}}}},"normalTexture":{"index":1},"emissiveTexture":{"index":0},"emissiveFactor":[0.5,0.5,0.5]},{"name":"ProBuilderDefault","pbrMetallicRoughness":{"metallicFactor":0,"baseColorTexture":{"index":3}}},{"name":"M_MOD_Wall_01_v1","pbrMetallicRoughness":{"roughnessFactor":0,"baseColorTexture":{"index":5},"metallicRoughnessTexture":{"index":6}},"normalTexture":{"index":4,"scale":1.82},"alphaMode":"BLEND"},{"name":"Lit","pbrMetallicRoughness":{"baseColorFactor":[0.214041144,0.214041144,0.214041144,1],"metallicFactor":0,"roughnessFactor":0.5}},{"name":"No Name","pbrMetallicRoughness":{"metallicFactor":0,"roughnessFactor":0.5}}],"meshes":[{"name":"pb_Mesh-110344","primitives":[{"attributes":{"POSITION":0,"NORMAL":1,"TANGENT":2,"TEXCOORD_0":3},"indices":4,"material":0},{"attributes":{"POSITION":0,"NORMAL":1,"TANGENT":2,"TEXCOORD_0":3},"indices":5,"material":1},{"attributes":{"POSITION":0,"NORMAL":1,"TANGENT":2,"TEXCOORD_0":3},"indices":6,"material":2},{"attributes":{"POSITION":0,"NORMAL":1,"TANGENT":2,"TEXCOORD_0":3},"indices":7,"material":3},{"attributes":{"POSITION":0,"NORMAL":1,"TANGENT":2,"TEXCOORD_0":3},"indices":8,"material":4}]}],"scene":0,"scenes":[{"name":"Plane","nodes":[0]}],"textures":[{"source":0},{"source":1},{"source":2},{"source":3},{"source":4},{"source":5},{"source":6}]}