{"asset":{"version":"2.0","generator":"Unity 6000.2.9f1 glTFast 6.15.1"},"nodes":[{"name":"Stairs","mesh":0,"rotation":[0,-0.342020124,0,0.9396927],"scale":[1.4,1.4,1.4]}],"extensionsRequired":["KHR_texture_transform"],"extensionsUsed":["KHR_texture_transform"],"buffers":[{"uri":"ThroneRoom.bin","byteLength":295068}],"bufferViews":[{"buffer":0,"byteLength":20172,"target":34963},{"buffer":0,"byteLength":274896,"byteOffset":20172,"byteStride":48,"target":34962}],"accessors":[{"bufferView":1,"componentType":5126,"count":5727,"type":"VEC3","max":[20.7095222,14.3501682,22.685318],"min":[-32.9890671,-2.13999987,-30.6164246]},{"bufferView":1,"componentType":5126,"count":5727,"type":"VEC3","byteOffset":12},{"bufferView":1,"componentType":5126,"count":5727,"type":"VEC4","byteOffset":24},{"bufferView":1,"componentType":5126,"count":5727,"type":"VEC2","byteOffset":40},{"bufferView":0,"componentType":5123,"count":5160,"type":"SCALAR"},{"bufferView":0,"componentType":5123,"count":6,"type":"SCALAR","byteOffset":10320},{"bufferView":0,"componentType":5123,"count":4920,"type":"SCALAR","byteOffset":10332}],"images":[{"name":"GridBox_Default.jpg","uri":"GridBox_Default.jpg","mimeType":"image/jpeg"},{"name":"Grid_01_Emissive.jpg","uri":"Grid_01_Emissive.jpg","mimeType":"image/jpeg"},{"name":"Grid_01_Normal.png","uri":"Grid_01_Normal.png","mimeType":"image/png"},{"name":"Grid_01_BaseMap.jpg","uri":"Grid_01_BaseMap.jpg","mimeType":"image/jpeg"}],"materials":[{"name":"ProBuilderDefault","pbrMetallicRoughness":{"metallicFactor":0,"baseColorTexture":{"index":0}}},{"name":"GridBlue_01_Mat","pbrMetallicRoughness":{"baseColorFactor":[0.05942029,0.3932873,0.743349731,1],"metallicFactor":0,"roughnessFactor":0.523,"baseColorTexture":{"index":3,"extensions":{"KHR_texture_transform":{"offset":[0.004,0],"scale":[1,1]}}}},"normalTexture":{"index":2},"emissiveTexture":{"index":1},"emissiveFactor":[0.5,0.5,0.5]},{"name":"Lit","pbrMetallicRoughness":{"baseColorFactor":[0.214041144,0.214041144,0.214041144,1],"metallicFactor":0,"roughnessFactor":0.5}}],"meshes":[{"name":"pb_Mesh-111142","primitives":[{"attributes":{"POSITION":0,"NORMAL":1,"TANGENT":2,"TEXCOORD_0":3},"indices":4,"material":0},{"attributes":{"POSITION":0,"NORMAL":1,"TANGENT":2,"TEXCOORD_0":3},"indices":5,"material":1},{"attributes":{"POSITION":0,"NORMAL":1,"TANGENT":2,"TEXCOORD_0":3},"indices":6,"material":2}]}],"scene":0,"scenes":[{"name":"Stairs","nodes":[0]}],"textures":[{"source":0},{"source":1},{"source":2},{"source":3}]}