{"asset":{"version":"2.0","generator":"Unity 6000.3.3f1 glTFast 6.18.0"},"nodes":[{"name":"SM_PROP_weapon_arrow_dungeon","mesh":0,"translation":[1.52,24.8,19.99458]}],"buffers":[{"uri":"weapon_arrow_dungeon.bin","byteLength":4952}],"bufferViews":[{"buffer":0,"byteLength":360,"target":34963},{"buffer":0,"byteLength":4592,"byteOffset":360,"byteStride":56,"target":34962}],"accessors":[{"bufferView":1,"componentType":5126,"count":82,"type":"VEC3","max":[0.024936,0.0216008611,0.281033456],"min":[-0.02195161,-0.0215881877,-0.271052122]},{"bufferView":1,"componentType":5126,"count":82,"type":"VEC3","byteOffset":12},{"bufferView":1,"componentType":5126,"count":82,"type":"VEC4","byteOffset":24},{"bufferView":1,"componentType":5126,"count":82,"type":"VEC2","byteOffset":40},{"bufferView":1,"componentType":5126,"count":82,"type":"VEC2","byteOffset":48},{"bufferView":0,"componentType":5123,"count":180,"type":"SCALAR"}],"images":[{"name":"T_PROP_bow_dungeon_BC.jpg","uri":"T_PROP_bow_dungeon_BC.jpg","mimeType":"image/jpeg"}],"materials":[{"name":"M_PROP_bow_dungeon","pbrMetallicRoughness":{"metallicFactor":0,"roughnessFactor":0,"baseColorTexture":{"index":0}}}],"meshes":[{"name":"SM_PROP_weapon_arrow_dungeon","primitives":[{"attributes":{"POSITION":0,"NORMAL":1,"TANGENT":2,"TEXCOORD_0":3,"TEXCOORD_1":4},"indices":5,"material":0}]}],"scene":0,"scenes":[{"name":"SM_PROP_weapon_arrow_dungeon","nodes":[0]}],"textures":[{"source":0}]}