{"asset":{"version":"2.0","generator":"Unity 6000.2.9f1 glTFast 6.15.1"},"nodes":[{"name":"Normal","mesh":0,"translation":[0,-1.026,0]},{"name":"Spectral","mesh":2,"translation":[0,-1.026,0]},{"name":"SpikeTrap","children":[0,1],"mesh":1,"translation":[53.890274,0.006744981,-120.103851]}],"buffers":[{"uri":"SpikeTrap.bin","byteLength":72532}],"bufferViews":[{"buffer":0,"byteLength":2052,"target":34963},{"buffer":0,"byteLength":4008,"byteOffset":2052,"target":34963},{"buffer":0,"byteLength":23688,"byteOffset":6060,"byteStride":56,"target":34962},{"buffer":0,"byteLength":42784,"byteOffset":29748,"byteStride":56,"target":34962}],"accessors":[{"bufferView":2,"componentType":5126,"count":423,"type":"VEC3","max":[0.640078,1.23168039,0.5782746],"min":[-0.652165949,-0.0115970373,-0.6251377]},{"bufferView":2,"componentType":5126,"count":423,"type":"VEC3","byteOffset":12},{"bufferView":2,"componentType":5126,"count":423,"type":"VEC4","byteOffset":24},{"bufferView":2,"componentType":5126,"count":423,"type":"VEC2","byteOffset":40},{"bufferView":2,"componentType":5126,"count":423,"type":"VEC2","byteOffset":48},{"bufferView":0,"componentType":5123,"count":1026,"type":"SCALAR"},{"bufferView":3,"componentType":5126,"count":764,"type":"VEC3","max":[1.00101852,0.173487723,1.00473642],"min":[-1.0026834,-0.006744981,-1.00262642]},{"bufferView":3,"componentType":5126,"count":764,"type":"VEC3","byteOffset":12},{"bufferView":3,"componentType":5126,"count":764,"type":"VEC4","byteOffset":24},{"bufferView":3,"componentType":5126,"count":764,"type":"VEC2","byteOffset":40},{"bufferView":3,"componentType":5126,"count":764,"type":"VEC2","byteOffset":48},{"bufferView":1,"componentType":5123,"count":2004,"type":"SCALAR"}],"images":[{"name":"T_metal_dungeon_N.png","uri":"T_metal_dungeon_N.png","mimeType":"image/png"},{"name":"T_metal_dungeon_01_BC.jpg","uri":"T_metal_dungeon_01_BC.jpg","mimeType":"image/jpeg"},{"name":"T_metal_dungeon_MTSM_nometal.jpg","uri":"T_metal_dungeon_MTSM_nometal.jpg","mimeType":"image/jpeg"}],"materials":[{"name":"M_metal_dungeon_01","pbrMetallicRoughness":{"roughnessFactor":0,"baseColorTexture":{"index":1},"metallicRoughnessTexture":{"index":2}},"normalTexture":{"index":0}},{"name":"EspectralPath","pbrMetallicRoughness":{"baseColorFactor":[0,0.936659038,0.957614,0.192156866],"metallicFactor":0.53,"roughnessFactor":0.5},"emissiveFactor":[0.3160377,0.86320734,1],"alphaMode":"BLEND"}],"meshes":[{"name":"SM_PROP_trap_floor_spikes_dungeon_05","primitives":[{"attributes":{"POSITION":0,"NORMAL":1,"TANGENT":2,"TEXCOORD_0":3,"TEXCOORD_1":4},"indices":5,"material":0}]},{"name":"SM_PROP_trap_floor_dungeon_05","primitives":[{"attributes":{"POSITION":6,"NORMAL":7,"TANGENT":8,"TEXCOORD_0":9,"TEXCOORD_1":10},"indices":11,"material":0}]},{"name":"SM_PROP_trap_floor_spikes_dungeon_05","primitives":[{"attributes":{"POSITION":0,"NORMAL":1,"TANGENT":2,"TEXCOORD_0":3,"TEXCOORD_1":4},"indices":5,"material":1}]}],"scene":0,"scenes":[{"name":"SpikeTrap","nodes":[2]}],"textures":[{"source":0},{"source":1},{"source":2}]}